G04 #@! TF.GenerationSoftware,KiCad,Pcbnew,(6.0.8)*
G04 #@! TF.CreationDate,2022-10-25T11:31:58-07:00*
G04 #@! TF.ProjectId,SAMD10_demo_in_progress,53414d44-3130-45f6-9465-6d6f5f696e5f,rev?*
G04 #@! TF.SameCoordinates,Original*
G04 #@! TF.FileFunction,Copper,L1,Top*
G04 #@! TF.FilePolarity,Positive*
%FSLAX46Y46*%
G04 Gerber Fmt 4.6, Leading zero omitted, Abs format (unit mm)*
G04 Created by KiCad (PCBNEW (6.0.8)) date 2022-10-25 11:31:58*
%MOMM*%
%LPD*%
G01*
G04 APERTURE LIST*
G04 Aperture macros list*
%AMRoundRect*
0 Rectangle with rounded corners*
0 $1 Rounding radius*
0 $2 $3 $4 $5 $6 $7 $8 $9 X,Y pos of 4 corners*
0 Add a 4 corners polygon primitive as box body*
4,1,4,$2,$3,$4,$5,$6,$7,$8,$9,$2,$3,0*
0 Add four circle primitives for the rounded corners*
1,1,$1+$1,$2,$3*
1,1,$1+$1,$4,$5*
1,1,$1+$1,$6,$7*
1,1,$1+$1,$8,$9*
0 Add four rect primitives between the rounded corners*
20,1,$1+$1,$2,$3,$4,$5,0*
20,1,$1+$1,$4,$5,$6,$7,0*
20,1,$1+$1,$6,$7,$8,$9,0*
20,1,$1+$1,$8,$9,$2,$3,0*%
G04 Aperture macros list end*
G04 #@! TA.AperFunction,SMDPad,CuDef*
%ADD10RoundRect,0.250000X0.325000X0.450000X-0.325000X0.450000X-0.325000X-0.450000X0.325000X-0.450000X0*%
G04 #@! TD*
G04 #@! TA.AperFunction,SMDPad,CuDef*
%ADD11RoundRect,0.250000X-0.325000X-0.450000X0.325000X-0.450000X0.325000X0.450000X-0.325000X0.450000X0*%
G04 #@! TD*
G04 #@! TA.AperFunction,ComponentPad*
%ADD12R,1.700000X1.700000*%
G04 #@! TD*
G04 #@! TA.AperFunction,ComponentPad*
%ADD13O,1.700000X1.700000*%
G04 #@! TD*
G04 #@! TA.AperFunction,ComponentPad*
%ADD14RoundRect,0.250000X0.625000X-0.350000X0.625000X0.350000X-0.625000X0.350000X-0.625000X-0.350000X0*%
G04 #@! TD*
G04 #@! TA.AperFunction,ComponentPad*
%ADD15O,1.750000X1.200000*%
G04 #@! TD*
G04 #@! TA.AperFunction,SMDPad,CuDef*
%ADD16RoundRect,0.250000X-0.450000X0.325000X-0.450000X-0.325000X0.450000X-0.325000X0.450000X0.325000X0*%
G04 #@! TD*
G04 #@! TA.AperFunction,SMDPad,CuDef*
%ADD17RoundRect,0.150000X-0.825000X-0.150000X0.825000X-0.150000X0.825000X0.150000X-0.825000X0.150000X0*%
G04 #@! TD*
G04 #@! TA.AperFunction,SMDPad,CuDef*
%ADD18RoundRect,0.150000X0.587500X0.150000X-0.587500X0.150000X-0.587500X-0.150000X0.587500X-0.150000X0*%
G04 #@! TD*
G04 #@! TA.AperFunction,ViaPad*
%ADD19C,0.800000*%
G04 #@! TD*
G04 #@! TA.AperFunction,Conductor*
%ADD20C,0.250000*%
G04 #@! TD*
G04 APERTURE END LIST*
D10*
X81475000Y-75500000D03*
X79425000Y-75500000D03*
D11*
X75175000Y-75500000D03*
X77225000Y-75500000D03*
D10*
X81475000Y-73250000D03*
X79425000Y-73250000D03*
X85725000Y-75500000D03*
X83675000Y-75500000D03*
D12*
X80150000Y-88560000D03*
D13*
X80150000Y-91100000D03*
X77610000Y-88560000D03*
X77610000Y-91100000D03*
X75070000Y-88560000D03*
X75070000Y-91100000D03*
D12*
X84550000Y-78350000D03*
D13*
X84550000Y-80890000D03*
X84550000Y-83430000D03*
X84550000Y-85970000D03*
D12*
X70950000Y-78250000D03*
D13*
X70950000Y-80790000D03*
X70950000Y-83330000D03*
X70950000Y-85870000D03*
D14*
X70850000Y-73450000D03*
D15*
X70850000Y-71450000D03*
D16*
X85700000Y-70900000D03*
X85700000Y-72950000D03*
D11*
X70375000Y-89000000D03*
X72425000Y-89000000D03*
D17*
X75225000Y-77940000D03*
X75225000Y-79210000D03*
X75225000Y-80480000D03*
X75225000Y-81750000D03*
X75225000Y-83020000D03*
X75225000Y-84290000D03*
X75225000Y-85560000D03*
X80175000Y-85560000D03*
X80175000Y-84290000D03*
X80175000Y-83020000D03*
X80175000Y-81750000D03*
X80175000Y-80480000D03*
X80175000Y-79210000D03*
X80175000Y-77940000D03*
D18*
X76937500Y-71750000D03*
X76937500Y-69850000D03*
X75062500Y-70800000D03*
D19*
X78200000Y-75500000D03*
X82600000Y-65500000D03*
X70800000Y-90900000D03*
X79750000Y-70450000D03*
X83600000Y-91900000D03*
X82000000Y-80800000D03*
X73100000Y-83900000D03*
X73500000Y-77700000D03*
X77500000Y-80100000D03*
X77400000Y-78600000D03*
X78600000Y-83000000D03*
X77500000Y-83900000D03*
D20*
X80175000Y-80480000D02*
X81680000Y-80480000D01*
X70375000Y-89000000D02*
X70375000Y-90475000D01*
X79750000Y-70450000D02*
X81475000Y-72175000D01*
X81680000Y-80480000D02*
X82000000Y-80800000D01*
X81475000Y-72175000D02*
X81475000Y-73250000D01*
X77000000Y-69850000D02*
X79150000Y-69850000D01*
X82800000Y-91100000D02*
X83600000Y-91900000D01*
X70375000Y-90475000D02*
X70800000Y-90900000D01*
X81475000Y-73250000D02*
X81475000Y-75500000D01*
X80150000Y-91100000D02*
X82800000Y-91100000D01*
X79150000Y-69850000D02*
X79750000Y-70450000D01*
X75175000Y-73125000D02*
X75175000Y-75500000D01*
X75000000Y-71450000D02*
X75000000Y-70800000D01*
X75000000Y-70800000D02*
X75000000Y-72950000D01*
X75000000Y-72950000D02*
X75175000Y-73125000D01*
X73000000Y-73450000D02*
X75000000Y-71450000D01*
X70850000Y-73450000D02*
X73000000Y-73450000D01*
X82500000Y-76900000D02*
X83675000Y-75725000D01*
X80175000Y-79210000D02*
X78810000Y-79210000D01*
X78400000Y-78800000D02*
X78400000Y-77600000D01*
X78810000Y-79210000D02*
X78400000Y-78800000D01*
X79100000Y-76900000D02*
X82500000Y-76900000D01*
X83675000Y-75725000D02*
X83675000Y-75400000D01*
X78400000Y-77600000D02*
X79100000Y-76900000D01*
X73924990Y-87414990D02*
X73924990Y-84615010D01*
X73924990Y-84615010D02*
X74250000Y-84290000D01*
X74250000Y-84290000D02*
X75225000Y-84290000D01*
X75225000Y-84290000D02*
X73490000Y-84290000D01*
X73490000Y-84290000D02*
X73100000Y-83900000D01*
X75070000Y-88560000D02*
X73924990Y-87414990D01*
X85700000Y-75375000D02*
X85700000Y-72950000D01*
X85725000Y-75400000D02*
X85700000Y-75375000D01*
X73735001Y-89735001D02*
X76434999Y-89735001D01*
X75225000Y-86175000D02*
X75225000Y-85560000D01*
X72425000Y-89000000D02*
X73000000Y-89000000D01*
X77610000Y-88560000D02*
X75225000Y-86175000D01*
X76434999Y-89735001D02*
X76760001Y-89409999D01*
X73000000Y-89000000D02*
X73735001Y-89735001D01*
X76760001Y-89409999D02*
X77610000Y-88560000D01*
X80150000Y-88560000D02*
X80150000Y-85585000D01*
X80150000Y-85585000D02*
X80175000Y-85560000D01*
X73740000Y-77940000D02*
X73500000Y-77700000D01*
X75225000Y-77940000D02*
X73740000Y-77940000D01*
X83000000Y-78800000D02*
X83000000Y-82900000D01*
X83000000Y-82900000D02*
X83530000Y-83430000D01*
X80175000Y-77940000D02*
X82140000Y-77940000D01*
X83530000Y-83430000D02*
X84550000Y-83430000D01*
X82140000Y-77940000D02*
X83000000Y-78800000D01*
X75225000Y-80480000D02*
X77120000Y-80480000D01*
X77120000Y-80480000D02*
X77500000Y-80100000D01*
X76790000Y-79210000D02*
X77400000Y-78600000D01*
X75225000Y-79210000D02*
X76790000Y-79210000D01*
X78600000Y-83000000D02*
X78620000Y-83020000D01*
X78620000Y-83020000D02*
X80175000Y-83020000D01*
X77890000Y-84290000D02*
X77500000Y-83900000D01*
X80175000Y-84290000D02*
X77890000Y-84290000D01*
X71490000Y-80790000D02*
X70950000Y-80790000D01*
X75225000Y-83020000D02*
X73720000Y-83020000D01*
X73720000Y-83020000D02*
X71490000Y-80790000D01*
X73200000Y-79100000D02*
X73200000Y-81000000D01*
X72350000Y-78250000D02*
X73200000Y-79100000D01*
X73950000Y-81750000D02*
X75225000Y-81750000D01*
X70950000Y-78250000D02*
X72350000Y-78250000D01*
X73200000Y-81000000D02*
X73950000Y-81750000D01*
G04 #@! TA.AperFunction,Conductor*
G36*
X84970784Y-60682427D02*
G01*
X85339726Y-60760819D01*
X85364796Y-60768965D01*
X85709389Y-60922420D01*
X85732180Y-60935578D01*
X86037341Y-61157236D01*
X86056925Y-61174867D01*
X86214776Y-61350169D01*
X86309301Y-61455145D01*
X86324785Y-61476457D01*
X86362584Y-61541925D01*
X86513380Y-61803110D01*
X86524097Y-61827182D01*
X86640647Y-62185972D01*
X86646120Y-62211724D01*
X86686809Y-62598701D01*
X86687500Y-62611877D01*
X86687500Y-69790172D01*
X86667498Y-69858293D01*
X86613842Y-69904786D01*
X86543568Y-69914890D01*
X86495386Y-69897433D01*
X86478760Y-69887185D01*
X86465576Y-69881037D01*
X86311290Y-69829862D01*
X86297914Y-69826995D01*
X86203562Y-69817328D01*
X86197145Y-69817000D01*
X85972115Y-69817000D01*
X85956876Y-69821475D01*
X85955671Y-69822865D01*
X85954000Y-69830548D01*
X85954000Y-71028000D01*
X85933998Y-71096121D01*
X85880342Y-71142614D01*
X85828000Y-71154000D01*
X84510116Y-71154000D01*
X84494877Y-71158475D01*
X84493672Y-71159865D01*
X84492001Y-71167548D01*
X84492001Y-71272095D01*
X84492338Y-71278614D01*
X84502257Y-71374206D01*
X84505149Y-71387600D01*
X84556588Y-71541784D01*
X84562761Y-71554962D01*
X84648063Y-71692807D01*
X84657099Y-71704208D01*
X84771829Y-71818739D01*
X84783240Y-71827751D01*
X84921243Y-71912816D01*
X84934424Y-71918963D01*
X85081092Y-71967611D01*
X85139451Y-72008042D01*
X85166688Y-72073606D01*
X85154154Y-72143488D01*
X85105830Y-72195500D01*
X85083171Y-72206087D01*
X85036816Y-72222366D01*
X85029246Y-72227958D01*
X85029243Y-72227959D01*
X84985731Y-72260098D01*
X84927850Y-72302850D01*
X84922258Y-72310421D01*
X84852959Y-72404243D01*
X84852958Y-72404246D01*
X84847366Y-72411816D01*
X84802481Y-72539631D01*
X84799500Y-72571166D01*
X84799500Y-73328834D01*
X84802481Y-73360369D01*
X84847366Y-73488184D01*
X84852958Y-73495754D01*
X84852959Y-73495757D01*
X84872428Y-73522115D01*
X84927850Y-73597150D01*
X84935421Y-73602742D01*
X85029243Y-73672041D01*
X85029246Y-73672042D01*
X85036816Y-73677634D01*
X85164631Y-73722519D01*
X85172277Y-73723242D01*
X85172278Y-73723242D01*
X85178248Y-73723806D01*
X85196166Y-73725500D01*
X85248500Y-73725500D01*
X85316621Y-73745502D01*
X85363114Y-73799158D01*
X85374500Y-73851500D01*
X85374500Y-74492161D01*
X85354498Y-74560282D01*
X85300842Y-74606775D01*
X85290255Y-74611041D01*
X85186816Y-74647366D01*
X85179246Y-74652958D01*
X85179243Y-74652959D01*
X85130735Y-74688788D01*
X85077850Y-74727850D01*
X85072258Y-74735421D01*
X85002959Y-74829243D01*
X85002958Y-74829246D01*
X84997366Y-74836816D01*
X84952481Y-74964631D01*
X84949500Y-74996166D01*
X84949500Y-76003834D01*
X84952481Y-76035369D01*
X84997366Y-76163184D01*
X85002958Y-76170754D01*
X85002959Y-76170757D01*
X85063323Y-76252482D01*
X85077850Y-76272150D01*
X85085421Y-76277742D01*
X85179243Y-76347041D01*
X85179246Y-76347042D01*
X85186816Y-76352634D01*
X85314631Y-76397519D01*
X85322277Y-76398242D01*
X85322278Y-76398242D01*
X85328248Y-76398806D01*
X85346166Y-76400500D01*
X86103834Y-76400500D01*
X86121752Y-76398806D01*
X86127722Y-76398242D01*
X86127723Y-76398242D01*
X86135369Y-76397519D01*
X86263184Y-76352634D01*
X86270754Y-76347042D01*
X86270757Y-76347041D01*
X86364579Y-76277742D01*
X86372150Y-76272150D01*
X86452634Y-76163184D01*
X86453098Y-76161862D01*
X86499700Y-76114048D01*
X86568874Y-76098067D01*
X86635708Y-76122022D01*
X86678981Y-76178306D01*
X86687500Y-76223851D01*
X86687500Y-93068123D01*
X86686809Y-93081299D01*
X86686498Y-93084253D01*
X86646120Y-93468276D01*
X86640647Y-93494028D01*
X86524097Y-93852818D01*
X86513380Y-93876890D01*
X86408711Y-94058181D01*
X86329082Y-94196102D01*
X86324786Y-94203542D01*
X86309302Y-94224854D01*
X86211195Y-94333807D01*
X86056926Y-94505132D01*
X86037341Y-94522764D01*
X85732180Y-94744422D01*
X85709389Y-94757580D01*
X85364796Y-94911035D01*
X85339726Y-94919181D01*
X84970784Y-94997573D01*
X84944596Y-95000324D01*
X70343399Y-95000324D01*
X70317211Y-94997572D01*
X69948276Y-94919180D01*
X69923206Y-94911035D01*
X69578611Y-94757580D01*
X69555820Y-94744422D01*
X69250659Y-94522764D01*
X69231074Y-94505132D01*
X69076805Y-94333807D01*
X68978698Y-94224854D01*
X68963214Y-94203542D01*
X68958919Y-94196102D01*
X68880851Y-94060886D01*
X68774621Y-93876891D01*
X68763904Y-93852819D01*
X68647353Y-93494028D01*
X68641880Y-93468276D01*
X68601615Y-93085328D01*
X69409317Y-93085328D01*
X69411380Y-93095033D01*
X69411534Y-93097970D01*
X69412223Y-93102322D01*
X69432050Y-93290918D01*
X69432280Y-93295310D01*
X69432742Y-93298230D01*
X69432740Y-93308146D01*
X69434396Y-93313246D01*
X69434957Y-93318579D01*
X69438991Y-93327638D01*
X69439756Y-93330493D01*
X69441328Y-93334589D01*
X69499959Y-93515128D01*
X69501105Y-93519406D01*
X69502150Y-93522126D01*
X69504212Y-93531822D01*
X69506882Y-93536445D01*
X69508531Y-93541522D01*
X69514357Y-93549544D01*
X69515678Y-93552137D01*
X69518088Y-93555848D01*
X69612955Y-93720099D01*
X69614937Y-93723988D01*
X69616558Y-93726486D01*
X69620592Y-93735551D01*
X69624188Y-93739546D01*
X69626875Y-93744199D01*
X69634249Y-93750837D01*
X69636127Y-93753155D01*
X69639205Y-93756233D01*
X69766173Y-93897307D01*
X69768973Y-93900764D01*
X69771014Y-93902803D01*
X69776847Y-93910827D01*
X69781156Y-93913955D01*
X69784717Y-93917912D01*
X69793302Y-93922871D01*
X69795543Y-93924687D01*
X69799275Y-93927109D01*
X69846403Y-93961322D01*
X69952768Y-94038540D01*
X69956158Y-94041285D01*
X69958667Y-94042915D01*
X69966036Y-94049552D01*
X69970955Y-94051743D01*
X69975309Y-94054904D01*
X69984739Y-94057963D01*
X69987419Y-94059328D01*
X69991476Y-94060885D01*
X70162585Y-94137106D01*
X70164746Y-94138068D01*
X70164759Y-94138074D01*
X70168690Y-94140078D01*
X70171424Y-94141128D01*
X70180009Y-94146085D01*
X70185241Y-94147198D01*
X70190127Y-94149374D01*
X70199992Y-94150412D01*
X70202829Y-94151173D01*
X70207181Y-94151863D01*
X70392771Y-94191327D01*
X70397032Y-94192469D01*
X70399932Y-94192928D01*
X70409362Y-94195992D01*
X70414711Y-94195992D01*
X70419945Y-94197105D01*
X70429808Y-94196069D01*
X70432739Y-94196223D01*
X70437145Y-94195992D01*
X70626879Y-94195992D01*
X70631284Y-94196223D01*
X70634212Y-94196069D01*
X70644076Y-94197105D01*
X70649310Y-94195992D01*
X70654658Y-94195992D01*
X70664085Y-94192929D01*
X70666980Y-94192471D01*
X70671241Y-94191329D01*
X70856833Y-94151862D01*
X70861183Y-94151172D01*
X70864020Y-94150411D01*
X70873883Y-94149373D01*
X70878768Y-94147197D01*
X70884002Y-94146084D01*
X70892588Y-94141126D01*
X70895323Y-94140076D01*
X70899260Y-94138069D01*
X71072530Y-94060886D01*
X71076591Y-94059327D01*
X71079260Y-94057969D01*
X71088699Y-94054906D01*
X71093057Y-94051742D01*
X71097974Y-94049552D01*
X71105343Y-94042915D01*
X71107859Y-94041280D01*
X71111233Y-94038548D01*
X71264745Y-93927109D01*
X71268482Y-93924683D01*
X71270717Y-93922872D01*
X71279306Y-93917910D01*
X71282866Y-93913954D01*
X71287171Y-93910829D01*
X71293004Y-93902807D01*
X71295040Y-93900773D01*
X71297843Y-93897312D01*
X71424801Y-93756237D01*
X71427885Y-93753153D01*
X71429763Y-93750834D01*
X71437135Y-93744199D01*
X71439823Y-93739545D01*
X71443420Y-93735548D01*
X71447448Y-93726494D01*
X71449070Y-93723995D01*
X71451054Y-93720100D01*
X71545913Y-93555862D01*
X71548323Y-93552151D01*
X71549650Y-93549547D01*
X71555477Y-93541526D01*
X71557127Y-93536447D01*
X71559798Y-93531822D01*
X71561861Y-93522123D01*
X71562906Y-93519403D01*
X71564051Y-93515129D01*
X71622693Y-93334587D01*
X71624269Y-93330481D01*
X71625033Y-93327631D01*
X71629065Y-93318574D01*
X71629625Y-93313247D01*
X71631280Y-93308151D01*
X71631279Y-93298240D01*
X71631740Y-93295328D01*
X71631970Y-93290931D01*
X71651788Y-93102325D01*
X71652476Y-93097979D01*
X71652631Y-93095032D01*
X71654693Y-93085333D01*
X71654133Y-93080002D01*
X71654693Y-93074673D01*
X71652632Y-93064978D01*
X71652478Y-93062033D01*
X71651791Y-93057694D01*
X71631967Y-92868946D01*
X71631736Y-92864543D01*
X71631278Y-92861651D01*
X71631278Y-92851733D01*
X71629626Y-92846649D01*
X71629067Y-92841329D01*
X71625034Y-92832267D01*
X71624277Y-92829443D01*
X71622696Y-92825323D01*
X71572071Y-92669546D01*
X71564053Y-92644872D01*
X71562912Y-92640613D01*
X71561861Y-92637876D01*
X71559798Y-92628178D01*
X71557123Y-92623547D01*
X71555470Y-92618460D01*
X71549639Y-92610436D01*
X71548307Y-92607822D01*
X71545909Y-92604131D01*
X71477128Y-92485044D01*
X71451054Y-92439900D01*
X71449070Y-92436005D01*
X71447448Y-92433506D01*
X71443420Y-92424452D01*
X71439823Y-92420455D01*
X71437135Y-92415801D01*
X71429763Y-92409166D01*
X71427885Y-92406847D01*
X71424801Y-92403763D01*
X71391207Y-92366433D01*
X71356873Y-92328282D01*
X71297877Y-92262726D01*
X71295087Y-92259280D01*
X71293023Y-92257216D01*
X71287198Y-92249198D01*
X71282879Y-92246060D01*
X71279306Y-92242090D01*
X71270721Y-92237131D01*
X71268458Y-92235297D01*
X71264746Y-92232886D01*
X71111184Y-92121321D01*
X71107767Y-92118555D01*
X71105316Y-92116964D01*
X71097937Y-92110323D01*
X71093057Y-92108152D01*
X71088734Y-92105011D01*
X71079296Y-92101945D01*
X71076700Y-92100622D01*
X71072589Y-92099045D01*
X70899248Y-92021920D01*
X70895366Y-92019942D01*
X70892591Y-92018876D01*
X70884002Y-92013916D01*
X70878750Y-92012799D01*
X70873841Y-92010615D01*
X70863980Y-92009581D01*
X70861107Y-92008812D01*
X70856784Y-92008128D01*
X70671240Y-91968671D01*
X70666979Y-91967529D01*
X70664085Y-91967071D01*
X70654658Y-91964008D01*
X70649310Y-91964008D01*
X70644076Y-91962895D01*
X70634212Y-91963931D01*
X70631284Y-91963777D01*
X70626879Y-91964008D01*
X70437145Y-91964008D01*
X70432739Y-91963777D01*
X70429808Y-91963931D01*
X70419945Y-91962895D01*
X70414711Y-91964008D01*
X70409362Y-91964008D01*
X70399932Y-91967072D01*
X70397032Y-91967531D01*
X70392771Y-91968673D01*
X70207231Y-92008127D01*
X70202908Y-92008811D01*
X70200030Y-92009582D01*
X70190169Y-92010615D01*
X70185263Y-92012798D01*
X70180009Y-92013915D01*
X70171418Y-92018876D01*
X70168642Y-92019942D01*
X70164752Y-92021924D01*
X69991434Y-92099039D01*
X69987306Y-92100623D01*
X69984709Y-92101947D01*
X69975274Y-92105012D01*
X69970952Y-92108152D01*
X69966073Y-92110323D01*
X69958703Y-92116955D01*
X69956260Y-92118541D01*
X69952826Y-92121321D01*
X69826760Y-92212916D01*
X69799282Y-92232880D01*
X69795569Y-92235292D01*
X69793302Y-92237129D01*
X69784717Y-92242088D01*
X69781143Y-92246059D01*
X69776820Y-92249200D01*
X69770991Y-92257222D01*
X69768926Y-92259287D01*
X69766145Y-92262722D01*
X69639210Y-92403762D01*
X69636127Y-92406845D01*
X69634249Y-92409163D01*
X69626875Y-92415801D01*
X69624188Y-92420454D01*
X69620592Y-92424449D01*
X69616558Y-92433514D01*
X69614937Y-92436012D01*
X69612955Y-92439901D01*
X69518100Y-92604132D01*
X69515693Y-92607838D01*
X69514367Y-92610441D01*
X69508538Y-92618464D01*
X69506886Y-92623548D01*
X69504212Y-92628178D01*
X69502149Y-92637872D01*
X69501101Y-92640602D01*
X69499955Y-92644878D01*
X69491940Y-92669546D01*
X69441325Y-92825323D01*
X69439751Y-92829423D01*
X69438991Y-92832261D01*
X69434956Y-92841324D01*
X69434397Y-92846645D01*
X69432742Y-92851738D01*
X69432742Y-92861651D01*
X69432283Y-92864548D01*
X69432052Y-92868960D01*
X69422136Y-92963329D01*
X69412220Y-93057696D01*
X69411532Y-93062038D01*
X69411378Y-93064977D01*
X69409317Y-93074677D01*
X69409877Y-93080001D01*
X69409317Y-93085328D01*
X68601615Y-93085328D01*
X68601502Y-93084253D01*
X68601191Y-93081299D01*
X68600500Y-93068123D01*
X68600500Y-89503834D01*
X69599500Y-89503834D01*
X69602481Y-89535369D01*
X69647366Y-89663184D01*
X69652958Y-89670754D01*
X69652959Y-89670757D01*
X69677214Y-89703595D01*
X69727850Y-89772150D01*
X69735421Y-89777742D01*
X69829243Y-89847041D01*
X69829246Y-89847042D01*
X69836816Y-89852634D01*
X69957384Y-89894974D01*
X69964631Y-89897519D01*
X69963540Y-89900627D01*
X70012703Y-89927549D01*
X70046653Y-89989902D01*
X70049500Y-90016537D01*
X70049500Y-90455290D01*
X70049020Y-90466272D01*
X70048544Y-90471718D01*
X70045736Y-90503807D01*
X70048590Y-90514456D01*
X70055491Y-90540210D01*
X70057870Y-90550942D01*
X70064412Y-90588045D01*
X70069923Y-90597590D01*
X70071115Y-90600866D01*
X70072592Y-90604034D01*
X70075446Y-90614684D01*
X70081770Y-90623715D01*
X70097055Y-90645544D01*
X70102961Y-90654815D01*
X70103717Y-90656124D01*
X70121806Y-90687455D01*
X70130251Y-90694541D01*
X70150682Y-90711685D01*
X70158785Y-90719111D01*
X70167291Y-90727617D01*
X70201317Y-90789929D01*
X70203118Y-90833157D01*
X70194318Y-90900000D01*
X70214956Y-91056762D01*
X70275464Y-91202841D01*
X70371718Y-91328282D01*
X70497159Y-91424536D01*
X70643238Y-91485044D01*
X70800000Y-91505682D01*
X70808188Y-91504604D01*
X70948574Y-91486122D01*
X70956762Y-91485044D01*
X71102841Y-91424536D01*
X71176565Y-91367966D01*
X73738257Y-91367966D01*
X73768565Y-91502446D01*
X73771645Y-91512275D01*
X73851770Y-91709603D01*
X73856413Y-91718794D01*
X73967694Y-91900388D01*
X73973777Y-91908699D01*
X74113213Y-92069667D01*
X74120580Y-92076883D01*
X74284434Y-92212916D01*
X74292881Y-92218831D01*
X74476756Y-92326279D01*
X74486042Y-92330729D01*
X74685001Y-92406703D01*
X74694899Y-92409579D01*
X74798250Y-92430606D01*
X74812299Y-92429410D01*
X74816000Y-92419065D01*
X74816000Y-91372115D01*
X74811525Y-91356876D01*
X74810135Y-91355671D01*
X74802452Y-91354000D01*
X73753225Y-91354000D01*
X73739694Y-91357973D01*
X73738257Y-91367966D01*
X71176565Y-91367966D01*
X71228282Y-91328282D01*
X71324536Y-91202841D01*
X71385044Y-91056762D01*
X71405682Y-90900000D01*
X71385044Y-90743238D01*
X71324536Y-90597159D01*
X71228282Y-90471718D01*
X71102841Y-90375464D01*
X70956762Y-90314956D01*
X70810053Y-90295641D01*
X70745127Y-90266920D01*
X70706035Y-90207655D01*
X70700500Y-90170720D01*
X70700500Y-90016537D01*
X70720502Y-89948416D01*
X70774158Y-89901923D01*
X70785578Y-89898114D01*
X70785369Y-89897519D01*
X70792616Y-89894974D01*
X70913184Y-89852634D01*
X70920754Y-89847042D01*
X70920757Y-89847041D01*
X71014579Y-89777742D01*
X71022150Y-89772150D01*
X71072786Y-89703595D01*
X71097041Y-89670757D01*
X71097042Y-89670754D01*
X71102634Y-89663184D01*
X71147519Y-89535369D01*
X71150500Y-89503834D01*
X71150500Y-88496166D01*
X71147519Y-88464631D01*
X71102634Y-88336816D01*
X71097042Y-88329246D01*
X71097041Y-88329243D01*
X71027742Y-88235421D01*
X71022150Y-88227850D01*
X71005206Y-88215335D01*
X70920757Y-88152959D01*
X70920754Y-88152958D01*
X70913184Y-88147366D01*
X70785369Y-88102481D01*
X70777723Y-88101758D01*
X70777722Y-88101758D01*
X70771752Y-88101194D01*
X70753834Y-88099500D01*
X69996166Y-88099500D01*
X69978248Y-88101194D01*
X69972278Y-88101758D01*
X69972277Y-88101758D01*
X69964631Y-88102481D01*
X69836816Y-88147366D01*
X69829246Y-88152958D01*
X69829243Y-88152959D01*
X69744794Y-88215335D01*
X69727850Y-88227850D01*
X69722258Y-88235421D01*
X69652959Y-88329243D01*
X69652958Y-88329246D01*
X69647366Y-88336816D01*
X69602481Y-88464631D01*
X69599500Y-88496166D01*
X69599500Y-89503834D01*
X68600500Y-89503834D01*
X68600500Y-85855262D01*
X69894520Y-85855262D01*
X69895036Y-85861406D01*
X69911023Y-86051784D01*
X69911759Y-86060553D01*
X69913458Y-86066478D01*
X69963275Y-86240210D01*
X69968544Y-86258586D01*
X69971359Y-86264063D01*
X69971360Y-86264066D01*
X70047226Y-86411685D01*
X70062712Y-86441818D01*
X70190677Y-86603270D01*
X70195370Y-86607264D01*
X70195371Y-86607265D01*
X70339310Y-86729766D01*
X70347564Y-86736791D01*
X70527398Y-86837297D01*
X70589481Y-86857469D01*
X70717471Y-86899056D01*
X70717475Y-86899057D01*
X70723329Y-86900959D01*
X70927894Y-86925351D01*
X70934029Y-86924879D01*
X70934031Y-86924879D01*
X70990039Y-86920569D01*
X71133300Y-86909546D01*
X71139230Y-86907890D01*
X71139232Y-86907890D01*
X71306249Y-86861258D01*
X71331725Y-86854145D01*
X71337214Y-86851372D01*
X71337220Y-86851370D01*
X71510116Y-86764033D01*
X71515610Y-86761258D01*
X71545107Y-86738213D01*
X71673101Y-86638213D01*
X71677951Y-86634424D01*
X71812564Y-86478472D01*
X71833387Y-86441818D01*
X71857515Y-86399344D01*
X71914323Y-86299344D01*
X71979351Y-86103863D01*
X72005171Y-85899474D01*
X72005583Y-85870000D01*
X71985480Y-85664970D01*
X71925935Y-85467749D01*
X71829218Y-85285849D01*
X71755766Y-85195788D01*
X71702906Y-85130975D01*
X71702903Y-85130972D01*
X71699011Y-85126200D01*
X71694262Y-85122271D01*
X71545025Y-84998811D01*
X71545021Y-84998809D01*
X71540275Y-84994882D01*
X71359055Y-84896897D01*
X71162254Y-84835977D01*
X71156129Y-84835333D01*
X71156128Y-84835333D01*
X70963498Y-84815087D01*
X70963496Y-84815087D01*
X70957369Y-84814443D01*
X70870529Y-84822346D01*
X70758342Y-84832555D01*
X70758339Y-84832556D01*
X70752203Y-84833114D01*
X70554572Y-84891280D01*
X70372002Y-84986726D01*
X70367201Y-84990586D01*
X70367198Y-84990588D01*
X70232596Y-85098811D01*
X70211447Y-85115815D01*
X70079024Y-85273630D01*
X70076056Y-85279028D01*
X70076053Y-85279033D01*
X70017331Y-85385849D01*
X69979776Y-85454162D01*
X69917484Y-85650532D01*
X69916798Y-85656649D01*
X69916797Y-85656653D01*
X69905310Y-85759068D01*
X69894520Y-85855262D01*
X68600500Y-85855262D01*
X68600500Y-83315262D01*
X69894520Y-83315262D01*
X69895463Y-83326494D01*
X69911023Y-83511784D01*
X69911759Y-83520553D01*
X69913458Y-83526478D01*
X69965492Y-83707941D01*
X69968544Y-83718586D01*
X69971359Y-83724063D01*
X69971360Y-83724066D01*
X70059897Y-83896341D01*
X70062712Y-83901818D01*
X70190677Y-84063270D01*
X70195370Y-84067264D01*
X70195371Y-84067265D01*
X70339310Y-84189766D01*
X70347564Y-84196791D01*
X70352942Y-84199797D01*
X70352944Y-84199798D01*
X70384563Y-84217469D01*
X70527398Y-84297297D01*
X70609683Y-84324033D01*
X70717471Y-84359056D01*
X70717475Y-84359057D01*
X70723329Y-84360959D01*
X70927894Y-84385351D01*
X70934029Y-84384879D01*
X70934031Y-84384879D01*
X70990039Y-84380569D01*
X71133300Y-84369546D01*
X71139230Y-84367890D01*
X71139232Y-84367890D01*
X71306249Y-84321258D01*
X71331725Y-84314145D01*
X71337214Y-84311372D01*
X71337220Y-84311370D01*
X71510116Y-84224033D01*
X71515610Y-84221258D01*
X71545107Y-84198213D01*
X71673101Y-84098213D01*
X71677951Y-84094424D01*
X71717528Y-84048574D01*
X71808540Y-83943134D01*
X71808540Y-83943133D01*
X71812564Y-83938472D01*
X71833387Y-83901818D01*
X71862216Y-83851068D01*
X71914323Y-83759344D01*
X71979351Y-83563863D01*
X72005171Y-83359474D01*
X72005583Y-83330000D01*
X71985480Y-83124970D01*
X71925935Y-82927749D01*
X71829218Y-82745849D01*
X71744570Y-82642061D01*
X71702906Y-82590975D01*
X71702903Y-82590972D01*
X71699011Y-82586200D01*
X71694262Y-82582271D01*
X71545025Y-82458811D01*
X71545021Y-82458809D01*
X71540275Y-82454882D01*
X71359055Y-82356897D01*
X71162254Y-82295977D01*
X71156129Y-82295333D01*
X71156128Y-82295333D01*
X70963498Y-82275087D01*
X70963496Y-82275087D01*
X70957369Y-82274443D01*
X70870529Y-82282346D01*
X70758342Y-82292555D01*
X70758339Y-82292556D01*
X70752203Y-82293114D01*
X70554572Y-82351280D01*
X70549107Y-82354137D01*
X70469075Y-82395977D01*
X70372002Y-82446726D01*
X70367201Y-82450586D01*
X70367198Y-82450588D01*
X70232596Y-82558811D01*
X70211447Y-82575815D01*
X70079024Y-82733630D01*
X70076056Y-82739028D01*
X70076053Y-82739033D01*
X69998397Y-82880290D01*
X69979776Y-82914162D01*
X69917484Y-83110532D01*
X69916798Y-83116649D01*
X69916797Y-83116653D01*
X69906580Y-83207744D01*
X69894520Y-83315262D01*
X68600500Y-83315262D01*
X68600500Y-80775262D01*
X69894520Y-80775262D01*
X69897136Y-80806410D01*
X69911023Y-80971784D01*
X69911759Y-80980553D01*
X69913458Y-80986478D01*
X69963220Y-81160018D01*
X69968544Y-81178586D01*
X69971359Y-81184063D01*
X69971360Y-81184066D01*
X70047833Y-81332867D01*
X70062712Y-81361818D01*
X70190677Y-81523270D01*
X70195370Y-81527264D01*
X70195371Y-81527265D01*
X70339310Y-81649766D01*
X70347564Y-81656791D01*
X70527398Y-81757297D01*
X70589481Y-81777469D01*
X70717471Y-81819056D01*
X70717475Y-81819057D01*
X70723329Y-81820959D01*
X70927894Y-81845351D01*
X70934029Y-81844879D01*
X70934031Y-81844879D01*
X70990039Y-81840569D01*
X71133300Y-81829546D01*
X71139230Y-81827890D01*
X71139232Y-81827890D01*
X71306249Y-81781258D01*
X71331725Y-81774145D01*
X71337214Y-81771372D01*
X71337220Y-81771370D01*
X71510116Y-81684033D01*
X71515610Y-81681258D01*
X71520462Y-81677467D01*
X71520467Y-81677464D01*
X71655312Y-81572112D01*
X71721306Y-81545934D01*
X71790977Y-81559592D01*
X71821980Y-81582306D01*
X73337323Y-83097650D01*
X73371349Y-83159962D01*
X73366284Y-83230778D01*
X73323737Y-83287613D01*
X73257217Y-83312424D01*
X73231782Y-83311667D01*
X73108188Y-83295396D01*
X73100000Y-83294318D01*
X73091812Y-83295396D01*
X72962471Y-83312424D01*
X72943238Y-83314956D01*
X72797159Y-83375464D01*
X72671718Y-83471718D01*
X72575464Y-83597159D01*
X72514956Y-83743238D01*
X72494318Y-83900000D01*
X72514956Y-84056762D01*
X72575464Y-84202841D01*
X72589596Y-84221258D01*
X72649862Y-84299798D01*
X72671718Y-84328282D01*
X72797159Y-84424536D01*
X72943238Y-84485044D01*
X73100000Y-84505682D01*
X73108188Y-84504604D01*
X73108190Y-84504604D01*
X73163004Y-84497388D01*
X73233152Y-84508328D01*
X73260538Y-84529424D01*
X73262015Y-84527664D01*
X73270460Y-84534751D01*
X73277545Y-84543194D01*
X73287088Y-84548704D01*
X73287092Y-84548707D01*
X73310179Y-84562036D01*
X73319448Y-84567940D01*
X73350316Y-84589554D01*
X73360964Y-84592407D01*
X73364135Y-84593886D01*
X73367411Y-84595078D01*
X73376955Y-84600588D01*
X73414076Y-84607134D01*
X73424783Y-84609508D01*
X73461193Y-84619263D01*
X73472170Y-84618303D01*
X73483157Y-84619264D01*
X73482810Y-84623227D01*
X73532125Y-84633143D01*
X73583112Y-84682548D01*
X73599490Y-84744669D01*
X73599490Y-87395280D01*
X73599010Y-87406262D01*
X73595726Y-87443797D01*
X73598580Y-87454446D01*
X73605481Y-87480200D01*
X73607860Y-87490932D01*
X73614402Y-87528035D01*
X73619913Y-87537580D01*
X73621105Y-87540856D01*
X73622582Y-87544024D01*
X73625436Y-87554674D01*
X73631760Y-87563705D01*
X73647045Y-87585534D01*
X73652951Y-87594805D01*
X73666283Y-87617896D01*
X73671796Y-87627445D01*
X73680241Y-87634531D01*
X73700672Y-87651675D01*
X73708775Y-87659101D01*
X74068257Y-88018583D01*
X74102283Y-88080895D01*
X74099264Y-88145776D01*
X74037484Y-88340532D01*
X74036798Y-88346649D01*
X74036797Y-88346653D01*
X74024377Y-88457384D01*
X74014520Y-88545262D01*
X74031759Y-88750553D01*
X74088544Y-88948586D01*
X74091359Y-88954063D01*
X74091360Y-88954066D01*
X74133538Y-89036136D01*
X74182712Y-89131818D01*
X74186538Y-89136645D01*
X74240903Y-89205237D01*
X74267540Y-89271047D01*
X74254369Y-89340811D01*
X74205572Y-89392380D01*
X74142157Y-89409501D01*
X73922019Y-89409501D01*
X73853898Y-89389499D01*
X73832924Y-89372597D01*
X73244104Y-88783778D01*
X73236675Y-88775671D01*
X73229976Y-88767687D01*
X73201513Y-88702645D01*
X73200500Y-88686698D01*
X73200500Y-88496166D01*
X73197519Y-88464631D01*
X73152634Y-88336816D01*
X73147042Y-88329246D01*
X73147041Y-88329243D01*
X73077742Y-88235421D01*
X73072150Y-88227850D01*
X73055206Y-88215335D01*
X72970757Y-88152959D01*
X72970754Y-88152958D01*
X72963184Y-88147366D01*
X72835369Y-88102481D01*
X72827723Y-88101758D01*
X72827722Y-88101758D01*
X72821752Y-88101194D01*
X72803834Y-88099500D01*
X72046166Y-88099500D01*
X72028248Y-88101194D01*
X72022278Y-88101758D01*
X72022277Y-88101758D01*
X72014631Y-88102481D01*
X71886816Y-88147366D01*
X71879246Y-88152958D01*
X71879243Y-88152959D01*
X71794794Y-88215335D01*
X71777850Y-88227850D01*
X71772258Y-88235421D01*
X71702959Y-88329243D01*
X71702958Y-88329246D01*
X71697366Y-88336816D01*
X71652481Y-88464631D01*
X71649500Y-88496166D01*
X71649500Y-89503834D01*
X71652481Y-89535369D01*
X71697366Y-89663184D01*
X71702958Y-89670754D01*
X71702959Y-89670757D01*
X71727214Y-89703595D01*
X71777850Y-89772150D01*
X71785421Y-89777742D01*
X71879243Y-89847041D01*
X71879246Y-89847042D01*
X71886816Y-89852634D01*
X72014631Y-89897519D01*
X72022277Y-89898242D01*
X72022278Y-89898242D01*
X72028248Y-89898806D01*
X72046166Y-89900500D01*
X72803834Y-89900500D01*
X72821752Y-89898806D01*
X72827722Y-89898242D01*
X72827723Y-89898242D01*
X72835369Y-89897519D01*
X72963184Y-89852634D01*
X72970754Y-89847042D01*
X72970757Y-89847041D01*
X73064579Y-89777742D01*
X73072150Y-89772150D01*
X73087017Y-89752022D01*
X73143579Y-89709113D01*
X73214361Y-89703595D01*
X73277462Y-89737789D01*
X73490896Y-89951223D01*
X73498322Y-89959326D01*
X73522546Y-89988195D01*
X73555185Y-90007039D01*
X73564453Y-90012943D01*
X73595317Y-90034554D01*
X73605963Y-90037407D01*
X73609131Y-90038884D01*
X73612408Y-90040077D01*
X73621956Y-90045589D01*
X73651509Y-90050800D01*
X73659070Y-90052133D01*
X73669804Y-90054513D01*
X73706194Y-90064264D01*
X73717170Y-90063304D01*
X73717173Y-90063304D01*
X73743732Y-90060980D01*
X73754713Y-90060501D01*
X73896664Y-90060501D01*
X73964785Y-90080503D01*
X74011278Y-90134159D01*
X74021382Y-90204433D01*
X74000752Y-90257505D01*
X73888098Y-90422649D01*
X73883000Y-90431623D01*
X73793338Y-90624783D01*
X73789775Y-90634470D01*
X73734389Y-90834183D01*
X73735912Y-90842607D01*
X73748292Y-90846000D01*
X75198000Y-90846000D01*
X75266121Y-90866002D01*
X75312614Y-90919658D01*
X75324000Y-90972000D01*
X75324000Y-92418517D01*
X75328064Y-92432359D01*
X75341478Y-92434393D01*
X75348184Y-92433534D01*
X75358262Y-92431392D01*
X75562255Y-92370191D01*
X75571842Y-92366433D01*
X75763095Y-92272739D01*
X75771945Y-92267464D01*
X75945328Y-92143792D01*
X75953200Y-92137139D01*
X76104052Y-91986812D01*
X76110730Y-91978965D01*
X76235003Y-91806020D01*
X76240313Y-91797183D01*
X76334670Y-91606267D01*
X76338469Y-91596672D01*
X76379593Y-91461319D01*
X76418534Y-91401955D01*
X76483388Y-91373068D01*
X76553564Y-91383830D01*
X76606782Y-91430823D01*
X76621270Y-91463217D01*
X76628544Y-91488586D01*
X76631359Y-91494063D01*
X76631360Y-91494066D01*
X76719897Y-91666341D01*
X76722712Y-91671818D01*
X76850677Y-91833270D01*
X76855370Y-91837264D01*
X76855371Y-91837265D01*
X76938706Y-91908188D01*
X77007564Y-91966791D01*
X77012942Y-91969797D01*
X77012944Y-91969798D01*
X77088093Y-92011797D01*
X77187398Y-92067297D01*
X77282238Y-92098113D01*
X77377471Y-92129056D01*
X77377475Y-92129057D01*
X77383329Y-92130959D01*
X77587894Y-92155351D01*
X77594029Y-92154879D01*
X77594031Y-92154879D01*
X77650039Y-92150569D01*
X77793300Y-92139546D01*
X77799230Y-92137890D01*
X77799232Y-92137890D01*
X77985797Y-92085800D01*
X77985796Y-92085800D01*
X77991725Y-92084145D01*
X77997214Y-92081372D01*
X77997220Y-92081370D01*
X78170116Y-91994033D01*
X78175610Y-91991258D01*
X78191345Y-91978965D01*
X78291919Y-91900388D01*
X78337951Y-91864424D01*
X78395992Y-91797183D01*
X78468540Y-91713134D01*
X78468540Y-91713133D01*
X78472564Y-91708472D01*
X78493387Y-91671818D01*
X78511056Y-91640714D01*
X78574323Y-91529344D01*
X78639351Y-91333863D01*
X78665171Y-91129474D01*
X78665583Y-91100000D01*
X78664138Y-91085262D01*
X79094520Y-91085262D01*
X79095036Y-91091406D01*
X79109806Y-91267291D01*
X79111759Y-91290553D01*
X79113458Y-91296478D01*
X79161037Y-91462405D01*
X79168544Y-91488586D01*
X79171359Y-91494063D01*
X79171360Y-91494066D01*
X79259897Y-91666341D01*
X79262712Y-91671818D01*
X79390677Y-91833270D01*
X79395370Y-91837264D01*
X79395371Y-91837265D01*
X79478706Y-91908188D01*
X79547564Y-91966791D01*
X79552942Y-91969797D01*
X79552944Y-91969798D01*
X79628093Y-92011797D01*
X79727398Y-92067297D01*
X79822238Y-92098113D01*
X79917471Y-92129056D01*
X79917475Y-92129057D01*
X79923329Y-92130959D01*
X80127894Y-92155351D01*
X80134029Y-92154879D01*
X80134031Y-92154879D01*
X80190039Y-92150569D01*
X80333300Y-92139546D01*
X80339230Y-92137890D01*
X80339232Y-92137890D01*
X80525797Y-92085800D01*
X80525796Y-92085800D01*
X80531725Y-92084145D01*
X80537214Y-92081372D01*
X80537220Y-92081370D01*
X80710116Y-91994033D01*
X80715610Y-91991258D01*
X80731345Y-91978965D01*
X80831919Y-91900388D01*
X80877951Y-91864424D01*
X80935992Y-91797183D01*
X81008540Y-91713134D01*
X81008540Y-91713133D01*
X81012564Y-91708472D01*
X81033387Y-91671818D01*
X81111275Y-91534709D01*
X81111276Y-91534707D01*
X81114323Y-91529344D01*
X81120184Y-91511726D01*
X81160666Y-91453403D01*
X81226254Y-91426224D01*
X81239741Y-91425500D01*
X82612984Y-91425500D01*
X82681105Y-91445502D01*
X82702079Y-91462405D01*
X82967291Y-91727617D01*
X83001317Y-91789929D01*
X83003118Y-91833157D01*
X82994318Y-91900000D01*
X83014956Y-92056762D01*
X83075464Y-92202841D01*
X83171718Y-92328282D01*
X83297159Y-92424536D01*
X83443238Y-92485044D01*
X83599578Y-92505626D01*
X83599580Y-92505627D01*
X83600000Y-92505682D01*
X83599991Y-92505747D01*
X83664218Y-92524606D01*
X83710711Y-92578262D01*
X83720815Y-92648536D01*
X83715928Y-92669546D01*
X83665306Y-92825319D01*
X83663722Y-92829444D01*
X83662965Y-92832270D01*
X83658933Y-92841329D01*
X83658374Y-92846649D01*
X83656722Y-92851733D01*
X83656722Y-92861651D01*
X83656264Y-92864543D01*
X83656033Y-92868946D01*
X83636210Y-93057693D01*
X83635524Y-93062024D01*
X83635369Y-93064971D01*
X83633307Y-93074672D01*
X83633867Y-93080001D01*
X83633307Y-93085333D01*
X83635369Y-93095032D01*
X83635524Y-93097976D01*
X83636212Y-93102319D01*
X83636213Y-93102325D01*
X83636213Y-93102327D01*
X83656030Y-93290940D01*
X83656259Y-93295316D01*
X83656721Y-93298233D01*
X83656720Y-93308150D01*
X83658374Y-93313241D01*
X83658934Y-93318574D01*
X83662968Y-93327635D01*
X83663730Y-93330478D01*
X83665310Y-93334596D01*
X83723947Y-93515122D01*
X83725092Y-93519396D01*
X83726139Y-93522123D01*
X83728202Y-93531822D01*
X83730873Y-93536447D01*
X83732523Y-93541526D01*
X83738350Y-93549549D01*
X83739672Y-93552144D01*
X83742080Y-93555852D01*
X83836943Y-93720095D01*
X83838928Y-93723992D01*
X83840552Y-93726494D01*
X83844580Y-93735548D01*
X83848177Y-93739545D01*
X83850865Y-93744199D01*
X83858237Y-93750834D01*
X83860115Y-93753153D01*
X83863199Y-93756237D01*
X83990157Y-93897312D01*
X83992960Y-93900773D01*
X83994996Y-93902807D01*
X84000829Y-93910829D01*
X84005134Y-93913954D01*
X84008694Y-93917910D01*
X84017283Y-93922872D01*
X84019518Y-93924683D01*
X84023255Y-93927109D01*
X84176767Y-94038548D01*
X84180141Y-94041280D01*
X84182657Y-94042915D01*
X84190026Y-94049552D01*
X84194943Y-94051742D01*
X84199301Y-94054906D01*
X84208738Y-94057968D01*
X84211412Y-94059329D01*
X84215466Y-94060885D01*
X84388750Y-94138075D01*
X84392672Y-94140074D01*
X84395410Y-94141125D01*
X84403998Y-94146084D01*
X84409228Y-94147196D01*
X84414117Y-94149374D01*
X84423980Y-94150412D01*
X84426805Y-94151170D01*
X84431167Y-94151862D01*
X84616763Y-94191330D01*
X84621023Y-94192471D01*
X84623913Y-94192929D01*
X84633342Y-94195992D01*
X84638690Y-94195992D01*
X84643924Y-94197105D01*
X84653788Y-94196069D01*
X84656716Y-94196223D01*
X84661121Y-94195992D01*
X84850855Y-94195992D01*
X84855261Y-94196223D01*
X84858192Y-94196069D01*
X84868055Y-94197105D01*
X84873289Y-94195992D01*
X84878638Y-94195992D01*
X84888071Y-94192927D01*
X84890970Y-94192468D01*
X84895220Y-94191329D01*
X85080840Y-94151859D01*
X85085177Y-94151172D01*
X85088012Y-94150412D01*
X85097873Y-94149373D01*
X85102755Y-94147198D01*
X85107991Y-94146085D01*
X85116580Y-94141125D01*
X85119315Y-94140075D01*
X85123252Y-94138068D01*
X85296528Y-94060883D01*
X85300583Y-94059327D01*
X85303257Y-94057965D01*
X85312691Y-94054904D01*
X85317045Y-94051743D01*
X85321964Y-94049552D01*
X85329332Y-94042916D01*
X85331841Y-94041286D01*
X85335228Y-94038543D01*
X85488719Y-93927114D01*
X85492463Y-93924683D01*
X85494701Y-93922870D01*
X85503283Y-93917912D01*
X85506844Y-93913955D01*
X85511153Y-93910827D01*
X85516986Y-93902803D01*
X85519027Y-93900764D01*
X85521827Y-93897307D01*
X85648795Y-93756233D01*
X85651873Y-93753155D01*
X85653751Y-93750837D01*
X85661125Y-93744199D01*
X85663812Y-93739546D01*
X85667408Y-93735551D01*
X85671442Y-93726486D01*
X85673063Y-93723988D01*
X85675045Y-93720099D01*
X85769912Y-93555848D01*
X85772322Y-93552137D01*
X85773643Y-93549544D01*
X85779469Y-93541522D01*
X85781118Y-93536445D01*
X85783788Y-93531822D01*
X85785851Y-93522126D01*
X85786893Y-93519413D01*
X85788040Y-93515131D01*
X85846670Y-93334595D01*
X85848246Y-93330490D01*
X85849011Y-93327635D01*
X85853043Y-93318579D01*
X85853604Y-93313245D01*
X85855260Y-93308145D01*
X85855258Y-93298227D01*
X85855720Y-93295306D01*
X85855950Y-93290918D01*
X85875777Y-93102322D01*
X85876466Y-93097970D01*
X85876620Y-93095033D01*
X85878683Y-93085328D01*
X85878123Y-93080001D01*
X85878683Y-93074677D01*
X85876622Y-93064977D01*
X85876468Y-93062038D01*
X85875780Y-93057696D01*
X85865864Y-92963329D01*
X85855948Y-92868960D01*
X85855717Y-92864548D01*
X85855258Y-92861651D01*
X85855258Y-92851738D01*
X85853603Y-92846645D01*
X85853044Y-92841324D01*
X85849009Y-92832261D01*
X85848249Y-92829423D01*
X85846675Y-92825323D01*
X85788042Y-92644869D01*
X85786897Y-92640600D01*
X85785852Y-92637880D01*
X85783788Y-92628178D01*
X85781113Y-92623547D01*
X85779462Y-92618465D01*
X85773634Y-92610444D01*
X85772306Y-92607837D01*
X85769903Y-92604137D01*
X85675045Y-92439901D01*
X85673063Y-92436012D01*
X85671442Y-92433514D01*
X85667408Y-92424449D01*
X85663812Y-92420454D01*
X85661125Y-92415801D01*
X85653751Y-92409163D01*
X85651873Y-92406845D01*
X85648790Y-92403762D01*
X85521855Y-92262722D01*
X85519074Y-92259287D01*
X85517009Y-92257222D01*
X85511180Y-92249200D01*
X85506857Y-92246059D01*
X85503283Y-92242088D01*
X85494697Y-92237129D01*
X85492430Y-92235292D01*
X85488719Y-92232881D01*
X85469382Y-92218831D01*
X85335174Y-92121321D01*
X85331740Y-92118541D01*
X85329297Y-92116955D01*
X85321927Y-92110323D01*
X85317048Y-92108152D01*
X85312726Y-92105012D01*
X85303292Y-92101947D01*
X85300696Y-92100624D01*
X85296575Y-92099043D01*
X85123254Y-92021927D01*
X85119357Y-92019942D01*
X85116580Y-92018876D01*
X85107991Y-92013915D01*
X85102737Y-92012798D01*
X85097831Y-92010615D01*
X85087970Y-92009582D01*
X85085092Y-92008811D01*
X85080769Y-92008127D01*
X84895229Y-91968673D01*
X84890968Y-91967531D01*
X84888068Y-91967072D01*
X84878638Y-91964008D01*
X84873289Y-91964008D01*
X84868055Y-91962895D01*
X84858192Y-91963931D01*
X84855261Y-91963777D01*
X84850855Y-91964008D01*
X84661121Y-91964008D01*
X84656716Y-91963777D01*
X84653788Y-91963931D01*
X84643924Y-91962895D01*
X84638690Y-91964008D01*
X84633342Y-91964008D01*
X84623915Y-91967071D01*
X84621021Y-91967529D01*
X84616760Y-91968671D01*
X84431216Y-92008128D01*
X84426893Y-92008812D01*
X84424020Y-92009581D01*
X84414159Y-92010615D01*
X84409250Y-92012799D01*
X84403998Y-92013916D01*
X84395410Y-92018875D01*
X84392629Y-92019943D01*
X84388738Y-92021925D01*
X84381822Y-92025002D01*
X84311453Y-92034418D01*
X84247164Y-92004294D01*
X84209366Y-91944196D01*
X84204604Y-91909882D01*
X84204604Y-91908188D01*
X84205682Y-91900000D01*
X84185044Y-91743238D01*
X84124536Y-91597159D01*
X84028282Y-91471718D01*
X83902841Y-91375464D01*
X83756762Y-91314956D01*
X83600000Y-91294318D01*
X83533157Y-91303118D01*
X83463010Y-91292179D01*
X83427617Y-91267291D01*
X83044111Y-90883785D01*
X83036684Y-90875681D01*
X83019541Y-90855251D01*
X83019542Y-90855251D01*
X83012455Y-90846806D01*
X82990591Y-90834183D01*
X82979815Y-90827961D01*
X82970544Y-90822055D01*
X82948715Y-90806770D01*
X82939684Y-90800446D01*
X82929034Y-90797592D01*
X82925866Y-90796115D01*
X82922590Y-90794923D01*
X82913045Y-90789412D01*
X82879301Y-90783462D01*
X82875942Y-90782870D01*
X82865215Y-90780492D01*
X82828807Y-90770736D01*
X82817822Y-90771697D01*
X82817820Y-90771697D01*
X82791272Y-90774020D01*
X82780290Y-90774500D01*
X81241269Y-90774500D01*
X81173148Y-90754498D01*
X81126008Y-90697991D01*
X81125935Y-90697749D01*
X81029218Y-90515849D01*
X80953206Y-90422649D01*
X80902906Y-90360975D01*
X80902903Y-90360972D01*
X80899011Y-90356200D01*
X80881786Y-90341950D01*
X80745025Y-90228811D01*
X80745021Y-90228809D01*
X80740275Y-90224882D01*
X80559055Y-90126897D01*
X80362254Y-90065977D01*
X80356129Y-90065333D01*
X80356128Y-90065333D01*
X80163498Y-90045087D01*
X80163496Y-90045087D01*
X80157369Y-90044443D01*
X80072890Y-90052131D01*
X79958342Y-90062555D01*
X79958339Y-90062556D01*
X79952203Y-90063114D01*
X79754572Y-90121280D01*
X79572002Y-90216726D01*
X79567201Y-90220586D01*
X79567198Y-90220588D01*
X79451169Y-90313878D01*
X79411447Y-90345815D01*
X79279024Y-90503630D01*
X79276056Y-90509028D01*
X79276053Y-90509033D01*
X79195190Y-90656124D01*
X79179776Y-90684162D01*
X79117484Y-90880532D01*
X79116798Y-90886649D01*
X79116797Y-90886653D01*
X79114382Y-90908188D01*
X79094520Y-91085262D01*
X78664138Y-91085262D01*
X78645480Y-90894970D01*
X78585935Y-90697749D01*
X78489218Y-90515849D01*
X78413206Y-90422649D01*
X78362906Y-90360975D01*
X78362903Y-90360972D01*
X78359011Y-90356200D01*
X78341786Y-90341950D01*
X78205025Y-90228811D01*
X78205021Y-90228809D01*
X78200275Y-90224882D01*
X78019055Y-90126897D01*
X77822254Y-90065977D01*
X77816129Y-90065333D01*
X77816128Y-90065333D01*
X77623498Y-90045087D01*
X77623496Y-90045087D01*
X77617369Y-90044443D01*
X77532890Y-90052131D01*
X77418342Y-90062555D01*
X77418339Y-90062556D01*
X77412203Y-90063114D01*
X77214572Y-90121280D01*
X77032002Y-90216726D01*
X77027201Y-90220586D01*
X77027198Y-90220588D01*
X76911169Y-90313878D01*
X76871447Y-90345815D01*
X76739024Y-90503630D01*
X76736056Y-90509028D01*
X76736053Y-90509033D01*
X76655190Y-90656124D01*
X76639776Y-90684162D01*
X76637914Y-90690032D01*
X76621068Y-90743138D01*
X76581405Y-90802022D01*
X76516202Y-90830114D01*
X76446163Y-90818497D01*
X76393523Y-90770857D01*
X76378762Y-90735735D01*
X76361214Y-90665875D01*
X76357894Y-90656124D01*
X76272972Y-90460814D01*
X76268105Y-90451739D01*
X76152427Y-90272926D01*
X76145075Y-90263380D01*
X76119359Y-90197205D01*
X76133501Y-90127631D01*
X76183013Y-90076748D01*
X76244903Y-90060501D01*
X76415289Y-90060501D01*
X76426271Y-90060981D01*
X76452819Y-90063304D01*
X76452821Y-90063304D01*
X76463806Y-90064265D01*
X76500214Y-90054509D01*
X76510941Y-90052131D01*
X76514300Y-90051539D01*
X76548044Y-90045589D01*
X76557589Y-90040078D01*
X76560865Y-90038886D01*
X76564033Y-90037409D01*
X76574683Y-90034555D01*
X76605546Y-90012944D01*
X76614814Y-90007040D01*
X76637905Y-89993708D01*
X76647454Y-89988195D01*
X76671678Y-89959326D01*
X76679105Y-89951221D01*
X77010299Y-89620028D01*
X77010308Y-89620018D01*
X77069122Y-89561204D01*
X77131434Y-89527178D01*
X77197151Y-89530466D01*
X77383329Y-89590959D01*
X77587894Y-89615351D01*
X77594029Y-89614879D01*
X77594031Y-89614879D01*
X77666625Y-89609293D01*
X77793300Y-89599546D01*
X77799230Y-89597890D01*
X77799232Y-89597890D01*
X77985797Y-89545800D01*
X77985796Y-89545800D01*
X77991725Y-89544145D01*
X77997214Y-89541372D01*
X77997220Y-89541370D01*
X78170116Y-89454033D01*
X78175610Y-89451258D01*
X78337951Y-89324424D01*
X78384025Y-89271047D01*
X78468540Y-89173134D01*
X78468540Y-89173133D01*
X78472564Y-89168472D01*
X78493387Y-89131818D01*
X78547741Y-89036136D01*
X78574323Y-88989344D01*
X78639351Y-88793863D01*
X78665171Y-88589474D01*
X78665583Y-88560000D01*
X78645480Y-88354970D01*
X78585935Y-88157749D01*
X78489218Y-87975849D01*
X78415859Y-87885902D01*
X78362906Y-87820975D01*
X78362903Y-87820972D01*
X78359011Y-87816200D01*
X78354262Y-87812271D01*
X78205025Y-87688811D01*
X78205021Y-87688809D01*
X78200275Y-87684882D01*
X78019055Y-87586897D01*
X77822254Y-87525977D01*
X77816129Y-87525333D01*
X77816128Y-87525333D01*
X77623498Y-87505087D01*
X77623496Y-87505087D01*
X77617369Y-87504443D01*
X77530529Y-87512346D01*
X77418342Y-87522555D01*
X77418339Y-87522556D01*
X77412203Y-87523114D01*
X77214572Y-87581280D01*
X77209113Y-87584134D01*
X77204776Y-87585886D01*
X77134123Y-87592858D01*
X77068482Y-87558155D01*
X76434949Y-86924622D01*
X75785921Y-86275595D01*
X75751896Y-86213283D01*
X75756960Y-86142468D01*
X75799507Y-86085632D01*
X75866027Y-86060821D01*
X75875016Y-86060500D01*
X76083218Y-86060500D01*
X76087768Y-86059830D01*
X76087771Y-86059830D01*
X76142426Y-86051784D01*
X76142427Y-86051784D01*
X76152112Y-86050358D01*
X76246804Y-86003867D01*
X76247507Y-86003522D01*
X76247509Y-86003521D01*
X76256855Y-85998932D01*
X76339293Y-85916350D01*
X76345830Y-85902978D01*
X76386240Y-85820306D01*
X76390536Y-85811518D01*
X76400500Y-85743218D01*
X78999500Y-85743218D01*
X79000170Y-85747768D01*
X79000170Y-85747771D01*
X79008216Y-85802426D01*
X79009642Y-85812112D01*
X79033844Y-85861406D01*
X79054255Y-85902978D01*
X79061068Y-85916855D01*
X79143650Y-85999293D01*
X79248482Y-86050536D01*
X79275044Y-86054411D01*
X79312256Y-86059840D01*
X79312260Y-86059840D01*
X79316782Y-86060500D01*
X79698500Y-86060500D01*
X79766621Y-86080502D01*
X79813114Y-86134158D01*
X79824500Y-86186500D01*
X79824500Y-87383500D01*
X79804498Y-87451621D01*
X79750842Y-87498114D01*
X79698500Y-87509500D01*
X79280252Y-87509500D01*
X79274184Y-87510707D01*
X79233939Y-87518712D01*
X79233938Y-87518712D01*
X79221769Y-87521133D01*
X79155448Y-87565448D01*
X79111133Y-87631769D01*
X79099500Y-87690252D01*
X79099500Y-89429748D01*
X79100707Y-89435816D01*
X79104331Y-89454033D01*
X79111133Y-89488231D01*
X79155448Y-89554552D01*
X79221769Y-89598867D01*
X79233938Y-89601288D01*
X79233939Y-89601288D01*
X79274184Y-89609293D01*
X79280252Y-89610500D01*
X81019748Y-89610500D01*
X81025816Y-89609293D01*
X81066061Y-89601288D01*
X81066062Y-89601288D01*
X81078231Y-89598867D01*
X81144552Y-89554552D01*
X81188867Y-89488231D01*
X81195670Y-89454033D01*
X81199293Y-89435816D01*
X81200500Y-89429748D01*
X81200500Y-87690252D01*
X81188867Y-87631769D01*
X81144552Y-87565448D01*
X81078231Y-87521133D01*
X81066062Y-87518712D01*
X81066061Y-87518712D01*
X81025816Y-87510707D01*
X81019748Y-87509500D01*
X80601500Y-87509500D01*
X80533379Y-87489498D01*
X80486886Y-87435842D01*
X80475500Y-87383500D01*
X80475500Y-86186500D01*
X80495502Y-86118379D01*
X80549158Y-86071886D01*
X80601500Y-86060500D01*
X81033218Y-86060500D01*
X81037768Y-86059830D01*
X81037771Y-86059830D01*
X81092426Y-86051784D01*
X81092427Y-86051784D01*
X81102112Y-86050358D01*
X81196804Y-86003867D01*
X81197507Y-86003522D01*
X81197509Y-86003521D01*
X81206855Y-85998932D01*
X81250449Y-85955262D01*
X83494520Y-85955262D01*
X83495036Y-85961406D01*
X83509543Y-86134158D01*
X83511759Y-86160553D01*
X83513458Y-86166478D01*
X83551557Y-86299344D01*
X83568544Y-86358586D01*
X83571359Y-86364063D01*
X83571360Y-86364066D01*
X83659897Y-86536341D01*
X83662712Y-86541818D01*
X83790677Y-86703270D01*
X83947564Y-86836791D01*
X83952942Y-86839797D01*
X83952944Y-86839798D01*
X83984563Y-86857469D01*
X84127398Y-86937297D01*
X84222238Y-86968113D01*
X84317471Y-86999056D01*
X84317475Y-86999057D01*
X84323329Y-87000959D01*
X84527894Y-87025351D01*
X84534029Y-87024879D01*
X84534031Y-87024879D01*
X84590039Y-87020569D01*
X84733300Y-87009546D01*
X84739230Y-87007890D01*
X84739232Y-87007890D01*
X84925797Y-86955800D01*
X84925796Y-86955800D01*
X84931725Y-86954145D01*
X84937214Y-86951372D01*
X84937220Y-86951370D01*
X85110116Y-86864033D01*
X85115610Y-86861258D01*
X85124715Y-86854145D01*
X85243605Y-86761258D01*
X85277951Y-86734424D01*
X85360998Y-86638213D01*
X85408540Y-86583134D01*
X85408540Y-86583133D01*
X85412564Y-86578472D01*
X85433387Y-86541818D01*
X85451056Y-86510714D01*
X85514323Y-86399344D01*
X85579351Y-86203863D01*
X85605171Y-85999474D01*
X85605583Y-85970000D01*
X85585480Y-85764970D01*
X85525935Y-85567749D01*
X85429218Y-85385849D01*
X85347660Y-85285849D01*
X85302906Y-85230975D01*
X85302903Y-85230972D01*
X85299011Y-85226200D01*
X85286458Y-85215815D01*
X85145025Y-85098811D01*
X85145021Y-85098809D01*
X85140275Y-85094882D01*
X84959055Y-84996897D01*
X84762254Y-84935977D01*
X84756129Y-84935333D01*
X84756128Y-84935333D01*
X84563498Y-84915087D01*
X84563496Y-84915087D01*
X84557369Y-84914443D01*
X84470529Y-84922346D01*
X84358342Y-84932555D01*
X84358339Y-84932556D01*
X84352203Y-84933114D01*
X84154572Y-84991280D01*
X83972002Y-85086726D01*
X83967201Y-85090586D01*
X83967198Y-85090588D01*
X83835745Y-85196279D01*
X83811447Y-85215815D01*
X83679024Y-85373630D01*
X83676056Y-85379028D01*
X83676053Y-85379033D01*
X83624038Y-85473649D01*
X83579776Y-85554162D01*
X83517484Y-85750532D01*
X83516798Y-85756649D01*
X83516797Y-85756653D01*
X83498885Y-85916350D01*
X83494520Y-85955262D01*
X81250449Y-85955262D01*
X81289293Y-85916350D01*
X81295830Y-85902978D01*
X81336240Y-85820306D01*
X81340536Y-85811518D01*
X81350500Y-85743218D01*
X81350500Y-85376782D01*
X81341871Y-85318162D01*
X81341784Y-85317574D01*
X81341784Y-85317573D01*
X81340358Y-85307888D01*
X81302596Y-85230975D01*
X81293522Y-85212493D01*
X81293521Y-85212491D01*
X81288932Y-85203145D01*
X81206350Y-85120707D01*
X81101518Y-85069464D01*
X81071027Y-85065016D01*
X81037744Y-85060160D01*
X81037740Y-85060160D01*
X81033218Y-85059500D01*
X79316782Y-85059500D01*
X79312232Y-85060170D01*
X79312229Y-85060170D01*
X79257574Y-85068216D01*
X79257573Y-85068216D01*
X79247888Y-85069642D01*
X79218911Y-85083869D01*
X79152493Y-85116478D01*
X79152491Y-85116479D01*
X79143145Y-85121068D01*
X79060707Y-85203650D01*
X79056134Y-85213006D01*
X79056133Y-85213007D01*
X79051605Y-85222271D01*
X79009464Y-85308482D01*
X78999500Y-85376782D01*
X78999500Y-85743218D01*
X76400500Y-85743218D01*
X76400500Y-85376782D01*
X76391871Y-85318162D01*
X76391784Y-85317574D01*
X76391784Y-85317573D01*
X76390358Y-85307888D01*
X76352596Y-85230975D01*
X76343522Y-85212493D01*
X76343521Y-85212491D01*
X76338932Y-85203145D01*
X76256350Y-85120707D01*
X76151518Y-85069464D01*
X76121027Y-85065016D01*
X76087744Y-85060160D01*
X76087740Y-85060160D01*
X76083218Y-85059500D01*
X74376490Y-85059500D01*
X74308369Y-85039498D01*
X74261876Y-84985842D01*
X74250490Y-84933500D01*
X74250490Y-84916500D01*
X74270492Y-84848379D01*
X74324148Y-84801886D01*
X74376490Y-84790500D01*
X76083218Y-84790500D01*
X76087768Y-84789830D01*
X76087771Y-84789830D01*
X76142426Y-84781784D01*
X76142427Y-84781784D01*
X76152112Y-84780358D01*
X76202008Y-84755860D01*
X76247507Y-84733522D01*
X76247509Y-84733521D01*
X76256855Y-84728932D01*
X76339293Y-84646350D01*
X76347665Y-84629224D01*
X76379162Y-84564786D01*
X76390536Y-84541518D01*
X76398231Y-84488772D01*
X76399840Y-84477744D01*
X76399840Y-84477740D01*
X76400500Y-84473218D01*
X76400500Y-84106782D01*
X76393137Y-84056762D01*
X76391784Y-84047574D01*
X76391784Y-84047573D01*
X76390358Y-84037888D01*
X76365860Y-83987992D01*
X76343522Y-83942493D01*
X76343521Y-83942491D01*
X76338932Y-83933145D01*
X76305729Y-83900000D01*
X76894318Y-83900000D01*
X76914956Y-84056762D01*
X76975464Y-84202841D01*
X76989596Y-84221258D01*
X77049862Y-84299798D01*
X77071718Y-84328282D01*
X77197159Y-84424536D01*
X77343238Y-84485044D01*
X77500000Y-84505682D01*
X77508188Y-84504604D01*
X77508190Y-84504604D01*
X77563004Y-84497388D01*
X77633152Y-84508328D01*
X77660538Y-84529424D01*
X77662015Y-84527664D01*
X77670460Y-84534751D01*
X77677545Y-84543194D01*
X77687088Y-84548704D01*
X77687092Y-84548707D01*
X77710179Y-84562036D01*
X77719448Y-84567940D01*
X77750316Y-84589554D01*
X77760964Y-84592407D01*
X77764135Y-84593886D01*
X77767411Y-84595078D01*
X77776955Y-84600588D01*
X77814076Y-84607134D01*
X77824783Y-84609508D01*
X77861193Y-84619263D01*
X77872168Y-84618303D01*
X77872170Y-84618303D01*
X77898731Y-84615979D01*
X77909712Y-84615500D01*
X78977532Y-84615500D01*
X79045653Y-84635502D01*
X79066548Y-84652325D01*
X79143650Y-84729293D01*
X79248482Y-84780536D01*
X79278973Y-84784984D01*
X79312256Y-84789840D01*
X79312260Y-84789840D01*
X79316782Y-84790500D01*
X81033218Y-84790500D01*
X81037768Y-84789830D01*
X81037771Y-84789830D01*
X81092426Y-84781784D01*
X81092427Y-84781784D01*
X81102112Y-84780358D01*
X81152008Y-84755860D01*
X81197507Y-84733522D01*
X81197509Y-84733521D01*
X81206855Y-84728932D01*
X81289293Y-84646350D01*
X81297665Y-84629224D01*
X81329162Y-84564786D01*
X81340536Y-84541518D01*
X81348231Y-84488772D01*
X81349840Y-84477744D01*
X81349840Y-84477740D01*
X81350500Y-84473218D01*
X81350500Y-84106782D01*
X81343137Y-84056762D01*
X81341784Y-84047574D01*
X81341784Y-84047573D01*
X81340358Y-84037888D01*
X81315860Y-83987992D01*
X81293522Y-83942493D01*
X81293521Y-83942491D01*
X81288932Y-83933145D01*
X81246555Y-83890842D01*
X81213721Y-83858065D01*
X81213720Y-83858065D01*
X81206350Y-83850707D01*
X81101518Y-83799464D01*
X81058704Y-83793218D01*
X81037744Y-83790160D01*
X81037740Y-83790160D01*
X81033218Y-83789500D01*
X79316782Y-83789500D01*
X79312232Y-83790170D01*
X79312229Y-83790170D01*
X79257574Y-83798216D01*
X79257573Y-83798216D01*
X79247888Y-83799642D01*
X79197992Y-83824140D01*
X79152493Y-83846478D01*
X79152491Y-83846479D01*
X79143145Y-83851068D01*
X79129530Y-83864707D01*
X79066828Y-83927518D01*
X79004545Y-83961597D01*
X78977655Y-83964500D01*
X78224673Y-83964500D01*
X78156552Y-83944498D01*
X78110059Y-83890842D01*
X78099751Y-83854947D01*
X78086122Y-83751426D01*
X78085044Y-83743238D01*
X78081884Y-83735608D01*
X78033370Y-83618485D01*
X78025781Y-83547895D01*
X78057561Y-83484408D01*
X78118619Y-83448181D01*
X78189570Y-83450715D01*
X78226483Y-83470305D01*
X78290603Y-83519506D01*
X78290606Y-83519508D01*
X78297159Y-83524536D01*
X78443238Y-83585044D01*
X78600000Y-83605682D01*
X78608188Y-83604604D01*
X78748574Y-83586122D01*
X78756762Y-83585044D01*
X78902841Y-83524536D01*
X78990367Y-83457375D01*
X79056587Y-83431775D01*
X79126136Y-83446040D01*
X79137268Y-83452922D01*
X79143650Y-83459293D01*
X79248482Y-83510536D01*
X79275044Y-83514411D01*
X79312256Y-83519840D01*
X79312260Y-83519840D01*
X79316782Y-83520500D01*
X81033218Y-83520500D01*
X81037768Y-83519830D01*
X81037771Y-83519830D01*
X81092426Y-83511784D01*
X81092427Y-83511784D01*
X81102112Y-83510358D01*
X81154966Y-83484408D01*
X81197507Y-83463522D01*
X81197509Y-83463521D01*
X81206855Y-83458932D01*
X81289293Y-83376350D01*
X81295830Y-83362978D01*
X81329391Y-83294318D01*
X81340536Y-83271518D01*
X81350500Y-83203218D01*
X81350500Y-82836782D01*
X81340358Y-82767888D01*
X81288932Y-82663145D01*
X81282076Y-82656301D01*
X81258823Y-82589667D01*
X81275386Y-82520630D01*
X81320526Y-82474898D01*
X81399678Y-82428089D01*
X81412104Y-82418449D01*
X81518449Y-82312104D01*
X81528089Y-82299678D01*
X81604648Y-82170221D01*
X81610893Y-82155790D01*
X81649939Y-82021395D01*
X81649899Y-82007294D01*
X81642630Y-82004000D01*
X78713122Y-82004000D01*
X78699591Y-82007973D01*
X78698456Y-82015871D01*
X78739107Y-82155790D01*
X78745352Y-82170221D01*
X78769548Y-82211135D01*
X78787007Y-82279952D01*
X78764490Y-82347283D01*
X78709145Y-82391752D01*
X78644648Y-82400196D01*
X78608188Y-82395396D01*
X78600000Y-82394318D01*
X78443238Y-82414956D01*
X78297159Y-82475464D01*
X78171718Y-82571718D01*
X78166695Y-82578264D01*
X78158888Y-82588438D01*
X78075464Y-82697159D01*
X78014956Y-82843238D01*
X77994318Y-83000000D01*
X77995396Y-83008188D01*
X78009994Y-83119068D01*
X78014956Y-83156762D01*
X78018115Y-83164389D01*
X78018116Y-83164392D01*
X78066630Y-83281515D01*
X78074219Y-83352105D01*
X78042439Y-83415592D01*
X77981381Y-83451819D01*
X77910430Y-83449285D01*
X77873517Y-83429695D01*
X77809397Y-83380494D01*
X77809392Y-83380491D01*
X77802841Y-83375464D01*
X77656762Y-83314956D01*
X77637530Y-83312424D01*
X77508188Y-83295396D01*
X77500000Y-83294318D01*
X77491812Y-83295396D01*
X77362471Y-83312424D01*
X77343238Y-83314956D01*
X77197159Y-83375464D01*
X77071718Y-83471718D01*
X76975464Y-83597159D01*
X76914956Y-83743238D01*
X76894318Y-83900000D01*
X76305729Y-83900000D01*
X76296555Y-83890842D01*
X76263721Y-83858065D01*
X76263720Y-83858065D01*
X76256350Y-83850707D01*
X76151518Y-83799464D01*
X76108704Y-83793218D01*
X76087744Y-83790160D01*
X76087740Y-83790160D01*
X76083218Y-83789500D01*
X74366782Y-83789500D01*
X74362232Y-83790170D01*
X74362229Y-83790170D01*
X74307574Y-83798216D01*
X74307573Y-83798216D01*
X74297888Y-83799642D01*
X74247992Y-83824140D01*
X74202493Y-83846478D01*
X74202491Y-83846479D01*
X74193145Y-83851068D01*
X74179530Y-83864707D01*
X74116828Y-83927518D01*
X74054545Y-83961597D01*
X74027655Y-83964500D01*
X73824673Y-83964500D01*
X73756552Y-83944498D01*
X73710059Y-83890842D01*
X73699751Y-83854947D01*
X73686122Y-83751426D01*
X73685044Y-83743238D01*
X73624536Y-83597159D01*
X73588576Y-83550295D01*
X73562976Y-83484075D01*
X73577241Y-83414526D01*
X73626842Y-83363730D01*
X73691245Y-83349854D01*
X73691193Y-83349263D01*
X73702168Y-83348303D01*
X73702169Y-83348303D01*
X73728731Y-83345979D01*
X73739712Y-83345500D01*
X74027532Y-83345500D01*
X74095653Y-83365502D01*
X74116550Y-83382327D01*
X74183625Y-83449285D01*
X74193650Y-83459293D01*
X74203006Y-83463866D01*
X74203007Y-83463867D01*
X74235460Y-83479730D01*
X74298482Y-83510536D01*
X74325044Y-83514411D01*
X74362256Y-83519840D01*
X74362260Y-83519840D01*
X74366782Y-83520500D01*
X76083218Y-83520500D01*
X76087768Y-83519830D01*
X76087771Y-83519830D01*
X76142426Y-83511784D01*
X76142427Y-83511784D01*
X76152112Y-83510358D01*
X76204966Y-83484408D01*
X76247507Y-83463522D01*
X76247509Y-83463521D01*
X76256855Y-83458932D01*
X76339293Y-83376350D01*
X76345830Y-83362978D01*
X76379391Y-83294318D01*
X76390536Y-83271518D01*
X76400500Y-83203218D01*
X76400500Y-82836782D01*
X76390358Y-82767888D01*
X76355632Y-82697159D01*
X76343522Y-82672493D01*
X76343521Y-82672491D01*
X76338932Y-82663145D01*
X76256350Y-82580707D01*
X76237961Y-82571718D01*
X76180987Y-82543869D01*
X76151518Y-82529464D01*
X76121027Y-82525016D01*
X76087744Y-82520160D01*
X76087740Y-82520160D01*
X76083218Y-82519500D01*
X74366782Y-82519500D01*
X74362232Y-82520170D01*
X74362229Y-82520170D01*
X74307574Y-82528216D01*
X74307573Y-82528216D01*
X74297888Y-82529642D01*
X74268911Y-82543869D01*
X74202493Y-82576478D01*
X74202491Y-82576479D01*
X74193145Y-82581068D01*
X74185787Y-82588438D01*
X74185788Y-82588438D01*
X74116828Y-82657518D01*
X74054545Y-82691597D01*
X74027655Y-82694500D01*
X73907017Y-82694500D01*
X73838896Y-82674498D01*
X73817922Y-82657595D01*
X72042458Y-80882132D01*
X72008433Y-80819820D01*
X72006144Y-80797017D01*
X72005681Y-80797036D01*
X72005534Y-80793524D01*
X72005583Y-80790000D01*
X71985480Y-80584970D01*
X71925935Y-80387749D01*
X71829218Y-80205849D01*
X71749567Y-80108188D01*
X71702906Y-80050975D01*
X71702903Y-80050972D01*
X71699011Y-80046200D01*
X71694262Y-80042271D01*
X71545025Y-79918811D01*
X71545021Y-79918809D01*
X71540275Y-79914882D01*
X71359055Y-79816897D01*
X71162254Y-79755977D01*
X71156129Y-79755333D01*
X71156128Y-79755333D01*
X70963498Y-79735087D01*
X70963496Y-79735087D01*
X70957369Y-79734443D01*
X70870529Y-79742346D01*
X70758342Y-79752555D01*
X70758339Y-79752556D01*
X70752203Y-79753114D01*
X70554572Y-79811280D01*
X70372002Y-79906726D01*
X70367201Y-79910586D01*
X70367198Y-79910588D01*
X70232596Y-80018811D01*
X70211447Y-80035815D01*
X70079024Y-80193630D01*
X70076056Y-80199028D01*
X70076053Y-80199033D01*
X70022316Y-80296782D01*
X69979776Y-80374162D01*
X69917484Y-80570532D01*
X69916798Y-80576649D01*
X69916797Y-80576653D01*
X69899360Y-80732112D01*
X69894520Y-80775262D01*
X68600500Y-80775262D01*
X68600500Y-79119748D01*
X69899500Y-79119748D01*
X69911133Y-79178231D01*
X69955448Y-79244552D01*
X70021769Y-79288867D01*
X70033938Y-79291288D01*
X70033939Y-79291288D01*
X70074184Y-79299293D01*
X70080252Y-79300500D01*
X71819748Y-79300500D01*
X71825816Y-79299293D01*
X71866061Y-79291288D01*
X71866062Y-79291288D01*
X71878231Y-79288867D01*
X71944552Y-79244552D01*
X71988867Y-79178231D01*
X72000500Y-79119748D01*
X72000500Y-78701500D01*
X72020502Y-78633379D01*
X72074158Y-78586886D01*
X72126500Y-78575500D01*
X72162984Y-78575500D01*
X72231105Y-78595502D01*
X72252079Y-78612405D01*
X72837595Y-79197921D01*
X72871621Y-79260233D01*
X72874500Y-79287016D01*
X72874500Y-80980290D01*
X72874020Y-80991272D01*
X72870736Y-81028807D01*
X72873590Y-81039456D01*
X72880491Y-81065210D01*
X72882870Y-81075942D01*
X72889412Y-81113045D01*
X72894923Y-81122590D01*
X72896115Y-81125866D01*
X72897592Y-81129034D01*
X72900446Y-81139684D01*
X72922055Y-81170544D01*
X72927961Y-81179815D01*
X72932627Y-81187896D01*
X72946806Y-81212455D01*
X72955251Y-81219541D01*
X72975675Y-81236679D01*
X72983780Y-81244106D01*
X73705901Y-81966228D01*
X73713327Y-81974331D01*
X73737545Y-82003194D01*
X73747088Y-82008704D01*
X73747092Y-82008707D01*
X73770179Y-82022036D01*
X73779448Y-82027940D01*
X73810316Y-82049554D01*
X73820964Y-82052407D01*
X73824135Y-82053886D01*
X73827411Y-82055078D01*
X73836955Y-82060588D01*
X73874076Y-82067134D01*
X73884783Y-82069508D01*
X73921193Y-82079263D01*
X73932168Y-82078303D01*
X73932170Y-82078303D01*
X73958731Y-82075979D01*
X73969712Y-82075500D01*
X74027532Y-82075500D01*
X74095653Y-82095502D01*
X74116548Y-82112325D01*
X74193650Y-82189293D01*
X74298482Y-82240536D01*
X74328973Y-82244984D01*
X74362256Y-82249840D01*
X74362260Y-82249840D01*
X74366782Y-82250500D01*
X76083218Y-82250500D01*
X76087768Y-82249830D01*
X76087771Y-82249830D01*
X76142426Y-82241784D01*
X76142427Y-82241784D01*
X76152112Y-82240358D01*
X76246804Y-82193867D01*
X76247507Y-82193522D01*
X76247509Y-82193521D01*
X76256855Y-82188932D01*
X76339293Y-82106350D01*
X76352534Y-82079263D01*
X76379162Y-82024786D01*
X76390536Y-82001518D01*
X76398799Y-81944879D01*
X76399840Y-81937744D01*
X76399840Y-81937740D01*
X76400500Y-81933218D01*
X76400500Y-81566782D01*
X76390358Y-81497888D01*
X76365860Y-81447992D01*
X76343522Y-81402493D01*
X76343521Y-81402491D01*
X76338932Y-81393145D01*
X76273369Y-81327696D01*
X76263721Y-81318065D01*
X76263720Y-81318065D01*
X76256350Y-81310707D01*
X76151518Y-81259464D01*
X76121027Y-81255016D01*
X76087744Y-81250160D01*
X76087740Y-81250160D01*
X76083218Y-81249500D01*
X74366782Y-81249500D01*
X74362232Y-81250170D01*
X74362229Y-81250170D01*
X74307574Y-81258216D01*
X74307573Y-81258216D01*
X74297888Y-81259642D01*
X74259297Y-81278589D01*
X74202493Y-81306478D01*
X74202491Y-81306479D01*
X74193145Y-81311068D01*
X74185788Y-81318438D01*
X74185785Y-81318440D01*
X74171462Y-81332788D01*
X74109180Y-81366868D01*
X74038360Y-81361865D01*
X73993194Y-81332867D01*
X73562405Y-80902079D01*
X73528380Y-80839766D01*
X73525500Y-80812983D01*
X73525500Y-80663218D01*
X74049500Y-80663218D01*
X74050170Y-80667768D01*
X74050170Y-80667771D01*
X74055751Y-80705682D01*
X74059642Y-80732112D01*
X74082935Y-80779554D01*
X74097522Y-80809264D01*
X74111068Y-80836855D01*
X74193650Y-80919293D01*
X74298482Y-80970536D01*
X74325044Y-80974411D01*
X74362256Y-80979840D01*
X74362260Y-80979840D01*
X74366782Y-80980500D01*
X76083218Y-80980500D01*
X76087768Y-80979830D01*
X76087771Y-80979830D01*
X76142426Y-80971784D01*
X76142427Y-80971784D01*
X76152112Y-80970358D01*
X76246804Y-80923867D01*
X76247507Y-80923522D01*
X76247509Y-80923521D01*
X76256855Y-80918932D01*
X76333171Y-80842482D01*
X76395455Y-80808403D01*
X76422345Y-80805500D01*
X77100290Y-80805500D01*
X77111272Y-80805980D01*
X77137820Y-80808303D01*
X77137822Y-80808303D01*
X77148807Y-80809264D01*
X77185215Y-80799508D01*
X77195942Y-80797130D01*
X77199301Y-80796538D01*
X77233045Y-80790588D01*
X77242590Y-80785077D01*
X77245866Y-80783885D01*
X77249034Y-80782408D01*
X77259684Y-80779554D01*
X77290544Y-80757945D01*
X77299815Y-80752039D01*
X77322906Y-80738707D01*
X77332455Y-80733194D01*
X77338973Y-80725426D01*
X77403516Y-80697180D01*
X77435910Y-80697245D01*
X77491810Y-80704604D01*
X77491812Y-80704604D01*
X77500000Y-80705682D01*
X77508188Y-80704604D01*
X77648574Y-80686122D01*
X77656762Y-80685044D01*
X77802841Y-80624536D01*
X77928282Y-80528282D01*
X78024536Y-80402841D01*
X78085044Y-80256762D01*
X78105682Y-80100000D01*
X78085044Y-79943238D01*
X78024536Y-79797159D01*
X77928282Y-79671718D01*
X77802841Y-79575464D01*
X77656762Y-79514956D01*
X77500000Y-79494318D01*
X77343238Y-79514956D01*
X77335609Y-79518116D01*
X77249260Y-79553883D01*
X77178670Y-79561472D01*
X77115183Y-79529693D01*
X77078956Y-79468635D01*
X77081490Y-79397683D01*
X77111947Y-79348379D01*
X77227617Y-79232709D01*
X77289929Y-79198683D01*
X77333157Y-79196882D01*
X77400000Y-79205682D01*
X77408188Y-79204604D01*
X77548574Y-79186122D01*
X77556762Y-79185044D01*
X77702841Y-79124536D01*
X77828282Y-79028282D01*
X77840427Y-79012455D01*
X77898414Y-78936884D01*
X77955752Y-78895017D01*
X78026623Y-78890795D01*
X78088526Y-78925559D01*
X78101587Y-78941313D01*
X78113193Y-78957888D01*
X78122055Y-78970544D01*
X78127961Y-78979815D01*
X78132119Y-78987016D01*
X78146806Y-79012455D01*
X78160642Y-79024065D01*
X78175682Y-79036685D01*
X78183785Y-79044111D01*
X78565889Y-79426215D01*
X78573316Y-79434319D01*
X78597545Y-79463194D01*
X78607094Y-79468707D01*
X78630185Y-79482039D01*
X78639456Y-79487945D01*
X78670316Y-79509554D01*
X78680966Y-79512408D01*
X78684134Y-79513885D01*
X78687410Y-79515077D01*
X78696955Y-79520588D01*
X78730699Y-79526538D01*
X78734058Y-79527130D01*
X78744785Y-79529508D01*
X78781193Y-79539264D01*
X78792169Y-79538304D01*
X78792172Y-79538304D01*
X78818743Y-79535979D01*
X78829724Y-79535500D01*
X78977532Y-79535500D01*
X79045653Y-79555502D01*
X79066548Y-79572325D01*
X79143650Y-79649293D01*
X79248482Y-79700536D01*
X79278973Y-79704984D01*
X79312256Y-79709840D01*
X79312260Y-79709840D01*
X79316782Y-79710500D01*
X81033218Y-79710500D01*
X81037768Y-79709830D01*
X81037771Y-79709830D01*
X81092426Y-79701784D01*
X81092427Y-79701784D01*
X81102112Y-79700358D01*
X81196804Y-79653867D01*
X81197507Y-79653522D01*
X81197509Y-79653521D01*
X81206855Y-79648932D01*
X81289293Y-79566350D01*
X81340536Y-79461518D01*
X81350500Y-79393218D01*
X81350500Y-79026782D01*
X81341871Y-78968162D01*
X81341784Y-78967574D01*
X81341784Y-78967573D01*
X81340358Y-78957888D01*
X81307417Y-78890795D01*
X81293522Y-78862493D01*
X81293521Y-78862491D01*
X81288932Y-78853145D01*
X81206350Y-78770707D01*
X81101518Y-78719464D01*
X81071027Y-78715016D01*
X81037744Y-78710160D01*
X81037740Y-78710160D01*
X81033218Y-78709500D01*
X79316782Y-78709500D01*
X79312232Y-78710170D01*
X79312229Y-78710170D01*
X79257574Y-78718216D01*
X79257573Y-78718216D01*
X79247888Y-78719642D01*
X79212554Y-78736990D01*
X79152493Y-78766478D01*
X79152491Y-78766479D01*
X79143145Y-78771068D01*
X79135787Y-78778438D01*
X79135788Y-78778438D01*
X79076500Y-78837829D01*
X79014217Y-78871908D01*
X78943397Y-78866905D01*
X78898232Y-78837906D01*
X78762405Y-78702079D01*
X78728379Y-78639767D01*
X78725500Y-78612984D01*
X78725500Y-77787017D01*
X78745502Y-77718896D01*
X78762405Y-77697922D01*
X78784405Y-77675922D01*
X78846717Y-77641896D01*
X78917532Y-77646961D01*
X78974368Y-77689508D01*
X78999179Y-77756028D01*
X78999500Y-77765017D01*
X78999500Y-78123218D01*
X79000170Y-78127768D01*
X79000170Y-78127771D01*
X79008216Y-78182426D01*
X79009642Y-78192112D01*
X79013958Y-78200902D01*
X79053718Y-78281884D01*
X79061068Y-78296855D01*
X79143650Y-78379293D01*
X79248482Y-78430536D01*
X79278973Y-78434984D01*
X79312256Y-78439840D01*
X79312260Y-78439840D01*
X79316782Y-78440500D01*
X81033218Y-78440500D01*
X81037768Y-78439830D01*
X81037771Y-78439830D01*
X81092426Y-78431784D01*
X81092427Y-78431784D01*
X81102112Y-78430358D01*
X81196804Y-78383867D01*
X81197507Y-78383522D01*
X81197509Y-78383521D01*
X81206855Y-78378932D01*
X81236697Y-78349038D01*
X81283172Y-78302482D01*
X81345455Y-78268403D01*
X81372345Y-78265500D01*
X81952984Y-78265500D01*
X82021105Y-78285502D01*
X82042079Y-78302405D01*
X82637595Y-78897921D01*
X82671621Y-78960233D01*
X82674500Y-78987016D01*
X82674500Y-80321411D01*
X82654498Y-80389532D01*
X82600842Y-80436025D01*
X82530568Y-80446129D01*
X82465988Y-80416635D01*
X82448537Y-80398115D01*
X82433305Y-80378264D01*
X82428282Y-80371718D01*
X82302841Y-80275464D01*
X82156762Y-80214956D01*
X82133398Y-80211880D01*
X82078381Y-80204637D01*
X82000000Y-80194318D01*
X81913476Y-80205709D01*
X81843327Y-80194770D01*
X81832895Y-80188719D01*
X81828715Y-80186770D01*
X81819684Y-80180446D01*
X81809034Y-80177592D01*
X81805866Y-80176115D01*
X81802590Y-80174923D01*
X81793045Y-80169412D01*
X81759301Y-80163462D01*
X81755942Y-80162870D01*
X81745215Y-80160492D01*
X81708807Y-80150736D01*
X81697822Y-80151697D01*
X81697820Y-80151697D01*
X81671272Y-80154020D01*
X81660290Y-80154500D01*
X81372468Y-80154500D01*
X81304347Y-80134498D01*
X81283450Y-80117673D01*
X81275637Y-80109873D01*
X81206350Y-80040707D01*
X81101518Y-79989464D01*
X81071027Y-79985016D01*
X81037744Y-79980160D01*
X81037740Y-79980160D01*
X81033218Y-79979500D01*
X79316782Y-79979500D01*
X79312232Y-79980170D01*
X79312229Y-79980170D01*
X79257574Y-79988216D01*
X79257573Y-79988216D01*
X79247888Y-79989642D01*
X79218911Y-80003869D01*
X79152493Y-80036478D01*
X79152491Y-80036479D01*
X79143145Y-80041068D01*
X79060707Y-80123650D01*
X79056134Y-80133006D01*
X79056133Y-80133007D01*
X79051605Y-80142271D01*
X79009464Y-80228482D01*
X79008052Y-80238162D01*
X79001877Y-80280491D01*
X78999500Y-80296782D01*
X78999500Y-80663218D01*
X79000170Y-80667768D01*
X79000170Y-80667771D01*
X79005751Y-80705682D01*
X79009642Y-80732112D01*
X79061068Y-80836855D01*
X79067924Y-80843699D01*
X79091177Y-80910333D01*
X79074614Y-80979370D01*
X79029474Y-81025102D01*
X78950322Y-81071911D01*
X78937896Y-81081551D01*
X78831551Y-81187896D01*
X78821911Y-81200322D01*
X78745352Y-81329779D01*
X78739107Y-81344210D01*
X78700061Y-81478605D01*
X78700101Y-81492706D01*
X78707370Y-81496000D01*
X81636878Y-81496000D01*
X81650408Y-81492027D01*
X81652680Y-81476222D01*
X81682173Y-81411642D01*
X81741900Y-81373258D01*
X81812896Y-81373258D01*
X81825615Y-81377745D01*
X81835605Y-81381883D01*
X81835610Y-81381884D01*
X81843238Y-81385044D01*
X81851426Y-81386122D01*
X81908607Y-81393650D01*
X82000000Y-81405682D01*
X82008188Y-81404604D01*
X82148574Y-81386122D01*
X82156762Y-81385044D01*
X82302841Y-81324536D01*
X82428282Y-81228282D01*
X82448537Y-81201885D01*
X82505875Y-81160018D01*
X82576746Y-81155796D01*
X82638649Y-81190560D01*
X82671930Y-81253272D01*
X82674500Y-81278589D01*
X82674500Y-82880290D01*
X82674020Y-82891272D01*
X82672341Y-82910466D01*
X82670736Y-82928807D01*
X82673590Y-82939456D01*
X82680491Y-82965210D01*
X82682870Y-82975942D01*
X82689412Y-83013045D01*
X82694923Y-83022590D01*
X82696115Y-83025866D01*
X82697592Y-83029034D01*
X82700446Y-83039684D01*
X82706770Y-83048715D01*
X82722055Y-83070544D01*
X82727961Y-83079815D01*
X82741293Y-83102906D01*
X82746806Y-83112455D01*
X82755251Y-83119541D01*
X82775675Y-83136679D01*
X82783780Y-83144106D01*
X83285901Y-83646228D01*
X83293327Y-83654331D01*
X83317545Y-83683194D01*
X83327088Y-83688704D01*
X83327092Y-83688707D01*
X83350179Y-83702036D01*
X83359448Y-83707940D01*
X83390316Y-83729554D01*
X83400964Y-83732407D01*
X83404135Y-83733886D01*
X83407411Y-83735078D01*
X83416955Y-83740588D01*
X83454076Y-83747134D01*
X83464778Y-83749506D01*
X83490012Y-83756267D01*
X83550632Y-83793218D01*
X83569464Y-83820379D01*
X83659892Y-83996333D01*
X83659897Y-83996341D01*
X83662712Y-84001818D01*
X83790677Y-84163270D01*
X83795370Y-84167264D01*
X83795371Y-84167265D01*
X83828208Y-84195211D01*
X83947564Y-84296791D01*
X83952942Y-84299797D01*
X83952944Y-84299798D01*
X83984563Y-84317469D01*
X84127398Y-84397297D01*
X84211231Y-84424536D01*
X84317471Y-84459056D01*
X84317475Y-84459057D01*
X84323329Y-84460959D01*
X84527894Y-84485351D01*
X84534029Y-84484879D01*
X84534031Y-84484879D01*
X84590039Y-84480569D01*
X84733300Y-84469546D01*
X84739230Y-84467890D01*
X84739232Y-84467890D01*
X84863104Y-84433304D01*
X84931725Y-84414145D01*
X84937214Y-84411372D01*
X84937220Y-84411370D01*
X85110116Y-84324033D01*
X85115610Y-84321258D01*
X85124715Y-84314145D01*
X85243605Y-84221258D01*
X85277951Y-84194424D01*
X85360998Y-84098213D01*
X85408540Y-84043134D01*
X85408540Y-84043133D01*
X85412564Y-84038472D01*
X85433387Y-84001818D01*
X85465949Y-83944498D01*
X85514323Y-83859344D01*
X85579351Y-83663863D01*
X85605171Y-83459474D01*
X85605583Y-83430000D01*
X85585480Y-83224970D01*
X85525935Y-83027749D01*
X85429218Y-82845849D01*
X85347660Y-82745849D01*
X85302906Y-82690975D01*
X85302903Y-82690972D01*
X85299011Y-82686200D01*
X85271753Y-82663650D01*
X85145025Y-82558811D01*
X85145021Y-82558809D01*
X85140275Y-82554882D01*
X84959055Y-82456897D01*
X84762254Y-82395977D01*
X84756129Y-82395333D01*
X84756128Y-82395333D01*
X84563498Y-82375087D01*
X84563496Y-82375087D01*
X84557369Y-82374443D01*
X84470529Y-82382346D01*
X84358342Y-82392555D01*
X84358339Y-82392556D01*
X84352203Y-82393114D01*
X84154572Y-82451280D01*
X83972002Y-82546726D01*
X83967201Y-82550586D01*
X83967198Y-82550588D01*
X83835221Y-82656700D01*
X83811447Y-82675815D01*
X83679024Y-82833630D01*
X83676053Y-82839033D01*
X83676051Y-82839037D01*
X83658745Y-82870516D01*
X83608400Y-82920574D01*
X83538983Y-82935467D01*
X83472534Y-82910466D01*
X83459236Y-82898909D01*
X83362405Y-82802078D01*
X83328379Y-82739766D01*
X83325500Y-82712983D01*
X83325500Y-81323609D01*
X83345502Y-81255488D01*
X83399158Y-81208995D01*
X83469432Y-81198891D01*
X83534012Y-81228385D01*
X83567816Y-81276047D01*
X83568544Y-81278586D01*
X83591683Y-81323609D01*
X83627679Y-81393650D01*
X83662712Y-81461818D01*
X83790677Y-81623270D01*
X83947564Y-81756791D01*
X83952942Y-81759797D01*
X83952944Y-81759798D01*
X83984563Y-81777469D01*
X84127398Y-81857297D01*
X84222238Y-81888113D01*
X84317471Y-81919056D01*
X84317475Y-81919057D01*
X84323329Y-81920959D01*
X84527894Y-81945351D01*
X84534029Y-81944879D01*
X84534031Y-81944879D01*
X84590039Y-81940569D01*
X84733300Y-81929546D01*
X84739230Y-81927890D01*
X84739232Y-81927890D01*
X84925797Y-81875800D01*
X84925796Y-81875800D01*
X84931725Y-81874145D01*
X84937214Y-81871372D01*
X84937220Y-81871370D01*
X85110116Y-81784033D01*
X85115610Y-81781258D01*
X85124715Y-81774145D01*
X85248461Y-81677464D01*
X85277951Y-81654424D01*
X85404708Y-81507574D01*
X85408540Y-81503134D01*
X85408540Y-81503133D01*
X85412564Y-81498472D01*
X85433387Y-81461818D01*
X85465276Y-81405682D01*
X85514323Y-81319344D01*
X85579351Y-81123863D01*
X85605171Y-80919474D01*
X85605583Y-80890000D01*
X85585480Y-80684970D01*
X85525935Y-80487749D01*
X85429218Y-80305849D01*
X85354208Y-80213878D01*
X85302906Y-80150975D01*
X85302903Y-80150972D01*
X85299011Y-80146200D01*
X85284866Y-80134498D01*
X85145025Y-80018811D01*
X85145021Y-80018809D01*
X85140275Y-80014882D01*
X84959055Y-79916897D01*
X84762254Y-79855977D01*
X84756129Y-79855333D01*
X84756128Y-79855333D01*
X84563498Y-79835087D01*
X84563496Y-79835087D01*
X84557369Y-79834443D01*
X84470529Y-79842346D01*
X84358342Y-79852555D01*
X84358339Y-79852556D01*
X84352203Y-79853114D01*
X84154572Y-79911280D01*
X83972002Y-80006726D01*
X83967201Y-80010586D01*
X83967198Y-80010588D01*
X83916967Y-80050975D01*
X83811447Y-80135815D01*
X83679024Y-80293630D01*
X83676056Y-80299028D01*
X83676053Y-80299033D01*
X83600742Y-80436025D01*
X83579776Y-80474162D01*
X83577913Y-80480035D01*
X83571602Y-80499930D01*
X83531939Y-80558814D01*
X83466737Y-80586907D01*
X83396697Y-80575290D01*
X83344057Y-80527650D01*
X83325500Y-80461832D01*
X83325500Y-79415372D01*
X83345502Y-79347251D01*
X83399158Y-79300758D01*
X83469432Y-79290654D01*
X83534012Y-79320148D01*
X83540595Y-79326277D01*
X83548557Y-79334239D01*
X83555448Y-79344552D01*
X83621769Y-79388867D01*
X83633938Y-79391288D01*
X83633939Y-79391288D01*
X83666532Y-79397771D01*
X83680252Y-79400500D01*
X85419748Y-79400500D01*
X85433468Y-79397771D01*
X85466061Y-79391288D01*
X85466062Y-79391288D01*
X85478231Y-79388867D01*
X85544552Y-79344552D01*
X85588867Y-79278231D01*
X85594196Y-79251443D01*
X85599293Y-79225816D01*
X85600500Y-79219748D01*
X85600500Y-77480252D01*
X85597407Y-77464700D01*
X85591288Y-77433939D01*
X85591288Y-77433938D01*
X85588867Y-77421769D01*
X85544552Y-77355448D01*
X85478231Y-77311133D01*
X85466062Y-77308712D01*
X85466061Y-77308712D01*
X85425816Y-77300707D01*
X85419748Y-77299500D01*
X83680252Y-77299500D01*
X83674184Y-77300707D01*
X83633939Y-77308712D01*
X83633938Y-77308712D01*
X83621769Y-77311133D01*
X83555448Y-77355448D01*
X83511133Y-77421769D01*
X83508712Y-77433938D01*
X83508712Y-77433939D01*
X83502593Y-77464700D01*
X83499500Y-77480252D01*
X83499500Y-78543921D01*
X83479498Y-78612042D01*
X83425842Y-78658535D01*
X83355568Y-78668639D01*
X83290988Y-78639145D01*
X83264380Y-78606920D01*
X83258706Y-78597092D01*
X83258705Y-78597091D01*
X83253194Y-78587545D01*
X83224317Y-78563315D01*
X83216215Y-78555889D01*
X82384111Y-77723785D01*
X82376684Y-77715681D01*
X82359541Y-77695251D01*
X82359542Y-77695251D01*
X82352455Y-77686806D01*
X82333603Y-77675922D01*
X82319815Y-77667961D01*
X82310544Y-77662055D01*
X82288715Y-77646770D01*
X82279684Y-77640446D01*
X82269034Y-77637592D01*
X82265866Y-77636115D01*
X82262590Y-77634923D01*
X82253045Y-77629412D01*
X82219301Y-77623462D01*
X82215942Y-77622870D01*
X82205215Y-77620492D01*
X82168807Y-77610736D01*
X82157822Y-77611697D01*
X82157820Y-77611697D01*
X82131272Y-77614020D01*
X82120290Y-77614500D01*
X81372468Y-77614500D01*
X81304347Y-77594498D01*
X81283450Y-77577673D01*
X81266292Y-77560544D01*
X81206350Y-77500707D01*
X81132686Y-77464699D01*
X81080271Y-77416814D01*
X81062064Y-77348192D01*
X81083848Y-77280620D01*
X81138706Y-77235552D01*
X81188021Y-77225500D01*
X82480290Y-77225500D01*
X82491272Y-77225980D01*
X82517820Y-77228303D01*
X82517822Y-77228303D01*
X82528807Y-77229264D01*
X82565215Y-77219508D01*
X82575942Y-77217130D01*
X82579301Y-77216538D01*
X82613045Y-77210588D01*
X82622590Y-77205077D01*
X82625866Y-77203885D01*
X82629034Y-77202408D01*
X82639684Y-77199554D01*
X82670544Y-77177945D01*
X82679815Y-77172039D01*
X82702906Y-77158707D01*
X82712455Y-77153194D01*
X82736685Y-77124317D01*
X82744111Y-77116215D01*
X83422921Y-76437405D01*
X83485233Y-76403379D01*
X83512016Y-76400500D01*
X84053834Y-76400500D01*
X84071752Y-76398806D01*
X84077722Y-76398242D01*
X84077723Y-76398242D01*
X84085369Y-76397519D01*
X84213184Y-76352634D01*
X84220754Y-76347042D01*
X84220757Y-76347041D01*
X84314579Y-76277742D01*
X84322150Y-76272150D01*
X84336677Y-76252482D01*
X84397041Y-76170757D01*
X84397042Y-76170754D01*
X84402634Y-76163184D01*
X84447519Y-76035369D01*
X84450500Y-76003834D01*
X84450500Y-74996166D01*
X84447519Y-74964631D01*
X84402634Y-74836816D01*
X84397042Y-74829246D01*
X84397041Y-74829243D01*
X84327742Y-74735421D01*
X84322150Y-74727850D01*
X84269265Y-74688788D01*
X84220757Y-74652959D01*
X84220754Y-74652958D01*
X84213184Y-74647366D01*
X84085369Y-74602481D01*
X84077723Y-74601758D01*
X84077722Y-74601758D01*
X84071752Y-74601194D01*
X84053834Y-74599500D01*
X83296166Y-74599500D01*
X83278248Y-74601194D01*
X83272278Y-74601758D01*
X83272277Y-74601758D01*
X83264631Y-74602481D01*
X83136816Y-74647366D01*
X83129246Y-74652958D01*
X83129243Y-74652959D01*
X83080735Y-74688788D01*
X83027850Y-74727850D01*
X83022258Y-74735421D01*
X82952959Y-74829243D01*
X82952958Y-74829246D01*
X82947366Y-74836816D01*
X82902481Y-74964631D01*
X82899500Y-74996166D01*
X82899500Y-75987984D01*
X82879498Y-76056105D01*
X82862595Y-76077079D01*
X82402079Y-76537595D01*
X82339767Y-76571621D01*
X82312984Y-76574500D01*
X82095470Y-76574500D01*
X82027349Y-76554498D01*
X81980856Y-76500842D01*
X81970752Y-76430568D01*
X82000246Y-76365988D01*
X82020610Y-76347149D01*
X82114579Y-76277742D01*
X82122150Y-76272150D01*
X82136677Y-76252482D01*
X82197041Y-76170757D01*
X82197042Y-76170754D01*
X82202634Y-76163184D01*
X82247519Y-76035369D01*
X82250500Y-76003834D01*
X82250500Y-74996166D01*
X82247519Y-74964631D01*
X82202634Y-74836816D01*
X82197042Y-74829246D01*
X82197041Y-74829243D01*
X82127742Y-74735421D01*
X82122150Y-74727850D01*
X82069265Y-74688788D01*
X82020757Y-74652959D01*
X82020754Y-74652958D01*
X82013184Y-74647366D01*
X81885369Y-74602481D01*
X81886460Y-74599373D01*
X81837297Y-74572451D01*
X81803347Y-74510098D01*
X81800500Y-74483463D01*
X81800500Y-74266537D01*
X81820502Y-74198416D01*
X81874158Y-74151923D01*
X81885578Y-74148114D01*
X81885369Y-74147519D01*
X81941686Y-74127742D01*
X82013184Y-74102634D01*
X82020754Y-74097042D01*
X82020757Y-74097041D01*
X82114579Y-74027742D01*
X82122150Y-74022150D01*
X82135334Y-74004301D01*
X82197041Y-73920757D01*
X82197042Y-73920754D01*
X82202634Y-73913184D01*
X82247519Y-73785369D01*
X82250500Y-73753834D01*
X82250500Y-72746166D01*
X82247519Y-72714631D01*
X82202634Y-72586816D01*
X82197042Y-72579246D01*
X82197041Y-72579243D01*
X82127742Y-72485421D01*
X82122150Y-72477850D01*
X82073807Y-72442143D01*
X82020757Y-72402959D01*
X82020754Y-72402958D01*
X82013184Y-72397366D01*
X81885369Y-72352481D01*
X81886460Y-72349373D01*
X81837297Y-72322451D01*
X81803347Y-72260098D01*
X81800500Y-72233463D01*
X81800500Y-72194698D01*
X81800980Y-72183716D01*
X81803302Y-72157180D01*
X81803302Y-72157178D01*
X81804263Y-72146193D01*
X81794512Y-72109803D01*
X81792132Y-72099069D01*
X81787502Y-72072812D01*
X81785588Y-72061955D01*
X81780076Y-72052407D01*
X81778883Y-72049130D01*
X81777406Y-72045962D01*
X81774553Y-72035316D01*
X81752942Y-72004452D01*
X81747038Y-71995184D01*
X81733704Y-71972089D01*
X81728194Y-71962545D01*
X81699324Y-71938320D01*
X81691221Y-71930894D01*
X81038941Y-71278614D01*
X80388211Y-70627885D01*
X84492000Y-70627885D01*
X84496475Y-70643124D01*
X84497865Y-70644329D01*
X84505548Y-70646000D01*
X85427885Y-70646000D01*
X85443124Y-70641525D01*
X85444329Y-70640135D01*
X85446000Y-70632452D01*
X85446000Y-69835116D01*
X85441525Y-69819877D01*
X85440135Y-69818672D01*
X85432452Y-69817001D01*
X85202905Y-69817001D01*
X85196386Y-69817338D01*
X85100794Y-69827257D01*
X85087400Y-69830149D01*
X84933216Y-69881588D01*
X84920038Y-69887761D01*
X84782193Y-69973063D01*
X84770792Y-69982099D01*
X84656261Y-70096829D01*
X84647249Y-70108240D01*
X84562184Y-70246243D01*
X84556037Y-70259424D01*
X84504862Y-70413710D01*
X84501995Y-70427086D01*
X84492328Y-70521438D01*
X84492000Y-70527855D01*
X84492000Y-70627885D01*
X80388211Y-70627885D01*
X80382709Y-70622383D01*
X80348684Y-70560071D01*
X80346882Y-70516842D01*
X80354604Y-70458188D01*
X80355682Y-70450000D01*
X80335044Y-70293238D01*
X80274536Y-70147159D01*
X80178282Y-70021718D01*
X80052841Y-69925464D01*
X79906762Y-69864956D01*
X79750000Y-69844318D01*
X79683157Y-69853118D01*
X79613010Y-69842179D01*
X79577617Y-69817291D01*
X79394111Y-69633785D01*
X79386684Y-69625681D01*
X79369541Y-69605251D01*
X79369542Y-69605251D01*
X79362455Y-69596806D01*
X79352906Y-69591293D01*
X79329815Y-69577961D01*
X79320544Y-69572055D01*
X79298715Y-69556770D01*
X79289684Y-69550446D01*
X79279034Y-69547592D01*
X79275866Y-69546115D01*
X79272590Y-69544923D01*
X79263045Y-69539412D01*
X79229301Y-69533462D01*
X79225942Y-69532870D01*
X79215215Y-69530492D01*
X79178807Y-69520736D01*
X79167822Y-69521697D01*
X79167820Y-69521697D01*
X79141272Y-69524020D01*
X79130290Y-69524500D01*
X77897468Y-69524500D01*
X77829347Y-69504498D01*
X77808450Y-69487673D01*
X77738721Y-69418065D01*
X77738720Y-69418065D01*
X77731350Y-69410707D01*
X77626518Y-69359464D01*
X77596027Y-69355016D01*
X77562744Y-69350160D01*
X77562740Y-69350160D01*
X77558218Y-69349500D01*
X76316782Y-69349500D01*
X76312232Y-69350170D01*
X76312229Y-69350170D01*
X76257574Y-69358216D01*
X76257573Y-69358216D01*
X76247888Y-69359642D01*
X76197992Y-69384140D01*
X76152493Y-69406478D01*
X76152491Y-69406479D01*
X76143145Y-69411068D01*
X76060707Y-69493650D01*
X76009464Y-69598482D01*
X75999500Y-69666782D01*
X75999500Y-70033218D01*
X76009642Y-70102112D01*
X76013958Y-70110902D01*
X76045674Y-70175500D01*
X76061068Y-70206855D01*
X76068438Y-70214212D01*
X76131954Y-70277617D01*
X76143650Y-70289293D01*
X76153006Y-70293866D01*
X76153007Y-70293867D01*
X76165902Y-70300170D01*
X76248482Y-70340536D01*
X76278231Y-70344876D01*
X76312256Y-70349840D01*
X76312260Y-70349840D01*
X76316782Y-70350500D01*
X77558218Y-70350500D01*
X77562768Y-70349830D01*
X77562771Y-70349830D01*
X77617426Y-70341784D01*
X77617427Y-70341784D01*
X77627112Y-70340358D01*
X77681286Y-70313760D01*
X77722507Y-70293522D01*
X77722509Y-70293521D01*
X77731855Y-70288932D01*
X77808171Y-70212482D01*
X77870455Y-70178403D01*
X77897345Y-70175500D01*
X78962984Y-70175500D01*
X79031105Y-70195502D01*
X79052079Y-70212405D01*
X79117291Y-70277617D01*
X79151317Y-70339929D01*
X79153118Y-70383157D01*
X79144318Y-70450000D01*
X79164956Y-70606762D01*
X79225464Y-70752841D01*
X79230491Y-70759392D01*
X79312364Y-70866091D01*
X79321718Y-70878282D01*
X79447159Y-70974536D01*
X79593238Y-71035044D01*
X79750000Y-71055682D01*
X79816843Y-71046882D01*
X79886990Y-71057821D01*
X79922383Y-71082709D01*
X81017392Y-72177719D01*
X81051418Y-72240031D01*
X81046353Y-72310847D01*
X81003806Y-72367682D01*
X80970045Y-72385697D01*
X80936816Y-72397366D01*
X80929246Y-72402958D01*
X80929243Y-72402959D01*
X80876193Y-72442143D01*
X80827850Y-72477850D01*
X80822258Y-72485421D01*
X80752959Y-72579243D01*
X80752958Y-72579246D01*
X80747366Y-72586816D01*
X80731814Y-72631101D01*
X80731157Y-72632973D01*
X80689714Y-72690619D01*
X80623684Y-72716707D01*
X80554032Y-72702956D01*
X80502871Y-72653731D01*
X80492750Y-72631101D01*
X80443412Y-72483216D01*
X80437239Y-72470038D01*
X80351937Y-72332193D01*
X80342901Y-72320792D01*
X80228171Y-72206261D01*
X80216760Y-72197249D01*
X80078757Y-72112184D01*
X80065576Y-72106037D01*
X79911290Y-72054862D01*
X79897914Y-72051995D01*
X79803562Y-72042328D01*
X79797145Y-72042000D01*
X79697115Y-72042000D01*
X79681876Y-72046475D01*
X79680671Y-72047865D01*
X79679000Y-72055548D01*
X79679000Y-75628000D01*
X79658998Y-75696121D01*
X79605342Y-75742614D01*
X79553000Y-75754000D01*
X78342001Y-75754000D01*
X78342001Y-75753896D01*
X78300746Y-75755369D01*
X78294453Y-75754000D01*
X77497115Y-75754000D01*
X77481876Y-75758475D01*
X77480671Y-75759865D01*
X77479000Y-75767548D01*
X77479000Y-76689884D01*
X77483475Y-76705123D01*
X77484865Y-76706328D01*
X77492548Y-76707999D01*
X77597095Y-76707999D01*
X77603614Y-76707662D01*
X77699206Y-76697743D01*
X77712600Y-76694851D01*
X77866784Y-76643412D01*
X77879962Y-76637239D01*
X78017807Y-76551937D01*
X78029208Y-76542901D01*
X78143739Y-76428171D01*
X78152751Y-76416760D01*
X78217696Y-76311399D01*
X78270468Y-76263906D01*
X78340540Y-76252482D01*
X78405663Y-76280756D01*
X78432100Y-76311212D01*
X78498063Y-76417807D01*
X78507099Y-76429208D01*
X78621829Y-76543739D01*
X78633243Y-76552753D01*
X78716354Y-76603983D01*
X78763848Y-76656755D01*
X78775272Y-76726826D01*
X78746998Y-76791950D01*
X78739335Y-76800338D01*
X78183778Y-77355896D01*
X78175674Y-77363322D01*
X78146806Y-77387545D01*
X78141293Y-77397094D01*
X78127961Y-77420185D01*
X78122055Y-77429456D01*
X78100446Y-77460316D01*
X78097592Y-77470966D01*
X78096115Y-77474134D01*
X78094923Y-77477410D01*
X78089412Y-77486955D01*
X78085690Y-77508065D01*
X78082870Y-77524058D01*
X78080492Y-77534785D01*
X78070736Y-77571193D01*
X78071697Y-77582178D01*
X78071697Y-77582180D01*
X78074020Y-77608728D01*
X78074500Y-77619710D01*
X78074500Y-78121411D01*
X78054498Y-78189532D01*
X78000842Y-78236025D01*
X77930568Y-78246129D01*
X77865988Y-78216635D01*
X77848537Y-78198115D01*
X77833305Y-78178264D01*
X77828282Y-78171718D01*
X77702841Y-78075464D01*
X77556762Y-78014956D01*
X77400000Y-77994318D01*
X77243238Y-78014956D01*
X77097159Y-78075464D01*
X76971718Y-78171718D01*
X76875464Y-78297159D01*
X76814956Y-78443238D01*
X76794318Y-78600000D01*
X76799472Y-78639145D01*
X76803118Y-78666842D01*
X76792179Y-78736990D01*
X76767291Y-78772383D01*
X76692079Y-78847595D01*
X76629767Y-78881621D01*
X76602984Y-78884500D01*
X76422468Y-78884500D01*
X76354347Y-78864498D01*
X76333450Y-78847673D01*
X76263721Y-78778065D01*
X76263720Y-78778065D01*
X76256350Y-78770707D01*
X76151518Y-78719464D01*
X76121027Y-78715016D01*
X76087744Y-78710160D01*
X76087740Y-78710160D01*
X76083218Y-78709500D01*
X74366782Y-78709500D01*
X74362232Y-78710170D01*
X74362229Y-78710170D01*
X74307574Y-78718216D01*
X74307573Y-78718216D01*
X74297888Y-78719642D01*
X74262554Y-78736990D01*
X74202493Y-78766478D01*
X74202491Y-78766479D01*
X74193145Y-78771068D01*
X74185787Y-78778438D01*
X74185788Y-78778438D01*
X74126424Y-78837906D01*
X74110707Y-78853650D01*
X74106134Y-78863006D01*
X74106133Y-78863007D01*
X74105404Y-78864498D01*
X74059464Y-78958482D01*
X74049500Y-79026782D01*
X74049500Y-79393218D01*
X74050170Y-79397768D01*
X74050170Y-79397771D01*
X74058216Y-79452426D01*
X74059642Y-79462112D01*
X74075454Y-79494318D01*
X74097522Y-79539264D01*
X74111068Y-79566855D01*
X74193650Y-79649293D01*
X74298482Y-79700536D01*
X74328973Y-79704984D01*
X74362256Y-79709840D01*
X74362260Y-79709840D01*
X74366782Y-79710500D01*
X76083218Y-79710500D01*
X76087768Y-79709830D01*
X76087771Y-79709830D01*
X76142426Y-79701784D01*
X76142427Y-79701784D01*
X76152112Y-79700358D01*
X76246804Y-79653867D01*
X76247507Y-79653522D01*
X76247509Y-79653521D01*
X76256855Y-79648932D01*
X76333171Y-79572482D01*
X76395455Y-79538403D01*
X76422345Y-79535500D01*
X76770290Y-79535500D01*
X76781272Y-79535980D01*
X76807820Y-79538303D01*
X76807822Y-79538303D01*
X76818807Y-79539264D01*
X76855215Y-79529508D01*
X76865942Y-79527130D01*
X76879807Y-79524685D01*
X76903043Y-79520588D01*
X76903165Y-79521279D01*
X76964790Y-79517363D01*
X77026830Y-79551881D01*
X77060360Y-79614461D01*
X77054734Y-79685234D01*
X77036994Y-79716971D01*
X77023093Y-79735087D01*
X76975464Y-79797159D01*
X76914956Y-79943238D01*
X76913878Y-79951426D01*
X76901566Y-80044946D01*
X76872844Y-80109873D01*
X76813579Y-80148965D01*
X76776644Y-80154500D01*
X76422468Y-80154500D01*
X76354347Y-80134498D01*
X76333450Y-80117673D01*
X76325637Y-80109873D01*
X76256350Y-80040707D01*
X76151518Y-79989464D01*
X76121027Y-79985016D01*
X76087744Y-79980160D01*
X76087740Y-79980160D01*
X76083218Y-79979500D01*
X74366782Y-79979500D01*
X74362232Y-79980170D01*
X74362229Y-79980170D01*
X74307574Y-79988216D01*
X74307573Y-79988216D01*
X74297888Y-79989642D01*
X74268911Y-80003869D01*
X74202493Y-80036478D01*
X74202491Y-80036479D01*
X74193145Y-80041068D01*
X74110707Y-80123650D01*
X74106134Y-80133006D01*
X74106133Y-80133007D01*
X74101605Y-80142271D01*
X74059464Y-80228482D01*
X74058052Y-80238162D01*
X74051877Y-80280491D01*
X74049500Y-80296782D01*
X74049500Y-80663218D01*
X73525500Y-80663218D01*
X73525500Y-79119711D01*
X73525980Y-79108729D01*
X73528303Y-79082176D01*
X73529264Y-79071194D01*
X73526410Y-79060542D01*
X73519511Y-79034792D01*
X73517133Y-79024065D01*
X73512504Y-78997815D01*
X73512502Y-78997810D01*
X73510588Y-78986955D01*
X73505075Y-78977407D01*
X73503883Y-78974131D01*
X73502409Y-78970969D01*
X73499554Y-78960316D01*
X73477945Y-78929456D01*
X73472039Y-78920185D01*
X73458707Y-78897094D01*
X73453194Y-78887545D01*
X73424317Y-78863315D01*
X73416215Y-78855889D01*
X72594111Y-78033785D01*
X72586684Y-78025681D01*
X72569541Y-78005251D01*
X72569542Y-78005251D01*
X72562455Y-77996806D01*
X72552906Y-77991293D01*
X72529815Y-77977961D01*
X72520544Y-77972055D01*
X72498715Y-77956770D01*
X72489684Y-77950446D01*
X72479034Y-77947592D01*
X72475866Y-77946115D01*
X72472590Y-77944923D01*
X72463045Y-77939412D01*
X72429301Y-77933462D01*
X72425942Y-77932870D01*
X72415215Y-77930492D01*
X72378807Y-77920736D01*
X72367822Y-77921697D01*
X72367820Y-77921697D01*
X72341272Y-77924020D01*
X72330290Y-77924500D01*
X72126500Y-77924500D01*
X72058379Y-77904498D01*
X72011886Y-77850842D01*
X72000500Y-77798500D01*
X72000500Y-77700000D01*
X72894318Y-77700000D01*
X72914956Y-77856762D01*
X72975464Y-78002841D01*
X73071718Y-78128282D01*
X73197159Y-78224536D01*
X73343238Y-78285044D01*
X73500000Y-78305682D01*
X73656762Y-78285044D01*
X73673056Y-78278295D01*
X73711466Y-78272383D01*
X73711193Y-78269263D01*
X73748731Y-78265979D01*
X73759712Y-78265500D01*
X74027532Y-78265500D01*
X74095653Y-78285502D01*
X74116548Y-78302325D01*
X74193650Y-78379293D01*
X74298482Y-78430536D01*
X74328973Y-78434984D01*
X74362256Y-78439840D01*
X74362260Y-78439840D01*
X74366782Y-78440500D01*
X76083218Y-78440500D01*
X76087768Y-78439830D01*
X76087771Y-78439830D01*
X76142426Y-78431784D01*
X76142427Y-78431784D01*
X76152112Y-78430358D01*
X76246804Y-78383867D01*
X76247507Y-78383522D01*
X76247509Y-78383521D01*
X76256855Y-78378932D01*
X76330869Y-78304789D01*
X76331935Y-78303721D01*
X76331935Y-78303720D01*
X76339293Y-78296350D01*
X76344820Y-78285044D01*
X76363842Y-78246129D01*
X76390536Y-78191518D01*
X76394984Y-78161027D01*
X76399840Y-78127744D01*
X76399840Y-78127740D01*
X76400500Y-78123218D01*
X76400500Y-77756782D01*
X76395643Y-77723785D01*
X76391784Y-77697574D01*
X76391784Y-77697573D01*
X76390358Y-77687888D01*
X76357268Y-77620491D01*
X76343522Y-77592493D01*
X76343521Y-77592491D01*
X76338932Y-77583145D01*
X76256350Y-77500707D01*
X76240817Y-77493114D01*
X76201987Y-77474134D01*
X76151518Y-77449464D01*
X76121027Y-77445016D01*
X76087744Y-77440160D01*
X76087740Y-77440160D01*
X76083218Y-77439500D01*
X74366782Y-77439500D01*
X74362232Y-77440170D01*
X74362229Y-77440170D01*
X74307574Y-77448216D01*
X74307573Y-77448216D01*
X74297888Y-77449642D01*
X74209345Y-77493114D01*
X74139382Y-77505182D01*
X74074001Y-77477508D01*
X74037407Y-77428230D01*
X74027699Y-77404793D01*
X74027696Y-77404788D01*
X74024536Y-77397159D01*
X73928282Y-77271718D01*
X73907079Y-77255448D01*
X73849326Y-77211133D01*
X73802841Y-77175464D01*
X73656762Y-77114956D01*
X73500000Y-77094318D01*
X73343238Y-77114956D01*
X73197159Y-77175464D01*
X73150674Y-77211133D01*
X73092922Y-77255448D01*
X73071718Y-77271718D01*
X72975464Y-77397159D01*
X72914956Y-77543238D01*
X72894318Y-77700000D01*
X72000500Y-77700000D01*
X72000500Y-77380252D01*
X71995566Y-77355448D01*
X71991288Y-77333939D01*
X71991288Y-77333938D01*
X71988867Y-77321769D01*
X71944552Y-77255448D01*
X71878231Y-77211133D01*
X71866062Y-77208712D01*
X71866061Y-77208712D01*
X71825816Y-77200707D01*
X71819748Y-77199500D01*
X70080252Y-77199500D01*
X70074184Y-77200707D01*
X70033939Y-77208712D01*
X70033938Y-77208712D01*
X70021769Y-77211133D01*
X69955448Y-77255448D01*
X69911133Y-77321769D01*
X69908712Y-77333938D01*
X69908712Y-77333939D01*
X69904434Y-77355448D01*
X69899500Y-77380252D01*
X69899500Y-79119748D01*
X68600500Y-79119748D01*
X68600500Y-71717399D01*
X69499712Y-71717399D01*
X69521194Y-71806537D01*
X69525083Y-71817832D01*
X69607629Y-71999382D01*
X69613576Y-72009724D01*
X69728968Y-72172397D01*
X69736761Y-72181425D01*
X69880831Y-72319342D01*
X69890196Y-72326738D01*
X70057741Y-72434921D01*
X70068341Y-72440415D01*
X70072628Y-72442143D01*
X70128333Y-72486160D01*
X70151397Y-72553306D01*
X70134498Y-72622262D01*
X70083001Y-72671136D01*
X70067278Y-72677889D01*
X70011816Y-72697366D01*
X70004246Y-72702958D01*
X70004243Y-72702959D01*
X69945746Y-72746166D01*
X69902850Y-72777850D01*
X69897258Y-72785421D01*
X69827959Y-72879243D01*
X69827958Y-72879246D01*
X69822366Y-72886816D01*
X69777481Y-73014631D01*
X69776758Y-73022277D01*
X69776758Y-73022278D01*
X69776412Y-73025942D01*
X69774500Y-73046166D01*
X69774500Y-73853834D01*
X69774779Y-73856782D01*
X69776454Y-73874500D01*
X69777481Y-73885369D01*
X69822366Y-74013184D01*
X69827958Y-74020754D01*
X69827959Y-74020757D01*
X69833868Y-74028757D01*
X69902850Y-74122150D01*
X69910421Y-74127742D01*
X70004243Y-74197041D01*
X70004246Y-74197042D01*
X70011816Y-74202634D01*
X70139631Y-74247519D01*
X70147277Y-74248242D01*
X70147278Y-74248242D01*
X70153248Y-74248806D01*
X70171166Y-74250500D01*
X71528834Y-74250500D01*
X71546752Y-74248806D01*
X71552722Y-74248242D01*
X71552723Y-74248242D01*
X71560369Y-74247519D01*
X71688184Y-74202634D01*
X71695754Y-74197042D01*
X71695757Y-74197041D01*
X71789579Y-74127742D01*
X71797150Y-74122150D01*
X71866132Y-74028757D01*
X71872041Y-74020757D01*
X71872042Y-74020754D01*
X71877634Y-74013184D01*
X71910092Y-73920757D01*
X71919976Y-73892612D01*
X71919977Y-73892608D01*
X71922519Y-73885369D01*
X71923242Y-73877722D01*
X71923949Y-73874500D01*
X71958084Y-73812247D01*
X72020456Y-73778332D01*
X72047022Y-73775500D01*
X72980290Y-73775500D01*
X72991272Y-73775980D01*
X73017820Y-73778303D01*
X73017822Y-73778303D01*
X73028807Y-73779264D01*
X73065215Y-73769508D01*
X73075942Y-73767130D01*
X73079301Y-73766538D01*
X73113045Y-73760588D01*
X73122590Y-73755077D01*
X73125866Y-73753885D01*
X73129034Y-73752408D01*
X73139684Y-73749554D01*
X73170544Y-73727945D01*
X73179815Y-73722039D01*
X73202906Y-73708707D01*
X73212455Y-73703194D01*
X73236685Y-73674317D01*
X73244111Y-73666215D01*
X74459405Y-72450921D01*
X74521717Y-72416895D01*
X74592532Y-72421960D01*
X74649368Y-72464507D01*
X74674179Y-72531027D01*
X74674500Y-72540016D01*
X74674500Y-72930290D01*
X74674020Y-72941272D01*
X74670736Y-72978807D01*
X74676244Y-72999362D01*
X74680491Y-73015210D01*
X74682870Y-73025942D01*
X74689412Y-73063045D01*
X74694923Y-73072590D01*
X74696115Y-73075866D01*
X74697592Y-73079034D01*
X74700446Y-73089684D01*
X74706770Y-73098715D01*
X74722055Y-73120544D01*
X74727961Y-73129815D01*
X74736561Y-73144710D01*
X74746806Y-73162455D01*
X74755251Y-73169541D01*
X74775681Y-73186684D01*
X74783785Y-73194111D01*
X74812595Y-73222921D01*
X74846621Y-73285233D01*
X74849500Y-73312016D01*
X74849500Y-74483463D01*
X74829498Y-74551584D01*
X74775842Y-74598077D01*
X74764422Y-74601886D01*
X74764631Y-74602481D01*
X74636816Y-74647366D01*
X74629246Y-74652958D01*
X74629243Y-74652959D01*
X74580735Y-74688788D01*
X74527850Y-74727850D01*
X74522258Y-74735421D01*
X74452959Y-74829243D01*
X74452958Y-74829246D01*
X74447366Y-74836816D01*
X74402481Y-74964631D01*
X74399500Y-74996166D01*
X74399500Y-76003834D01*
X74402481Y-76035369D01*
X74447366Y-76163184D01*
X74452958Y-76170754D01*
X74452959Y-76170757D01*
X74513323Y-76252482D01*
X74527850Y-76272150D01*
X74535421Y-76277742D01*
X74629243Y-76347041D01*
X74629246Y-76347042D01*
X74636816Y-76352634D01*
X74764631Y-76397519D01*
X74772277Y-76398242D01*
X74772278Y-76398242D01*
X74778248Y-76398806D01*
X74796166Y-76400500D01*
X75553834Y-76400500D01*
X75571752Y-76398806D01*
X75577722Y-76398242D01*
X75577723Y-76398242D01*
X75585369Y-76397519D01*
X75713184Y-76352634D01*
X75720754Y-76347042D01*
X75720757Y-76347041D01*
X75814579Y-76277742D01*
X75822150Y-76272150D01*
X75836677Y-76252482D01*
X75897041Y-76170757D01*
X75897042Y-76170754D01*
X75902634Y-76163184D01*
X75918843Y-76117027D01*
X75960286Y-76059381D01*
X76026316Y-76033293D01*
X76095968Y-76047044D01*
X76147129Y-76096269D01*
X76157250Y-76118899D01*
X76206588Y-76266784D01*
X76212761Y-76279962D01*
X76298063Y-76417807D01*
X76307099Y-76429208D01*
X76421829Y-76543739D01*
X76433240Y-76552751D01*
X76571243Y-76637816D01*
X76584424Y-76643963D01*
X76738710Y-76695138D01*
X76752086Y-76698005D01*
X76846438Y-76707672D01*
X76852854Y-76708000D01*
X76952885Y-76708000D01*
X76968124Y-76703525D01*
X76969329Y-76702135D01*
X76971000Y-76694452D01*
X76971000Y-75227885D01*
X77479000Y-75227885D01*
X77483475Y-75243124D01*
X77484865Y-75244329D01*
X77492548Y-75246000D01*
X78307999Y-75246000D01*
X78307999Y-75246104D01*
X78349254Y-75244631D01*
X78355547Y-75246000D01*
X79152885Y-75246000D01*
X79168124Y-75241525D01*
X79169329Y-75240135D01*
X79171000Y-75232452D01*
X79171000Y-73522115D01*
X79166525Y-73506876D01*
X79165135Y-73505671D01*
X79157452Y-73504000D01*
X78360116Y-73504000D01*
X78344877Y-73508475D01*
X78343672Y-73509865D01*
X78342001Y-73517548D01*
X78342001Y-73747095D01*
X78342338Y-73753614D01*
X78352257Y-73849206D01*
X78355149Y-73862600D01*
X78406588Y-74016784D01*
X78412761Y-74029962D01*
X78498063Y-74167807D01*
X78507099Y-74179208D01*
X78613816Y-74285740D01*
X78647895Y-74348023D01*
X78642892Y-74418843D01*
X78613971Y-74463931D01*
X78506261Y-74571829D01*
X78497249Y-74583240D01*
X78432304Y-74688601D01*
X78379532Y-74736094D01*
X78309460Y-74747518D01*
X78244337Y-74719244D01*
X78217900Y-74688788D01*
X78151937Y-74582193D01*
X78142901Y-74570792D01*
X78028171Y-74456261D01*
X78016760Y-74447249D01*
X77878757Y-74362184D01*
X77865576Y-74356037D01*
X77711290Y-74304862D01*
X77697914Y-74301995D01*
X77603562Y-74292328D01*
X77597145Y-74292000D01*
X77497115Y-74292000D01*
X77481876Y-74296475D01*
X77480671Y-74297865D01*
X77479000Y-74305548D01*
X77479000Y-75227885D01*
X76971000Y-75227885D01*
X76971000Y-74310116D01*
X76966525Y-74294877D01*
X76965135Y-74293672D01*
X76957452Y-74292001D01*
X76852905Y-74292001D01*
X76846386Y-74292338D01*
X76750794Y-74302257D01*
X76737400Y-74305149D01*
X76583216Y-74356588D01*
X76570038Y-74362761D01*
X76432193Y-74448063D01*
X76420792Y-74457099D01*
X76306261Y-74571829D01*
X76297249Y-74583240D01*
X76212184Y-74721243D01*
X76206037Y-74734424D01*
X76157389Y-74881092D01*
X76116958Y-74939451D01*
X76051394Y-74966688D01*
X75981512Y-74954154D01*
X75929500Y-74905830D01*
X75918913Y-74883172D01*
X75905753Y-74845699D01*
X75902634Y-74836816D01*
X75897042Y-74829246D01*
X75897041Y-74829243D01*
X75827742Y-74735421D01*
X75822150Y-74727850D01*
X75769265Y-74688788D01*
X75720757Y-74652959D01*
X75720754Y-74652958D01*
X75713184Y-74647366D01*
X75585369Y-74602481D01*
X75586460Y-74599373D01*
X75537297Y-74572451D01*
X75503347Y-74510098D01*
X75500500Y-74483463D01*
X75500500Y-73144710D01*
X75500980Y-73133728D01*
X75503303Y-73107175D01*
X75503303Y-73107170D01*
X75504263Y-73096193D01*
X75494508Y-73059783D01*
X75492133Y-73049072D01*
X75488054Y-73025942D01*
X75485588Y-73011955D01*
X75480078Y-73002411D01*
X75478886Y-72999135D01*
X75477407Y-72995964D01*
X75474554Y-72985316D01*
X75469351Y-72977885D01*
X78342000Y-72977885D01*
X78346475Y-72993124D01*
X78347865Y-72994329D01*
X78355548Y-72996000D01*
X79152885Y-72996000D01*
X79168124Y-72991525D01*
X79169329Y-72990135D01*
X79171000Y-72982452D01*
X79171000Y-72060116D01*
X79166525Y-72044877D01*
X79165135Y-72043672D01*
X79157452Y-72042001D01*
X79052905Y-72042001D01*
X79046386Y-72042338D01*
X78950794Y-72052257D01*
X78937400Y-72055149D01*
X78783216Y-72106588D01*
X78770038Y-72112761D01*
X78632193Y-72198063D01*
X78620792Y-72207099D01*
X78506261Y-72321829D01*
X78497249Y-72333240D01*
X78412184Y-72471243D01*
X78406037Y-72484424D01*
X78354862Y-72638710D01*
X78351995Y-72652086D01*
X78342328Y-72746438D01*
X78342000Y-72752855D01*
X78342000Y-72977885D01*
X75469351Y-72977885D01*
X75452940Y-72954448D01*
X75447036Y-72945179D01*
X75433707Y-72922092D01*
X75433704Y-72922088D01*
X75428194Y-72912545D01*
X75399324Y-72888320D01*
X75391221Y-72880894D01*
X75362405Y-72852078D01*
X75328379Y-72789766D01*
X75325500Y-72762983D01*
X75325500Y-72015871D01*
X75698456Y-72015871D01*
X75739107Y-72155790D01*
X75745352Y-72170221D01*
X75821911Y-72299678D01*
X75831551Y-72312104D01*
X75937896Y-72418449D01*
X75950322Y-72428089D01*
X76079779Y-72504648D01*
X76094210Y-72510893D01*
X76240065Y-72553269D01*
X76252667Y-72555570D01*
X76281084Y-72557807D01*
X76286014Y-72558000D01*
X76665385Y-72558000D01*
X76680624Y-72553525D01*
X76681829Y-72552135D01*
X76683500Y-72544452D01*
X76683500Y-72539884D01*
X77191500Y-72539884D01*
X77195975Y-72555123D01*
X77197365Y-72556328D01*
X77205048Y-72557999D01*
X77588984Y-72557999D01*
X77593920Y-72557805D01*
X77622336Y-72555570D01*
X77634931Y-72553270D01*
X77780790Y-72510893D01*
X77795221Y-72504648D01*
X77924678Y-72428089D01*
X77937104Y-72418449D01*
X78043449Y-72312104D01*
X78053089Y-72299678D01*
X78129648Y-72170221D01*
X78135893Y-72155790D01*
X78174939Y-72021395D01*
X78174899Y-72007294D01*
X78167630Y-72004000D01*
X77209615Y-72004000D01*
X77194376Y-72008475D01*
X77193171Y-72009865D01*
X77191500Y-72017548D01*
X77191500Y-72539884D01*
X76683500Y-72539884D01*
X76683500Y-72022115D01*
X76679025Y-72006876D01*
X76677635Y-72005671D01*
X76669952Y-72004000D01*
X75713122Y-72004000D01*
X75699591Y-72007973D01*
X75698456Y-72015871D01*
X75325500Y-72015871D01*
X75325500Y-71505360D01*
X75325980Y-71494378D01*
X75326411Y-71489450D01*
X75329263Y-71478807D01*
X75327763Y-71461655D01*
X75325979Y-71441269D01*
X75325500Y-71430288D01*
X75325500Y-71426500D01*
X75345502Y-71358379D01*
X75399158Y-71311886D01*
X75451500Y-71300500D01*
X75583989Y-71300500D01*
X75652110Y-71320502D01*
X75698603Y-71374158D01*
X75708707Y-71444432D01*
X75704985Y-71461655D01*
X75700061Y-71478603D01*
X75700101Y-71492706D01*
X75707370Y-71496000D01*
X76665385Y-71496000D01*
X76680624Y-71491525D01*
X76681829Y-71490135D01*
X76683500Y-71482452D01*
X76683500Y-71477885D01*
X77191500Y-71477885D01*
X77195975Y-71493124D01*
X77197365Y-71494329D01*
X77205048Y-71496000D01*
X78161878Y-71496000D01*
X78175409Y-71492027D01*
X78176544Y-71484129D01*
X78135893Y-71344210D01*
X78129648Y-71329779D01*
X78053089Y-71200322D01*
X78043449Y-71187896D01*
X77937104Y-71081551D01*
X77924678Y-71071911D01*
X77795221Y-70995352D01*
X77780790Y-70989107D01*
X77634935Y-70946731D01*
X77622333Y-70944430D01*
X77593916Y-70942193D01*
X77588986Y-70942000D01*
X77209615Y-70942000D01*
X77194376Y-70946475D01*
X77193171Y-70947865D01*
X77191500Y-70955548D01*
X77191500Y-71477885D01*
X76683500Y-71477885D01*
X76683500Y-70960116D01*
X76679025Y-70944877D01*
X76677635Y-70943672D01*
X76669952Y-70942001D01*
X76286017Y-70942001D01*
X76281080Y-70942195D01*
X76252664Y-70944430D01*
X76240066Y-70946731D01*
X76161653Y-70969512D01*
X76090657Y-70969309D01*
X76031040Y-70930755D01*
X76001732Y-70866091D01*
X76000500Y-70848515D01*
X76000500Y-70616782D01*
X75994857Y-70578446D01*
X75991784Y-70557574D01*
X75991784Y-70557573D01*
X75990358Y-70547888D01*
X75938932Y-70443145D01*
X75856350Y-70360707D01*
X75834119Y-70349840D01*
X75805891Y-70336042D01*
X75751518Y-70309464D01*
X75721027Y-70305016D01*
X75687744Y-70300160D01*
X75687740Y-70300160D01*
X75683218Y-70299500D01*
X74441782Y-70299500D01*
X74437232Y-70300170D01*
X74437229Y-70300170D01*
X74382574Y-70308216D01*
X74382573Y-70308216D01*
X74372888Y-70309642D01*
X74348626Y-70321554D01*
X74277493Y-70356478D01*
X74277491Y-70356479D01*
X74268145Y-70361068D01*
X74260787Y-70368438D01*
X74260788Y-70368438D01*
X74210013Y-70419302D01*
X74185707Y-70443650D01*
X74134464Y-70548482D01*
X74124500Y-70616782D01*
X74124500Y-70983218D01*
X74125170Y-70987768D01*
X74125170Y-70987771D01*
X74126286Y-70995352D01*
X74134642Y-71052112D01*
X74186068Y-71156855D01*
X74268650Y-71239293D01*
X74373482Y-71290536D01*
X74383161Y-71291948D01*
X74409241Y-71295753D01*
X74473761Y-71325380D01*
X74512021Y-71385186D01*
X74511873Y-71456182D01*
X74480146Y-71509528D01*
X72902079Y-73087595D01*
X72839767Y-73121621D01*
X72812984Y-73124500D01*
X72047022Y-73124500D01*
X71978901Y-73104498D01*
X71932408Y-73050842D01*
X71923949Y-73025500D01*
X71923242Y-73022275D01*
X71922519Y-73014631D01*
X71919977Y-73007392D01*
X71919976Y-73007388D01*
X71880753Y-72895699D01*
X71877634Y-72886816D01*
X71872042Y-72879246D01*
X71872041Y-72879243D01*
X71802742Y-72785421D01*
X71797150Y-72777850D01*
X71754254Y-72746166D01*
X71695757Y-72702959D01*
X71695754Y-72702958D01*
X71688184Y-72697366D01*
X71628169Y-72676291D01*
X71570525Y-72634848D01*
X71544436Y-72568819D01*
X71558187Y-72499166D01*
X71612226Y-72445392D01*
X71720977Y-72389381D01*
X71731024Y-72382931D01*
X71887857Y-72259738D01*
X71896506Y-72251501D01*
X72027212Y-72100877D01*
X72034147Y-72091153D01*
X72134010Y-71918533D01*
X72138984Y-71907669D01*
X72204407Y-71719273D01*
X72204648Y-71718284D01*
X72203180Y-71707992D01*
X72189615Y-71704000D01*
X69514598Y-71704000D01*
X69501067Y-71707973D01*
X69499712Y-71717399D01*
X68600500Y-71717399D01*
X68600500Y-71181716D01*
X69495352Y-71181716D01*
X69496820Y-71192008D01*
X69510385Y-71196000D01*
X70577885Y-71196000D01*
X70593124Y-71191525D01*
X70594329Y-71190135D01*
X70596000Y-71182452D01*
X70596000Y-71177885D01*
X71104000Y-71177885D01*
X71108475Y-71193124D01*
X71109865Y-71194329D01*
X71117548Y-71196000D01*
X72185402Y-71196000D01*
X72198933Y-71192027D01*
X72200288Y-71182601D01*
X72178806Y-71093463D01*
X72174917Y-71082168D01*
X72092371Y-70900618D01*
X72086424Y-70890276D01*
X71971032Y-70727603D01*
X71963239Y-70718575D01*
X71819169Y-70580658D01*
X71809804Y-70573262D01*
X71642259Y-70465079D01*
X71631655Y-70459583D01*
X71446688Y-70385039D01*
X71435230Y-70381645D01*
X71238072Y-70343143D01*
X71229209Y-70342066D01*
X71226500Y-70342000D01*
X71122115Y-70342000D01*
X71106876Y-70346475D01*
X71105671Y-70347865D01*
X71104000Y-70355548D01*
X71104000Y-71177885D01*
X70596000Y-71177885D01*
X70596000Y-70360115D01*
X70591525Y-70344876D01*
X70590135Y-70343671D01*
X70582452Y-70342000D01*
X70525168Y-70342000D01*
X70519192Y-70342285D01*
X70370506Y-70356471D01*
X70358772Y-70358730D01*
X70167401Y-70414872D01*
X70156325Y-70419302D01*
X69979022Y-70510619D01*
X69968976Y-70517069D01*
X69812143Y-70640262D01*
X69803494Y-70648499D01*
X69672788Y-70799123D01*
X69665853Y-70808847D01*
X69565990Y-70981467D01*
X69561016Y-70992331D01*
X69495593Y-71180727D01*
X69495352Y-71181716D01*
X68600500Y-71181716D01*
X68600500Y-62611877D01*
X68600844Y-62605323D01*
X69409317Y-62605323D01*
X69411378Y-62615023D01*
X69411532Y-62617962D01*
X69412220Y-62622304D01*
X69429982Y-62791335D01*
X69432052Y-62811039D01*
X69432283Y-62815452D01*
X69432742Y-62818349D01*
X69432742Y-62828262D01*
X69434397Y-62833355D01*
X69434956Y-62838676D01*
X69438991Y-62847739D01*
X69439751Y-62850577D01*
X69441324Y-62854674D01*
X69480170Y-62974229D01*
X69499955Y-63035122D01*
X69501101Y-63039398D01*
X69502149Y-63042128D01*
X69504212Y-63051822D01*
X69506886Y-63056452D01*
X69508538Y-63061536D01*
X69514367Y-63069559D01*
X69515693Y-63072162D01*
X69518100Y-63075868D01*
X69612955Y-63240099D01*
X69614937Y-63243988D01*
X69616558Y-63246486D01*
X69620592Y-63255551D01*
X69624188Y-63259546D01*
X69626875Y-63264199D01*
X69634249Y-63270837D01*
X69636127Y-63273155D01*
X69639210Y-63276238D01*
X69766145Y-63417278D01*
X69768926Y-63420713D01*
X69770991Y-63422778D01*
X69776820Y-63430800D01*
X69781143Y-63433941D01*
X69784717Y-63437912D01*
X69793302Y-63442871D01*
X69795569Y-63444708D01*
X69799273Y-63447114D01*
X69892698Y-63514992D01*
X69952821Y-63558675D01*
X69956260Y-63561459D01*
X69958703Y-63563045D01*
X69966073Y-63569677D01*
X69970952Y-63571848D01*
X69975274Y-63574988D01*
X69984709Y-63578053D01*
X69987306Y-63579377D01*
X69991431Y-63580960D01*
X70164752Y-63658076D01*
X70168642Y-63660058D01*
X70171418Y-63661124D01*
X70180009Y-63666085D01*
X70185263Y-63667202D01*
X70190169Y-63669385D01*
X70200030Y-63670418D01*
X70202908Y-63671189D01*
X70207231Y-63671873D01*
X70392771Y-63711327D01*
X70397032Y-63712469D01*
X70399932Y-63712928D01*
X70409362Y-63715992D01*
X70414711Y-63715992D01*
X70419945Y-63717105D01*
X70429808Y-63716069D01*
X70432739Y-63716223D01*
X70437145Y-63715992D01*
X70626879Y-63715992D01*
X70631284Y-63716223D01*
X70634212Y-63716069D01*
X70644076Y-63717105D01*
X70649310Y-63715992D01*
X70654658Y-63715992D01*
X70664085Y-63712929D01*
X70666979Y-63712471D01*
X70671240Y-63711329D01*
X70856784Y-63671872D01*
X70861107Y-63671188D01*
X70863980Y-63670419D01*
X70873841Y-63669385D01*
X70878750Y-63667201D01*
X70884002Y-63666084D01*
X70892591Y-63661124D01*
X70895366Y-63660058D01*
X70899248Y-63658080D01*
X71072589Y-63580955D01*
X71076700Y-63579378D01*
X71079296Y-63578055D01*
X71088734Y-63574989D01*
X71093057Y-63571848D01*
X71097937Y-63569677D01*
X71105316Y-63563036D01*
X71107767Y-63561445D01*
X71111184Y-63558679D01*
X71264746Y-63447114D01*
X71268458Y-63444703D01*
X71270721Y-63442869D01*
X71279306Y-63437910D01*
X71282879Y-63433940D01*
X71287198Y-63430802D01*
X71293023Y-63422784D01*
X71295087Y-63420720D01*
X71297877Y-63417274D01*
X71424801Y-63276237D01*
X71427885Y-63273153D01*
X71429763Y-63270834D01*
X71437135Y-63264199D01*
X71439823Y-63259545D01*
X71443420Y-63255548D01*
X71447448Y-63246494D01*
X71449070Y-63243995D01*
X71451054Y-63240100D01*
X71545909Y-63075869D01*
X71548307Y-63072178D01*
X71549639Y-63069564D01*
X71555470Y-63061540D01*
X71557123Y-63056453D01*
X71559798Y-63051822D01*
X71561861Y-63042124D01*
X71562912Y-63039387D01*
X71564053Y-63035128D01*
X71622694Y-62854682D01*
X71622696Y-62854677D01*
X71624277Y-62850557D01*
X71625034Y-62847733D01*
X71629067Y-62838671D01*
X71629626Y-62833351D01*
X71631278Y-62828267D01*
X71631278Y-62818349D01*
X71631736Y-62815457D01*
X71631967Y-62811054D01*
X71651791Y-62622306D01*
X71652478Y-62617967D01*
X71652632Y-62615022D01*
X71654693Y-62605328D01*
X83633307Y-62605328D01*
X83635369Y-62615029D01*
X83635524Y-62617976D01*
X83636210Y-62622307D01*
X83656033Y-62811054D01*
X83656264Y-62815457D01*
X83656722Y-62818349D01*
X83656722Y-62828267D01*
X83658374Y-62833351D01*
X83658933Y-62838671D01*
X83662965Y-62847730D01*
X83663722Y-62850556D01*
X83665303Y-62854674D01*
X83723945Y-63035124D01*
X83723946Y-63035126D01*
X83725088Y-63039388D01*
X83726139Y-63042123D01*
X83728202Y-63051822D01*
X83730877Y-63056453D01*
X83732530Y-63061540D01*
X83738361Y-63069564D01*
X83739693Y-63072178D01*
X83742091Y-63075869D01*
X83836946Y-63240100D01*
X83838930Y-63243995D01*
X83840552Y-63246494D01*
X83844580Y-63255548D01*
X83848177Y-63259545D01*
X83850865Y-63264199D01*
X83858237Y-63270834D01*
X83860115Y-63273153D01*
X83863199Y-63276237D01*
X83990123Y-63417274D01*
X83992913Y-63420720D01*
X83994977Y-63422784D01*
X84000802Y-63430802D01*
X84005121Y-63433940D01*
X84008694Y-63437910D01*
X84017279Y-63442869D01*
X84019542Y-63444703D01*
X84023254Y-63447114D01*
X84176816Y-63558679D01*
X84180233Y-63561445D01*
X84182684Y-63563036D01*
X84190063Y-63569677D01*
X84194943Y-63571848D01*
X84199266Y-63574989D01*
X84208703Y-63578055D01*
X84211309Y-63579383D01*
X84215422Y-63580961D01*
X84388740Y-63658076D01*
X84392630Y-63660057D01*
X84395409Y-63661124D01*
X84403998Y-63666084D01*
X84409250Y-63667201D01*
X84414159Y-63669385D01*
X84424020Y-63670419D01*
X84426893Y-63671188D01*
X84431216Y-63671872D01*
X84616760Y-63711329D01*
X84621021Y-63712471D01*
X84623915Y-63712929D01*
X84633342Y-63715992D01*
X84638690Y-63715992D01*
X84643924Y-63717105D01*
X84653788Y-63716069D01*
X84656716Y-63716223D01*
X84661121Y-63715992D01*
X84850855Y-63715992D01*
X84855261Y-63716223D01*
X84858192Y-63716069D01*
X84868055Y-63717105D01*
X84873289Y-63715992D01*
X84878638Y-63715992D01*
X84888068Y-63712928D01*
X84890968Y-63712469D01*
X84895229Y-63711327D01*
X85080769Y-63671873D01*
X85085092Y-63671189D01*
X85087970Y-63670418D01*
X85097831Y-63669385D01*
X85102737Y-63667202D01*
X85107991Y-63666085D01*
X85116580Y-63661124D01*
X85119357Y-63660058D01*
X85123258Y-63658071D01*
X85296575Y-63580957D01*
X85300696Y-63579376D01*
X85303292Y-63578053D01*
X85312726Y-63574988D01*
X85317048Y-63571848D01*
X85321927Y-63569677D01*
X85329297Y-63563045D01*
X85331740Y-63561459D01*
X85335179Y-63558675D01*
X85488719Y-63447119D01*
X85492430Y-63444708D01*
X85494697Y-63442871D01*
X85503283Y-63437912D01*
X85506857Y-63433941D01*
X85511180Y-63430800D01*
X85517009Y-63422778D01*
X85519074Y-63420713D01*
X85521855Y-63417278D01*
X85648790Y-63276238D01*
X85651873Y-63273155D01*
X85653751Y-63270837D01*
X85661125Y-63264199D01*
X85663812Y-63259546D01*
X85667408Y-63255551D01*
X85671442Y-63246486D01*
X85673063Y-63243988D01*
X85675045Y-63240099D01*
X85769903Y-63075863D01*
X85772306Y-63072163D01*
X85773634Y-63069556D01*
X85779462Y-63061535D01*
X85781113Y-63056453D01*
X85783788Y-63051822D01*
X85785852Y-63042120D01*
X85786897Y-63039400D01*
X85788043Y-63035126D01*
X85788044Y-63035124D01*
X85846676Y-62854674D01*
X85848249Y-62850577D01*
X85849009Y-62847739D01*
X85853044Y-62838676D01*
X85853603Y-62833355D01*
X85855258Y-62828262D01*
X85855258Y-62818349D01*
X85855717Y-62815452D01*
X85855948Y-62811039D01*
X85858019Y-62791335D01*
X85875780Y-62622304D01*
X85876468Y-62617962D01*
X85876622Y-62615023D01*
X85878683Y-62605323D01*
X85878123Y-62599999D01*
X85878683Y-62594672D01*
X85876620Y-62584967D01*
X85876466Y-62582030D01*
X85875777Y-62577678D01*
X85855950Y-62389082D01*
X85855720Y-62384694D01*
X85855258Y-62381773D01*
X85855260Y-62371855D01*
X85853604Y-62366755D01*
X85853043Y-62361421D01*
X85849011Y-62352365D01*
X85848246Y-62349510D01*
X85846670Y-62345405D01*
X85788040Y-62164869D01*
X85786893Y-62160587D01*
X85785851Y-62157874D01*
X85783788Y-62148178D01*
X85781118Y-62143555D01*
X85779469Y-62138478D01*
X85773643Y-62130456D01*
X85772322Y-62127863D01*
X85769912Y-62124152D01*
X85675045Y-61959901D01*
X85673063Y-61956012D01*
X85671442Y-61953514D01*
X85667408Y-61944449D01*
X85663812Y-61940454D01*
X85661125Y-61935801D01*
X85653751Y-61929163D01*
X85651873Y-61926845D01*
X85648795Y-61923767D01*
X85521827Y-61782693D01*
X85519027Y-61779236D01*
X85516986Y-61777197D01*
X85511153Y-61769173D01*
X85506844Y-61766045D01*
X85503283Y-61762088D01*
X85494701Y-61757130D01*
X85492463Y-61755317D01*
X85488719Y-61752886D01*
X85441597Y-61718677D01*
X85335227Y-61641456D01*
X85331841Y-61638714D01*
X85329332Y-61637084D01*
X85321964Y-61630448D01*
X85317045Y-61628257D01*
X85312691Y-61625096D01*
X85303257Y-61622035D01*
X85300583Y-61620673D01*
X85296528Y-61619117D01*
X85123252Y-61541932D01*
X85119315Y-61539925D01*
X85116580Y-61538875D01*
X85107991Y-61533915D01*
X85102755Y-61532802D01*
X85097873Y-61530627D01*
X85088012Y-61529588D01*
X85085177Y-61528828D01*
X85080840Y-61528141D01*
X84895220Y-61488671D01*
X84890970Y-61487532D01*
X84888071Y-61487073D01*
X84878638Y-61484008D01*
X84873289Y-61484008D01*
X84868055Y-61482895D01*
X84858192Y-61483931D01*
X84855261Y-61483777D01*
X84850855Y-61484008D01*
X84661121Y-61484008D01*
X84656716Y-61483777D01*
X84653788Y-61483931D01*
X84643924Y-61482895D01*
X84638690Y-61484008D01*
X84633342Y-61484008D01*
X84623913Y-61487071D01*
X84621023Y-61487529D01*
X84616763Y-61488670D01*
X84431168Y-61528138D01*
X84426805Y-61528830D01*
X84423980Y-61529588D01*
X84414117Y-61530626D01*
X84409228Y-61532804D01*
X84403998Y-61533916D01*
X84395410Y-61538875D01*
X84392672Y-61539926D01*
X84388750Y-61541925D01*
X84215466Y-61619115D01*
X84211412Y-61620671D01*
X84208738Y-61622032D01*
X84199301Y-61625094D01*
X84194943Y-61628258D01*
X84190026Y-61630448D01*
X84182657Y-61637085D01*
X84180141Y-61638720D01*
X84176767Y-61641452D01*
X84116767Y-61685008D01*
X84023255Y-61752891D01*
X84019518Y-61755317D01*
X84017283Y-61757128D01*
X84008694Y-61762090D01*
X84005134Y-61766046D01*
X84000829Y-61769171D01*
X83994996Y-61777193D01*
X83992960Y-61779227D01*
X83990157Y-61782688D01*
X83863199Y-61923763D01*
X83860115Y-61926847D01*
X83858237Y-61929166D01*
X83850865Y-61935801D01*
X83848177Y-61940455D01*
X83844580Y-61944452D01*
X83840552Y-61953506D01*
X83838928Y-61956008D01*
X83836943Y-61959905D01*
X83742080Y-62124148D01*
X83739672Y-62127856D01*
X83738350Y-62130451D01*
X83732523Y-62138474D01*
X83730873Y-62143553D01*
X83728202Y-62148178D01*
X83726139Y-62157877D01*
X83725092Y-62160604D01*
X83723947Y-62164878D01*
X83665310Y-62345404D01*
X83663730Y-62349522D01*
X83662968Y-62352365D01*
X83658934Y-62361426D01*
X83658374Y-62366759D01*
X83656720Y-62371850D01*
X83656721Y-62381767D01*
X83656259Y-62384684D01*
X83656030Y-62389060D01*
X83636212Y-62577678D01*
X83635524Y-62582024D01*
X83635369Y-62584968D01*
X83633307Y-62594667D01*
X83633867Y-62599999D01*
X83633307Y-62605328D01*
X71654693Y-62605328D01*
X71654693Y-62605327D01*
X71654133Y-62599998D01*
X71654693Y-62594667D01*
X71652631Y-62584968D01*
X71652476Y-62582021D01*
X71651788Y-62577675D01*
X71631970Y-62389069D01*
X71631740Y-62384672D01*
X71631279Y-62381760D01*
X71631280Y-62371849D01*
X71629625Y-62366753D01*
X71629065Y-62361426D01*
X71625033Y-62352369D01*
X71624269Y-62349519D01*
X71622693Y-62345413D01*
X71564051Y-62164871D01*
X71562906Y-62160597D01*
X71561861Y-62157877D01*
X71559798Y-62148178D01*
X71557127Y-62143553D01*
X71555477Y-62138474D01*
X71549650Y-62130453D01*
X71548323Y-62127849D01*
X71545913Y-62124138D01*
X71451056Y-61959904D01*
X71451055Y-61959901D01*
X71451054Y-61959900D01*
X71449070Y-61956005D01*
X71447448Y-61953506D01*
X71443420Y-61944452D01*
X71439823Y-61940455D01*
X71437135Y-61935801D01*
X71429763Y-61929166D01*
X71427885Y-61926847D01*
X71424801Y-61923763D01*
X71297843Y-61782688D01*
X71295040Y-61779227D01*
X71293004Y-61777193D01*
X71287171Y-61769171D01*
X71282866Y-61766046D01*
X71279306Y-61762090D01*
X71270717Y-61757128D01*
X71268482Y-61755317D01*
X71264745Y-61752891D01*
X71171233Y-61685008D01*
X71111233Y-61641452D01*
X71107859Y-61638720D01*
X71105343Y-61637085D01*
X71097974Y-61630448D01*
X71093057Y-61628258D01*
X71088699Y-61625094D01*
X71079260Y-61622031D01*
X71076591Y-61620673D01*
X71072530Y-61619114D01*
X70899260Y-61541931D01*
X70895323Y-61539924D01*
X70892588Y-61538874D01*
X70884002Y-61533916D01*
X70878768Y-61532803D01*
X70873883Y-61530627D01*
X70864020Y-61529589D01*
X70861183Y-61528828D01*
X70856833Y-61528138D01*
X70671241Y-61488671D01*
X70666980Y-61487529D01*
X70664085Y-61487071D01*
X70654658Y-61484008D01*
X70649310Y-61484008D01*
X70644076Y-61482895D01*
X70634212Y-61483931D01*
X70631284Y-61483777D01*
X70626879Y-61484008D01*
X70437145Y-61484008D01*
X70432739Y-61483777D01*
X70429808Y-61483931D01*
X70419945Y-61482895D01*
X70414711Y-61484008D01*
X70409362Y-61484008D01*
X70399932Y-61487072D01*
X70397032Y-61487531D01*
X70392771Y-61488673D01*
X70207181Y-61528137D01*
X70202829Y-61528827D01*
X70199992Y-61529588D01*
X70190127Y-61530626D01*
X70185241Y-61532802D01*
X70180009Y-61533915D01*
X70171424Y-61538872D01*
X70168690Y-61539922D01*
X70164761Y-61541925D01*
X70162585Y-61542894D01*
X69991476Y-61619115D01*
X69987419Y-61620672D01*
X69984739Y-61622037D01*
X69975309Y-61625096D01*
X69970955Y-61628257D01*
X69966036Y-61630448D01*
X69958667Y-61637085D01*
X69956158Y-61638715D01*
X69952773Y-61641456D01*
X69821140Y-61737018D01*
X69799281Y-61752887D01*
X69795543Y-61755313D01*
X69793302Y-61757129D01*
X69784717Y-61762088D01*
X69781156Y-61766045D01*
X69776847Y-61769173D01*
X69771014Y-61777197D01*
X69768973Y-61779236D01*
X69766173Y-61782693D01*
X69639205Y-61923767D01*
X69636127Y-61926845D01*
X69634249Y-61929163D01*
X69626875Y-61935801D01*
X69624188Y-61940454D01*
X69620592Y-61944449D01*
X69616558Y-61953514D01*
X69614937Y-61956012D01*
X69612955Y-61959901D01*
X69518088Y-62124152D01*
X69515678Y-62127863D01*
X69514357Y-62130456D01*
X69508531Y-62138478D01*
X69506882Y-62143555D01*
X69504212Y-62148178D01*
X69502150Y-62157874D01*
X69501105Y-62160594D01*
X69499959Y-62164872D01*
X69441328Y-62345411D01*
X69439756Y-62349507D01*
X69438991Y-62352362D01*
X69434957Y-62361421D01*
X69434396Y-62366754D01*
X69432740Y-62371854D01*
X69432742Y-62381770D01*
X69432280Y-62384690D01*
X69432050Y-62389082D01*
X69412223Y-62577678D01*
X69411534Y-62582030D01*
X69411380Y-62584967D01*
X69409317Y-62594672D01*
X69409877Y-62599999D01*
X69409317Y-62605323D01*
X68600844Y-62605323D01*
X68601191Y-62598701D01*
X68641880Y-62211724D01*
X68647353Y-62185972D01*
X68763904Y-61827181D01*
X68774621Y-61803109D01*
X68930041Y-61533915D01*
X68963215Y-61476457D01*
X68978699Y-61455145D01*
X69073225Y-61350169D01*
X69231075Y-61174867D01*
X69250659Y-61157236D01*
X69555820Y-60935578D01*
X69578611Y-60922420D01*
X69923206Y-60768965D01*
X69948276Y-60760820D01*
X70317211Y-60682428D01*
X70343399Y-60679676D01*
X84944596Y-60679676D01*
X84970784Y-60682427D01*
G37*
G04 #@! TD.AperFunction*
M02*
