G04 #@! TF.GenerationSoftware,KiCad,Pcbnew,(6.0.8)*
G04 #@! TF.CreationDate,2022-10-25T11:31:58-07:00*
G04 #@! TF.ProjectId,SAMD10_demo_in_progress,53414d44-3130-45f6-9465-6d6f5f696e5f,rev?*
G04 #@! TF.SameCoordinates,Original*
G04 #@! TF.FileFunction,Legend,Top*
G04 #@! TF.FilePolarity,Positive*
%FSLAX46Y46*%
G04 Gerber Fmt 4.6, Leading zero omitted, Abs format (unit mm)*
G04 Created by KiCad (PCBNEW (6.0.8)) date 2022-10-25 11:31:58*
%MOMM*%
%LPD*%
G01*
G04 APERTURE LIST*
%ADD10C,0.150000*%
%ADD11C,0.120000*%
G04 APERTURE END LIST*
D10*
X80283333Y-77507142D02*
X80235714Y-77554761D01*
X80092857Y-77602380D01*
X79997619Y-77602380D01*
X79854761Y-77554761D01*
X79759523Y-77459523D01*
X79711904Y-77364285D01*
X79664285Y-77173809D01*
X79664285Y-77030952D01*
X79711904Y-76840476D01*
X79759523Y-76745238D01*
X79854761Y-76650000D01*
X79997619Y-76602380D01*
X80092857Y-76602380D01*
X80235714Y-76650000D01*
X80283333Y-76697619D01*
X81235714Y-77602380D02*
X80664285Y-77602380D01*
X80950000Y-77602380D02*
X80950000Y-76602380D01*
X80854761Y-76745238D01*
X80759523Y-76840476D01*
X80664285Y-76888095D01*
X76033333Y-74207142D02*
X75985714Y-74254761D01*
X75842857Y-74302380D01*
X75747619Y-74302380D01*
X75604761Y-74254761D01*
X75509523Y-74159523D01*
X75461904Y-74064285D01*
X75414285Y-73873809D01*
X75414285Y-73730952D01*
X75461904Y-73540476D01*
X75509523Y-73445238D01*
X75604761Y-73350000D01*
X75747619Y-73302380D01*
X75842857Y-73302380D01*
X75985714Y-73350000D01*
X76033333Y-73397619D01*
X76414285Y-73397619D02*
X76461904Y-73350000D01*
X76557142Y-73302380D01*
X76795238Y-73302380D01*
X76890476Y-73350000D01*
X76938095Y-73397619D01*
X76985714Y-73492857D01*
X76985714Y-73588095D01*
X76938095Y-73730952D01*
X76366666Y-74302380D01*
X76985714Y-74302380D01*
X80283333Y-71957142D02*
X80235714Y-72004761D01*
X80092857Y-72052380D01*
X79997619Y-72052380D01*
X79854761Y-72004761D01*
X79759523Y-71909523D01*
X79711904Y-71814285D01*
X79664285Y-71623809D01*
X79664285Y-71480952D01*
X79711904Y-71290476D01*
X79759523Y-71195238D01*
X79854761Y-71100000D01*
X79997619Y-71052380D01*
X80092857Y-71052380D01*
X80235714Y-71100000D01*
X80283333Y-71147619D01*
X80616666Y-71052380D02*
X81235714Y-71052380D01*
X80902380Y-71433333D01*
X81045238Y-71433333D01*
X81140476Y-71480952D01*
X81188095Y-71528571D01*
X81235714Y-71623809D01*
X81235714Y-71861904D01*
X81188095Y-71957142D01*
X81140476Y-72004761D01*
X81045238Y-72052380D01*
X80759523Y-72052380D01*
X80664285Y-72004761D01*
X80616666Y-71957142D01*
X82836904Y-74252380D02*
X82836904Y-73252380D01*
X83075000Y-73252380D01*
X83217857Y-73300000D01*
X83313095Y-73395238D01*
X83360714Y-73490476D01*
X83408333Y-73680952D01*
X83408333Y-73823809D01*
X83360714Y-74014285D01*
X83313095Y-74109523D01*
X83217857Y-74204761D01*
X83075000Y-74252380D01*
X82836904Y-74252380D01*
X83789285Y-73347619D02*
X83836904Y-73300000D01*
X83932142Y-73252380D01*
X84170238Y-73252380D01*
X84265476Y-73300000D01*
X84313095Y-73347619D01*
X84360714Y-73442857D01*
X84360714Y-73538095D01*
X84313095Y-73680952D01*
X83741666Y-74252380D01*
X84360714Y-74252380D01*
X81932380Y-90163333D02*
X82646666Y-90163333D01*
X82789523Y-90210952D01*
X82884761Y-90306190D01*
X82932380Y-90449047D01*
X82932380Y-90544285D01*
X82265714Y-89258571D02*
X82932380Y-89258571D01*
X81884761Y-89496666D02*
X82599047Y-89734761D01*
X82599047Y-89115714D01*
X81852380Y-86933333D02*
X82566666Y-86933333D01*
X82709523Y-86980952D01*
X82804761Y-87076190D01*
X82852380Y-87219047D01*
X82852380Y-87314285D01*
X81947619Y-86504761D02*
X81900000Y-86457142D01*
X81852380Y-86361904D01*
X81852380Y-86123809D01*
X81900000Y-86028571D01*
X81947619Y-85980952D01*
X82042857Y-85933333D01*
X82138095Y-85933333D01*
X82280952Y-85980952D01*
X82852380Y-86552380D01*
X82852380Y-85933333D01*
X68552380Y-83933333D02*
X69266666Y-83933333D01*
X69409523Y-83980952D01*
X69504761Y-84076190D01*
X69552380Y-84219047D01*
X69552380Y-84314285D01*
X68552380Y-83552380D02*
X68552380Y-82933333D01*
X68933333Y-83266666D01*
X68933333Y-83123809D01*
X68980952Y-83028571D01*
X69028571Y-82980952D01*
X69123809Y-82933333D01*
X69361904Y-82933333D01*
X69457142Y-82980952D01*
X69504761Y-83028571D01*
X69552380Y-83123809D01*
X69552380Y-83409523D01*
X69504761Y-83504761D01*
X69457142Y-83552380D01*
X70566666Y-67952380D02*
X70566666Y-68666666D01*
X70519047Y-68809523D01*
X70423809Y-68904761D01*
X70280952Y-68952380D01*
X70185714Y-68952380D01*
X71566666Y-68952380D02*
X70995238Y-68952380D01*
X71280952Y-68952380D02*
X71280952Y-67952380D01*
X71185714Y-68095238D01*
X71090476Y-68190476D01*
X70995238Y-68238095D01*
X84452380Y-71166666D02*
X83976190Y-71500000D01*
X84452380Y-71738095D02*
X83452380Y-71738095D01*
X83452380Y-71357142D01*
X83500000Y-71261904D01*
X83547619Y-71214285D01*
X83642857Y-71166666D01*
X83785714Y-71166666D01*
X83880952Y-71214285D01*
X83928571Y-71261904D01*
X83976190Y-71357142D01*
X83976190Y-71738095D01*
X83452380Y-70833333D02*
X83452380Y-70214285D01*
X83833333Y-70547619D01*
X83833333Y-70404761D01*
X83880952Y-70309523D01*
X83928571Y-70261904D01*
X84023809Y-70214285D01*
X84261904Y-70214285D01*
X84357142Y-70261904D01*
X84404761Y-70309523D01*
X84452380Y-70404761D01*
X84452380Y-70690476D01*
X84404761Y-70785714D01*
X84357142Y-70833333D01*
X72233333Y-91252380D02*
X71900000Y-90776190D01*
X71661904Y-91252380D02*
X71661904Y-90252380D01*
X72042857Y-90252380D01*
X72138095Y-90300000D01*
X72185714Y-90347619D01*
X72233333Y-90442857D01*
X72233333Y-90585714D01*
X72185714Y-90680952D01*
X72138095Y-90728571D01*
X72042857Y-90776190D01*
X71661904Y-90776190D01*
X73090476Y-90585714D02*
X73090476Y-91252380D01*
X72852380Y-90204761D02*
X72614285Y-90919047D01*
X73233333Y-90919047D01*
X72552380Y-85861904D02*
X73361904Y-85861904D01*
X73457142Y-85814285D01*
X73504761Y-85766666D01*
X73552380Y-85671428D01*
X73552380Y-85480952D01*
X73504761Y-85385714D01*
X73457142Y-85338095D01*
X73361904Y-85290476D01*
X72552380Y-85290476D01*
X72647619Y-84861904D02*
X72600000Y-84814285D01*
X72552380Y-84719047D01*
X72552380Y-84480952D01*
X72600000Y-84385714D01*
X72647619Y-84338095D01*
X72742857Y-84290476D01*
X72838095Y-84290476D01*
X72980952Y-84338095D01*
X73552380Y-84909523D01*
X73552380Y-84290476D01*
X75238095Y-67852380D02*
X75238095Y-68661904D01*
X75285714Y-68757142D01*
X75333333Y-68804761D01*
X75428571Y-68852380D01*
X75619047Y-68852380D01*
X75714285Y-68804761D01*
X75761904Y-68757142D01*
X75809523Y-68661904D01*
X75809523Y-67852380D01*
X76809523Y-68852380D02*
X76238095Y-68852380D01*
X76523809Y-68852380D02*
X76523809Y-67852380D01*
X76428571Y-67995238D01*
X76333333Y-68090476D01*
X76238095Y-68138095D01*
D11*
X80711252Y-74790000D02*
X80188748Y-74790000D01*
X80711252Y-76210000D02*
X80188748Y-76210000D01*
X75938748Y-74790000D02*
X76461252Y-74790000D01*
X75938748Y-76210000D02*
X76461252Y-76210000D01*
X80711252Y-73960000D02*
X80188748Y-73960000D01*
X80711252Y-72540000D02*
X80188748Y-72540000D01*
X83700000Y-76460000D02*
X86560000Y-76460000D01*
X86560000Y-74540000D02*
X83700000Y-74540000D01*
X86560000Y-76460000D02*
X86560000Y-74540000D01*
X81480000Y-92430000D02*
X73740000Y-92430000D01*
X81480000Y-89830000D02*
X81480000Y-92430000D01*
X73740000Y-87230000D02*
X73740000Y-92430000D01*
X78880000Y-87230000D02*
X73740000Y-87230000D01*
X78880000Y-89830000D02*
X81480000Y-89830000D01*
X80150000Y-87230000D02*
X81480000Y-87230000D01*
X78880000Y-87230000D02*
X78880000Y-89830000D01*
X81480000Y-87230000D02*
X81480000Y-88560000D01*
X83220000Y-77020000D02*
X84550000Y-77020000D01*
X85880000Y-79620000D02*
X85880000Y-87300000D01*
X83220000Y-78350000D02*
X83220000Y-77020000D01*
X83220000Y-87300000D02*
X85880000Y-87300000D01*
X83220000Y-79620000D02*
X83220000Y-87300000D01*
X83220000Y-79620000D02*
X85880000Y-79620000D01*
X72280000Y-79520000D02*
X72280000Y-87200000D01*
X69620000Y-76920000D02*
X70950000Y-76920000D01*
X69620000Y-78250000D02*
X69620000Y-76920000D01*
X69620000Y-79520000D02*
X69620000Y-87200000D01*
X69620000Y-87200000D02*
X72280000Y-87200000D01*
X69620000Y-79520000D02*
X72280000Y-79520000D01*
X69040000Y-69390000D02*
X69040000Y-75510000D01*
X69040000Y-73750000D02*
X68840000Y-73750000D01*
X73150000Y-74900000D02*
X73150000Y-70000000D01*
X73150000Y-72550000D02*
X72650000Y-72550000D01*
X69650000Y-71950000D02*
X69040000Y-71950000D01*
X68940000Y-73750000D02*
X68940000Y-74050000D01*
X72650000Y-72550000D02*
X72650000Y-72350000D01*
X71650000Y-75510000D02*
X71650000Y-74900000D01*
X73150000Y-70000000D02*
X69650000Y-70000000D01*
X69650000Y-70000000D02*
X69650000Y-71950000D01*
X73760000Y-69390000D02*
X69040000Y-69390000D01*
X70350000Y-69390000D02*
X70350000Y-70000000D01*
X68840000Y-73750000D02*
X68840000Y-74050000D01*
X69650000Y-74900000D02*
X73150000Y-74900000D01*
X68740000Y-74560000D02*
X68740000Y-75810000D01*
X69650000Y-72950000D02*
X69650000Y-74900000D01*
X69040000Y-72950000D02*
X69650000Y-72950000D01*
X71650000Y-69390000D02*
X71650000Y-70000000D01*
X73150000Y-72450000D02*
X72650000Y-72450000D01*
X68740000Y-75810000D02*
X69990000Y-75810000D01*
X68840000Y-74050000D02*
X69040000Y-74050000D01*
X69040000Y-75510000D02*
X73760000Y-75510000D01*
X73760000Y-75510000D02*
X73760000Y-69390000D01*
X72650000Y-72350000D02*
X73150000Y-72350000D01*
X70350000Y-75510000D02*
X70350000Y-74900000D01*
X84990000Y-71663748D02*
X84990000Y-72186252D01*
X86410000Y-71663748D02*
X86410000Y-72186252D01*
X71138748Y-89710000D02*
X71661252Y-89710000D01*
X71138748Y-88290000D02*
X71661252Y-88290000D01*
X77700000Y-77315000D02*
X74250000Y-77315000D01*
X77700000Y-86185000D02*
X75750000Y-86185000D01*
X77700000Y-86185000D02*
X79650000Y-86185000D01*
X77700000Y-77315000D02*
X79650000Y-77315000D01*
X76000000Y-69240000D02*
X76650000Y-69240000D01*
X76000000Y-69240000D02*
X75350000Y-69240000D01*
X76000000Y-72360000D02*
X75350000Y-72360000D01*
X76000000Y-72360000D02*
X77675000Y-72360000D01*
G36*
X74072987Y-65147642D02*
G01*
X74084267Y-65148626D01*
X74098555Y-65150643D01*
X74117129Y-65153828D01*
X74141267Y-65158321D01*
X74160211Y-65161942D01*
X74185201Y-65166799D01*
X74207519Y-65171251D01*
X74226055Y-65175064D01*
X74239698Y-65178009D01*
X74247338Y-65179855D01*
X74248563Y-65180297D01*
X74247102Y-65183956D01*
X74241949Y-65192942D01*
X74233801Y-65206116D01*
X74223355Y-65222341D01*
X74216257Y-65233092D01*
X74182233Y-65284168D01*
X74156058Y-65255953D01*
X74144279Y-65243099D01*
X74134166Y-65231777D01*
X74127157Y-65223612D01*
X74125125Y-65221024D01*
X74118571Y-65216009D01*
X74107699Y-65211318D01*
X74102886Y-65209908D01*
X74072965Y-65205740D01*
X74045176Y-65208320D01*
X74020331Y-65217067D01*
X73999240Y-65231403D01*
X73982714Y-65250747D01*
X73971563Y-65274519D01*
X73966599Y-65302140D01*
X73966425Y-65307499D01*
X73966937Y-65323470D01*
X73969475Y-65336689D01*
X73974943Y-65350896D01*
X73978913Y-65359246D01*
X73988474Y-65376008D01*
X74000373Y-65393268D01*
X74009997Y-65404978D01*
X74017889Y-65412422D01*
X74031118Y-65423649D01*
X74048687Y-65437869D01*
X74069600Y-65454289D01*
X74092859Y-65472120D01*
X74117469Y-65490568D01*
X74121926Y-65493864D01*
X74152846Y-65516869D01*
X74178039Y-65536145D01*
X74198211Y-65552398D01*
X74214065Y-65566337D01*
X74226307Y-65578668D01*
X74235642Y-65590099D01*
X74242773Y-65601337D01*
X74248406Y-65613089D01*
X74253038Y-65625454D01*
X74262026Y-65663392D01*
X74263754Y-65701679D01*
X74258670Y-65739387D01*
X74247222Y-65775584D01*
X74229858Y-65809342D01*
X74207026Y-65839732D01*
X74179173Y-65865824D01*
X74146748Y-65886688D01*
X74121917Y-65897560D01*
X74103070Y-65903218D01*
X74083395Y-65906567D01*
X74061673Y-65907576D01*
X74036684Y-65906210D01*
X74007207Y-65902437D01*
X73972023Y-65896225D01*
X73956351Y-65893105D01*
X73932954Y-65888309D01*
X73912187Y-65884007D01*
X73895260Y-65880455D01*
X73883387Y-65877907D01*
X73877777Y-65876617D01*
X73877551Y-65876548D01*
X73878550Y-65873074D01*
X73882592Y-65864135D01*
X73888955Y-65851113D01*
X73896917Y-65835388D01*
X73905758Y-65818343D01*
X73914755Y-65801357D01*
X73923188Y-65785814D01*
X73930334Y-65773094D01*
X73935471Y-65764578D01*
X73937430Y-65761914D01*
X73940507Y-65764008D01*
X73947580Y-65771149D01*
X73957713Y-65782323D01*
X73969970Y-65796518D01*
X73975071Y-65802593D01*
X73988980Y-65818695D01*
X74001584Y-65832202D01*
X74011795Y-65842017D01*
X74018528Y-65847043D01*
X74019495Y-65847412D01*
X74052755Y-65852005D01*
X74084115Y-65849685D01*
X74112685Y-65840578D01*
X74127550Y-65832285D01*
X74147030Y-65814930D01*
X74162086Y-65792453D01*
X74172523Y-65766304D01*
X74178146Y-65737930D01*
X74178760Y-65708781D01*
X74174168Y-65680304D01*
X74164177Y-65653949D01*
X74153816Y-65637474D01*
X74148195Y-65631893D01*
X74137132Y-65622446D01*
X74121519Y-65609837D01*
X74102252Y-65594774D01*
X74080222Y-65577963D01*
X74056323Y-65560108D01*
X74050349Y-65555702D01*
X74023255Y-65535505D01*
X73998210Y-65516319D01*
X73976113Y-65498864D01*
X73957859Y-65483859D01*
X73944344Y-65472022D01*
X73937292Y-65465033D01*
X73914870Y-65434992D01*
X73898177Y-65402189D01*
X73887657Y-65367988D01*
X73883756Y-65333753D01*
X73885767Y-65306840D01*
X73895671Y-65270171D01*
X73912023Y-65236925D01*
X73934086Y-65207835D01*
X73961118Y-65183635D01*
X73992382Y-65165058D01*
X74027136Y-65152837D01*
X74044403Y-65149507D01*
X74054334Y-65148220D01*
X74063435Y-65147552D01*
X74072987Y-65147642D01*
G37*
G36*
X79690312Y-65147697D02*
G01*
X79701635Y-65148694D01*
X79715989Y-65150723D01*
X79734650Y-65153923D01*
X79758892Y-65158430D01*
X79777626Y-65162007D01*
X79802616Y-65166845D01*
X79824908Y-65171247D01*
X79843400Y-65174988D01*
X79856990Y-65177843D01*
X79864575Y-65179588D01*
X79865779Y-65179980D01*
X79864211Y-65183521D01*
X79859026Y-65192448D01*
X79850916Y-65205627D01*
X79840572Y-65221928D01*
X79833374Y-65233053D01*
X79820391Y-65252742D01*
X79810838Y-65266547D01*
X79804061Y-65275245D01*
X79799410Y-65279613D01*
X79796232Y-65280429D01*
X79794569Y-65279339D01*
X79789864Y-65274203D01*
X79781322Y-65264814D01*
X79770346Y-65252715D01*
X79762971Y-65244571D01*
X79748041Y-65228929D01*
X79736098Y-65218589D01*
X79725716Y-65212405D01*
X79720450Y-65210448D01*
X79692234Y-65205744D01*
X79664213Y-65208173D01*
X79637953Y-65217422D01*
X79617348Y-65231121D01*
X79599512Y-65251124D01*
X79588313Y-65274324D01*
X79583708Y-65299866D01*
X79585655Y-65326896D01*
X79594109Y-65354558D01*
X79609028Y-65381997D01*
X79626047Y-65403722D01*
X79634013Y-65411356D01*
X79647321Y-65422745D01*
X79664963Y-65437087D01*
X79685934Y-65453583D01*
X79709228Y-65471430D01*
X79733840Y-65489826D01*
X79737683Y-65492657D01*
X79761881Y-65510606D01*
X79784476Y-65527667D01*
X79804563Y-65543135D01*
X79821235Y-65556301D01*
X79833589Y-65566458D01*
X79840718Y-65572900D01*
X79841501Y-65573755D01*
X79858942Y-65600149D01*
X79871116Y-65630962D01*
X79877990Y-65664813D01*
X79879534Y-65700322D01*
X79875716Y-65736110D01*
X79866504Y-65770795D01*
X79851868Y-65802999D01*
X79846892Y-65811229D01*
X79832756Y-65829711D01*
X79814206Y-65849003D01*
X79793626Y-65866935D01*
X79773398Y-65881334D01*
X79764335Y-65886443D01*
X79743649Y-65895835D01*
X79723659Y-65902489D01*
X79703097Y-65906447D01*
X79680697Y-65907753D01*
X79655194Y-65906450D01*
X79625321Y-65902580D01*
X79589812Y-65896186D01*
X79573577Y-65892897D01*
X79550613Y-65888120D01*
X79530149Y-65883841D01*
X79513468Y-65880329D01*
X79501854Y-65877856D01*
X79496591Y-65876691D01*
X79496570Y-65876685D01*
X79496523Y-65872926D01*
X79500258Y-65863093D01*
X79507504Y-65847791D01*
X79517987Y-65827624D01*
X79522142Y-65819947D01*
X79532502Y-65801079D01*
X79541621Y-65784678D01*
X79548820Y-65771949D01*
X79553419Y-65764099D01*
X79554693Y-65762184D01*
X79557833Y-65764213D01*
X79564943Y-65771313D01*
X79575086Y-65782474D01*
X79587326Y-65796688D01*
X79592477Y-65802856D01*
X79608029Y-65821304D01*
X79620325Y-65834475D01*
X79630938Y-65843237D01*
X79641440Y-65848455D01*
X79653404Y-65850995D01*
X79668402Y-65851725D01*
X79681006Y-65851631D01*
X79709617Y-65847425D01*
X79735987Y-65836279D01*
X79758923Y-65818994D01*
X79777234Y-65796371D01*
X79785003Y-65781713D01*
X79791211Y-65761846D01*
X79794900Y-65737668D01*
X79795833Y-65712342D01*
X79793771Y-65689029D01*
X79792462Y-65682603D01*
X79789094Y-65670531D01*
X79784716Y-65659654D01*
X79778616Y-65649238D01*
X79770086Y-65638544D01*
X79758416Y-65626839D01*
X79742897Y-65613385D01*
X79722818Y-65597446D01*
X79697470Y-65578288D01*
X79678026Y-65563900D01*
X79646051Y-65540229D01*
X79619738Y-65520394D01*
X79598346Y-65503752D01*
X79581136Y-65489660D01*
X79567368Y-65477477D01*
X79556300Y-65466559D01*
X79547194Y-65456264D01*
X79539309Y-65445948D01*
X79535010Y-65439711D01*
X79516934Y-65406314D01*
X79506006Y-65371858D01*
X79501870Y-65337159D01*
X79504170Y-65303030D01*
X79512551Y-65270284D01*
X79526656Y-65239736D01*
X79546131Y-65212200D01*
X79570620Y-65188490D01*
X79599768Y-65169419D01*
X79633218Y-65155801D01*
X79661777Y-65149530D01*
X79671658Y-65148252D01*
X79680745Y-65147596D01*
X79690312Y-65147697D01*
G37*
G36*
X84400473Y-65417689D02*
G01*
X84564119Y-65684564D01*
X84565126Y-65450035D01*
X84566134Y-65215507D01*
X84536804Y-65186005D01*
X84524782Y-65173660D01*
X84515145Y-65163287D01*
X84509043Y-65156151D01*
X84507475Y-65153659D01*
X84511204Y-65152870D01*
X84521683Y-65152165D01*
X84537851Y-65151576D01*
X84558644Y-65151135D01*
X84582999Y-65150874D01*
X84602121Y-65150815D01*
X84696767Y-65150815D01*
X84664625Y-65183125D01*
X84632482Y-65215435D01*
X84632482Y-65900861D01*
X84614818Y-65900861D01*
X84611857Y-65901129D01*
X84609429Y-65901681D01*
X84607279Y-65902140D01*
X84605158Y-65902129D01*
X84602811Y-65901269D01*
X84599986Y-65899183D01*
X84596432Y-65895495D01*
X84591896Y-65889826D01*
X84586126Y-65881799D01*
X84578869Y-65871037D01*
X84569874Y-65857162D01*
X84558887Y-65839797D01*
X84545657Y-65818564D01*
X84529931Y-65793085D01*
X84511457Y-65762985D01*
X84489982Y-65727884D01*
X84465255Y-65687405D01*
X84437023Y-65641172D01*
X84405034Y-65588806D01*
X84392233Y-65567862D01*
X84216441Y-65280307D01*
X84215438Y-65558247D01*
X84214435Y-65836188D01*
X84246604Y-65868525D01*
X84278772Y-65900861D01*
X84084801Y-65900861D01*
X84104353Y-65878399D01*
X84115845Y-65865525D01*
X84127203Y-65853342D01*
X84135971Y-65844482D01*
X84135991Y-65844463D01*
X84148077Y-65832989D01*
X84148077Y-65218374D01*
X84116473Y-65184595D01*
X84084869Y-65150815D01*
X84236828Y-65150815D01*
X84400473Y-65417689D01*
G37*
G36*
X78023677Y-63057885D02*
G01*
X78286389Y-63058890D01*
X78286389Y-63304998D01*
X78213226Y-63306061D01*
X78140064Y-63307124D01*
X78134337Y-63327547D01*
X78132691Y-63333727D01*
X78129217Y-63347022D01*
X78124033Y-63366979D01*
X78117254Y-63393146D01*
X78108998Y-63425070D01*
X78099381Y-63462300D01*
X78088520Y-63504382D01*
X78076532Y-63550865D01*
X78063533Y-63601296D01*
X78049641Y-63655222D01*
X78034971Y-63712191D01*
X78019641Y-63771751D01*
X78003768Y-63833449D01*
X77993495Y-63873393D01*
X77977391Y-63935978D01*
X77961781Y-63996562D01*
X77946781Y-64054706D01*
X77932504Y-64109971D01*
X77919064Y-64161916D01*
X77906576Y-64210103D01*
X77895154Y-64254091D01*
X77884913Y-64293442D01*
X77875965Y-64327715D01*
X77868426Y-64356471D01*
X77862410Y-64379271D01*
X77858031Y-64395674D01*
X77855403Y-64405242D01*
X77854681Y-64407605D01*
X77850983Y-64416395D01*
X77472187Y-64416395D01*
X77468291Y-64401746D01*
X77466771Y-64395802D01*
X77463507Y-64382856D01*
X77458642Y-64363488D01*
X77452321Y-64338276D01*
X77444691Y-64307801D01*
X77435894Y-64272640D01*
X77426077Y-64233374D01*
X77415384Y-64190581D01*
X77403960Y-64144841D01*
X77391951Y-64096733D01*
X77382739Y-64059819D01*
X77370466Y-64010684D01*
X77358713Y-63963746D01*
X77347621Y-63919557D01*
X77337328Y-63878664D01*
X77327974Y-63841620D01*
X77319698Y-63808973D01*
X77312640Y-63781274D01*
X77306939Y-63759073D01*
X77302734Y-63742919D01*
X77300166Y-63733364D01*
X77299385Y-63730842D01*
X77298175Y-63734282D01*
X77295147Y-63744759D01*
X77290441Y-63761743D01*
X77284197Y-63784708D01*
X77276557Y-63813125D01*
X77267662Y-63846468D01*
X77257651Y-63884208D01*
X77246665Y-63925818D01*
X77234846Y-63970770D01*
X77222334Y-64018537D01*
X77209270Y-64068591D01*
X77208182Y-64072769D01*
X77118679Y-64416395D01*
X76737614Y-64416395D01*
X76735495Y-64407605D01*
X76733589Y-64399757D01*
X76729967Y-64384890D01*
X76724766Y-64363574D01*
X76718127Y-64336380D01*
X76710189Y-64303878D01*
X76701092Y-64266639D01*
X76690974Y-64225232D01*
X76679976Y-64180228D01*
X76668236Y-64132198D01*
X76655895Y-64081711D01*
X76643092Y-64029338D01*
X76629966Y-63975650D01*
X76616656Y-63921216D01*
X76603303Y-63866607D01*
X76590045Y-63812393D01*
X76577022Y-63759144D01*
X76564374Y-63707431D01*
X76552239Y-63657824D01*
X76540758Y-63610894D01*
X76530069Y-63567211D01*
X76520313Y-63527344D01*
X76511629Y-63491865D01*
X76504155Y-63461343D01*
X76498032Y-63436349D01*
X76493399Y-63417454D01*
X76490486Y-63405591D01*
X76466212Y-63306952D01*
X76311658Y-63306952D01*
X76311658Y-63056936D01*
X77022749Y-63056936D01*
X77021717Y-63180967D01*
X77020686Y-63304998D01*
X76927907Y-63306046D01*
X76896960Y-63306555D01*
X76871714Y-63307304D01*
X76852675Y-63308266D01*
X76840349Y-63309416D01*
X76835241Y-63310725D01*
X76835128Y-63310963D01*
X76836063Y-63315316D01*
X76838766Y-63326610D01*
X76843078Y-63344215D01*
X76848842Y-63367502D01*
X76855901Y-63395840D01*
X76864098Y-63428598D01*
X76873276Y-63465146D01*
X76883276Y-63504854D01*
X76893943Y-63547091D01*
X76899664Y-63569698D01*
X76911517Y-63616518D01*
X76923493Y-63663843D01*
X76935340Y-63710675D01*
X76946805Y-63756017D01*
X76957636Y-63798869D01*
X76967581Y-63838234D01*
X76976388Y-63873114D01*
X76983804Y-63902512D01*
X76989578Y-63925429D01*
X76990033Y-63927239D01*
X76996861Y-63954181D01*
X77003093Y-63978399D01*
X77008475Y-63998931D01*
X77012751Y-64014816D01*
X77015666Y-64025093D01*
X77016966Y-64028801D01*
X77016985Y-64028796D01*
X77018246Y-64024864D01*
X77021184Y-64014426D01*
X77025514Y-63998537D01*
X77030949Y-63978253D01*
X77037204Y-63954631D01*
X77041613Y-63937838D01*
X77046551Y-63918973D01*
X77053246Y-63893404D01*
X77061474Y-63861985D01*
X77071012Y-63825570D01*
X77081636Y-63785013D01*
X77093121Y-63741168D01*
X77105246Y-63694889D01*
X77117785Y-63647029D01*
X77130515Y-63598443D01*
X77139847Y-63562827D01*
X77152574Y-63514251D01*
X77165272Y-63465775D01*
X77177717Y-63418252D01*
X77189686Y-63372537D01*
X77200956Y-63329483D01*
X77211302Y-63289944D01*
X77220502Y-63254774D01*
X77228332Y-63224828D01*
X77234568Y-63200958D01*
X77238000Y-63187804D01*
X77244975Y-63161143D01*
X77251643Y-63135814D01*
X77257640Y-63113196D01*
X77262598Y-63094666D01*
X77266151Y-63081606D01*
X77267318Y-63077445D01*
X77273209Y-63056936D01*
X77514012Y-63056936D01*
X77539824Y-63163388D01*
X77544519Y-63182783D01*
X77550866Y-63209050D01*
X77558691Y-63241464D01*
X77567818Y-63279302D01*
X77578073Y-63321838D01*
X77589282Y-63368348D01*
X77601270Y-63418108D01*
X77613862Y-63470393D01*
X77626885Y-63524478D01*
X77640162Y-63579640D01*
X77653520Y-63635154D01*
X77655856Y-63644863D01*
X77668540Y-63697558D01*
X77680714Y-63748072D01*
X77692252Y-63795890D01*
X77703030Y-63840498D01*
X77712924Y-63881383D01*
X77721808Y-63918032D01*
X77729559Y-63949930D01*
X77736051Y-63976564D01*
X77741160Y-63997421D01*
X77744762Y-64011985D01*
X77746731Y-64019745D01*
X77747072Y-64020925D01*
X77748353Y-64017749D01*
X77751199Y-64008314D01*
X77755235Y-63993930D01*
X77760088Y-63975906D01*
X77762118Y-63968187D01*
X77765362Y-63955773D01*
X77770396Y-63936513D01*
X77777034Y-63911119D01*
X77785090Y-63880304D01*
X77794376Y-63844779D01*
X77804708Y-63805258D01*
X77815899Y-63762452D01*
X77827762Y-63717075D01*
X77840111Y-63669838D01*
X77852761Y-63621454D01*
X77854510Y-63614764D01*
X77866777Y-63567793D01*
X77878455Y-63522982D01*
X77889393Y-63480909D01*
X77899444Y-63442153D01*
X77908457Y-63407292D01*
X77916284Y-63376905D01*
X77922776Y-63351569D01*
X77927782Y-63331865D01*
X77931155Y-63318369D01*
X77932744Y-63311661D01*
X77932851Y-63311034D01*
X77928953Y-63309486D01*
X77917273Y-63308303D01*
X77897834Y-63307489D01*
X77870659Y-63307043D01*
X77846909Y-63306952D01*
X77760966Y-63306952D01*
X77760966Y-63056881D01*
X78023677Y-63057885D01*
G37*
G36*
X71638427Y-65181177D02*
G01*
X71608244Y-65211539D01*
X71608244Y-65838443D01*
X71667878Y-65900861D01*
X71569697Y-65900861D01*
X71542928Y-65900746D01*
X71518938Y-65900421D01*
X71498771Y-65899920D01*
X71483470Y-65899273D01*
X71474077Y-65898515D01*
X71471516Y-65897827D01*
X71474123Y-65893951D01*
X71481140Y-65885970D01*
X71491363Y-65875214D01*
X71498862Y-65867656D01*
X71526207Y-65840520D01*
X71526207Y-65211156D01*
X71498862Y-65184020D01*
X71487244Y-65172202D01*
X71478078Y-65162328D01*
X71472568Y-65155726D01*
X71471516Y-65153850D01*
X71475249Y-65153024D01*
X71485754Y-65152283D01*
X71501988Y-65151661D01*
X71522912Y-65151188D01*
X71547483Y-65150896D01*
X71570064Y-65150815D01*
X71668611Y-65150815D01*
X71638427Y-65181177D01*
G37*
G36*
X72991141Y-65289356D02*
G01*
X72951033Y-65249384D01*
X72910925Y-65209413D01*
X72690341Y-65209413D01*
X72690341Y-65471147D01*
X72856183Y-65471147D01*
X72913011Y-65414699D01*
X72912873Y-65502497D01*
X72912734Y-65590295D01*
X72884551Y-65559955D01*
X72856367Y-65529614D01*
X72773354Y-65529680D01*
X72690341Y-65529745D01*
X72690341Y-65842264D01*
X72910925Y-65842264D01*
X72991141Y-65762320D01*
X72991141Y-65900861D01*
X72772378Y-65900861D01*
X72731848Y-65900809D01*
X72693753Y-65900657D01*
X72658793Y-65900417D01*
X72627665Y-65900098D01*
X72601069Y-65899709D01*
X72579704Y-65899259D01*
X72564268Y-65898760D01*
X72555461Y-65898220D01*
X72553614Y-65897827D01*
X72556221Y-65893951D01*
X72563238Y-65885970D01*
X72573461Y-65875214D01*
X72580960Y-65867656D01*
X72608305Y-65840520D01*
X72608305Y-65211156D01*
X72580960Y-65184020D01*
X72569342Y-65172202D01*
X72560176Y-65162328D01*
X72554666Y-65155726D01*
X72553614Y-65153850D01*
X72557404Y-65153288D01*
X72568308Y-65152759D01*
X72585627Y-65152274D01*
X72608663Y-65151842D01*
X72636716Y-65151473D01*
X72669087Y-65151177D01*
X72705078Y-65150963D01*
X72743990Y-65150841D01*
X72772378Y-65150815D01*
X72991141Y-65150815D01*
X72991141Y-65289356D01*
G37*
G36*
X81033536Y-65181177D02*
G01*
X81003353Y-65211539D01*
X81003353Y-65840138D01*
X81033536Y-65870500D01*
X81063720Y-65900861D01*
X80860949Y-65900861D01*
X80891133Y-65870500D01*
X80921316Y-65840138D01*
X80921316Y-65211539D01*
X80891133Y-65181177D01*
X80860949Y-65150815D01*
X81063720Y-65150815D01*
X81033536Y-65181177D01*
G37*
G36*
X73319651Y-65151848D02*
G01*
X73358834Y-65152359D01*
X73391171Y-65152943D01*
X73417627Y-65153714D01*
X73439168Y-65154786D01*
X73456762Y-65156272D01*
X73471373Y-65158286D01*
X73483968Y-65160942D01*
X73495513Y-65164353D01*
X73506974Y-65168634D01*
X73519318Y-65173898D01*
X73523801Y-65175894D01*
X73554995Y-65193376D01*
X73583612Y-65216193D01*
X73608205Y-65242866D01*
X73627330Y-65271916D01*
X73635846Y-65290571D01*
X73643628Y-65319605D01*
X73646761Y-65351236D01*
X73645069Y-65382190D01*
X73641670Y-65399054D01*
X73629607Y-65429819D01*
X73610981Y-65459339D01*
X73587037Y-65486158D01*
X73559022Y-65508826D01*
X73535948Y-65522296D01*
X73510612Y-65534769D01*
X73525752Y-65562532D01*
X73531190Y-65572582D01*
X73539751Y-65588505D01*
X73550889Y-65609278D01*
X73564056Y-65633878D01*
X73578703Y-65661282D01*
X73594283Y-65690468D01*
X73606486Y-65713350D01*
X73624037Y-65746199D01*
X73638481Y-65772975D01*
X73650342Y-65794525D01*
X73660143Y-65811694D01*
X73668408Y-65825328D01*
X73675659Y-65836274D01*
X73682419Y-65845376D01*
X73689213Y-65853482D01*
X73696563Y-65861437D01*
X73700773Y-65865789D01*
X73712606Y-65878161D01*
X73722066Y-65888537D01*
X73728009Y-65895630D01*
X73729468Y-65898018D01*
X73725783Y-65898994D01*
X73715617Y-65899826D01*
X73700301Y-65900450D01*
X73681166Y-65900804D01*
X73669170Y-65900861D01*
X73608873Y-65900861D01*
X73520361Y-65727022D01*
X73431850Y-65553184D01*
X73416586Y-65552858D01*
X73403431Y-65552666D01*
X73387398Y-65552549D01*
X73379837Y-65552533D01*
X73362906Y-65552599D01*
X73345222Y-65552766D01*
X73338819Y-65552858D01*
X73319286Y-65553184D01*
X73319286Y-65836825D01*
X73333306Y-65850287D01*
X73343987Y-65861166D01*
X73356133Y-65874426D01*
X73362968Y-65882305D01*
X73378611Y-65900861D01*
X73181786Y-65900861D01*
X73201267Y-65878399D01*
X73211962Y-65866340D01*
X73221768Y-65855748D01*
X73228673Y-65848792D01*
X73228999Y-65848495D01*
X73237250Y-65841053D01*
X73237250Y-65495405D01*
X73319286Y-65495405D01*
X73380813Y-65493878D01*
X73405120Y-65493149D01*
X73423177Y-65492217D01*
X73436549Y-65490881D01*
X73446800Y-65488941D01*
X73455493Y-65486198D01*
X73461873Y-65483520D01*
X73491648Y-65466873D01*
X73514795Y-65446572D01*
X73531914Y-65421928D01*
X73543606Y-65392250D01*
X73544653Y-65388394D01*
X73548213Y-65372887D01*
X73549477Y-65360332D01*
X73548585Y-65346889D01*
X73546612Y-65334080D01*
X73537181Y-65300012D01*
X73521512Y-65270093D01*
X73500055Y-65244945D01*
X73473261Y-65225192D01*
X73464672Y-65220618D01*
X73456937Y-65217156D01*
X73448992Y-65214639D01*
X73439344Y-65212876D01*
X73426499Y-65211676D01*
X73408962Y-65210849D01*
X73385240Y-65210203D01*
X73382767Y-65210147D01*
X73319286Y-65208740D01*
X73319286Y-65495405D01*
X73237250Y-65495405D01*
X73237250Y-65210877D01*
X73235281Y-65208740D01*
X73209293Y-65180536D01*
X73181335Y-65150195D01*
X73319651Y-65151848D01*
G37*
G36*
X83359820Y-65438118D02*
G01*
X83370735Y-65388323D01*
X83386373Y-65340917D01*
X83406566Y-65296622D01*
X83431147Y-65256162D01*
X83459948Y-65220260D01*
X83492802Y-65189639D01*
X83529542Y-65165022D01*
X83538429Y-65160333D01*
X83575240Y-65145918D01*
X83615220Y-65137550D01*
X83656243Y-65135532D01*
X83689262Y-65138843D01*
X83730296Y-65149850D01*
X83768666Y-65167830D01*
X83804039Y-65192302D01*
X83836082Y-65222782D01*
X83864464Y-65258788D01*
X83888851Y-65299837D01*
X83908911Y-65345445D01*
X83924311Y-65395130D01*
X83934718Y-65448410D01*
X83939700Y-65502399D01*
X83939307Y-65558627D01*
X83933312Y-65612828D01*
X83922039Y-65664424D01*
X83905809Y-65712835D01*
X83884947Y-65757481D01*
X83859776Y-65797782D01*
X83830618Y-65833159D01*
X83797797Y-65863032D01*
X83761636Y-65886821D01*
X83722458Y-65903946D01*
X83714457Y-65906471D01*
X83695181Y-65910584D01*
X83671224Y-65913390D01*
X83645633Y-65914727D01*
X83621457Y-65914433D01*
X83602148Y-65912420D01*
X83562442Y-65901384D01*
X83524603Y-65883108D01*
X83489184Y-65858050D01*
X83456737Y-65826673D01*
X83427818Y-65789436D01*
X83402979Y-65746801D01*
X83402856Y-65746555D01*
X83381927Y-65697613D01*
X83366723Y-65646722D01*
X83357078Y-65594603D01*
X83352824Y-65541981D01*
X83352956Y-65534827D01*
X83450719Y-65534827D01*
X83451575Y-65570547D01*
X83453737Y-65603414D01*
X83457224Y-65631316D01*
X83457886Y-65635067D01*
X83464851Y-65666630D01*
X83473887Y-65698432D01*
X83484235Y-65728184D01*
X83495136Y-65753593D01*
X83500612Y-65764053D01*
X83512619Y-65782206D01*
X83527809Y-65800963D01*
X83544168Y-65818103D01*
X83559683Y-65831408D01*
X83565033Y-65835054D01*
X83592892Y-65848065D01*
X83623889Y-65855368D01*
X83655938Y-65856820D01*
X83686953Y-65852282D01*
X83708564Y-65844735D01*
X83734838Y-65830288D01*
X83756696Y-65812407D01*
X83776577Y-65789048D01*
X83779005Y-65785696D01*
X83801186Y-65748708D01*
X83818669Y-65706385D01*
X83831517Y-65658474D01*
X83839791Y-65604721D01*
X83843555Y-65544874D01*
X83843818Y-65522116D01*
X83841463Y-65463264D01*
X83834567Y-65409059D01*
X83823256Y-65359908D01*
X83807652Y-65316216D01*
X83787880Y-65278390D01*
X83764064Y-65246836D01*
X83757825Y-65240307D01*
X83737583Y-65222030D01*
X83718163Y-65209289D01*
X83697450Y-65201245D01*
X83673327Y-65197054D01*
X83646093Y-65195878D01*
X83627001Y-65196059D01*
X83613204Y-65197049D01*
X83602198Y-65199272D01*
X83591475Y-65203158D01*
X83584231Y-65206420D01*
X83560229Y-65219447D01*
X83540711Y-65234580D01*
X83523311Y-65253894D01*
X83512000Y-65269695D01*
X83492805Y-65303960D01*
X83476387Y-65345047D01*
X83462959Y-65392395D01*
X83459973Y-65405713D01*
X83455797Y-65431699D01*
X83452850Y-65463289D01*
X83451151Y-65498370D01*
X83450719Y-65534827D01*
X83352956Y-65534827D01*
X83353793Y-65489578D01*
X83359820Y-65438118D01*
G37*
G36*
X80240519Y-65181177D02*
G01*
X80210335Y-65211539D01*
X80210335Y-65467241D01*
X80518948Y-65467241D01*
X80518948Y-65211156D01*
X80491602Y-65184020D01*
X80479985Y-65172202D01*
X80470819Y-65162328D01*
X80465309Y-65155726D01*
X80464257Y-65153850D01*
X80467990Y-65153024D01*
X80478494Y-65152283D01*
X80494729Y-65151661D01*
X80515653Y-65151188D01*
X80540224Y-65150896D01*
X80562804Y-65150815D01*
X80661352Y-65150815D01*
X80600984Y-65211539D01*
X80600984Y-65840138D01*
X80631168Y-65870500D01*
X80661352Y-65900861D01*
X80562804Y-65900861D01*
X80535983Y-65900746D01*
X80511939Y-65900423D01*
X80491714Y-65899923D01*
X80476349Y-65899279D01*
X80466885Y-65898522D01*
X80464257Y-65897827D01*
X80466864Y-65893951D01*
X80473881Y-65885970D01*
X80484104Y-65875214D01*
X80491602Y-65867656D01*
X80518948Y-65840520D01*
X80518948Y-65525838D01*
X80210335Y-65525838D01*
X80210335Y-65835260D01*
X80240114Y-65868061D01*
X80269893Y-65900861D01*
X80072803Y-65900861D01*
X80097082Y-65873476D01*
X80108048Y-65861286D01*
X80117250Y-65851387D01*
X80123344Y-65845209D01*
X80124830Y-65843947D01*
X80125395Y-65839769D01*
X80125927Y-65828302D01*
X80126420Y-65810070D01*
X80126868Y-65785596D01*
X80127265Y-65755404D01*
X80127607Y-65720018D01*
X80127886Y-65679961D01*
X80128098Y-65635757D01*
X80128237Y-65587930D01*
X80128297Y-65537003D01*
X80128299Y-65525619D01*
X80128299Y-65209436D01*
X80100457Y-65180126D01*
X80072615Y-65150815D01*
X80270702Y-65150815D01*
X80240519Y-65181177D01*
G37*
G36*
X82393993Y-65143606D02*
G01*
X82422382Y-65146476D01*
X82448217Y-65151851D01*
X82474059Y-65160253D01*
X82500515Y-65171321D01*
X82526884Y-65183224D01*
X82526884Y-65312534D01*
X82478788Y-65264985D01*
X82456951Y-65243905D01*
X82438958Y-65227966D01*
X82423537Y-65216400D01*
X82409418Y-65208439D01*
X82395330Y-65203316D01*
X82380005Y-65200265D01*
X82369750Y-65199114D01*
X82334833Y-65199793D01*
X82300505Y-65207864D01*
X82267303Y-65222907D01*
X82235766Y-65244503D01*
X82206434Y-65272232D01*
X82179844Y-65305673D01*
X82156534Y-65344406D01*
X82141234Y-65377392D01*
X82131295Y-65403700D01*
X82124065Y-65428401D01*
X82119202Y-65453548D01*
X82116364Y-65481194D01*
X82115207Y-65513393D01*
X82115163Y-65533651D01*
X82115477Y-65559446D01*
X82116183Y-65579449D01*
X82117489Y-65595681D01*
X82119601Y-65610159D01*
X82122729Y-65624905D01*
X82125818Y-65637173D01*
X82141405Y-65685249D01*
X82161357Y-65727794D01*
X82185374Y-65764530D01*
X82213159Y-65795182D01*
X82244411Y-65819471D01*
X82278832Y-65837121D01*
X82316122Y-65847854D01*
X82355982Y-65851392D01*
X82356952Y-65851387D01*
X82388008Y-65849135D01*
X82414568Y-65842404D01*
X82439014Y-65830422D01*
X82454614Y-65819667D01*
X82474146Y-65804828D01*
X82475177Y-65681884D01*
X82476207Y-65558940D01*
X82448808Y-65531751D01*
X82437178Y-65519921D01*
X82427998Y-65510035D01*
X82422472Y-65503419D01*
X82421409Y-65501527D01*
X82425139Y-65500690D01*
X82435625Y-65499941D01*
X82451812Y-65499314D01*
X82472641Y-65498843D01*
X82497056Y-65498560D01*
X82517118Y-65498493D01*
X82543532Y-65498611D01*
X82567154Y-65498944D01*
X82586927Y-65499457D01*
X82601793Y-65500117D01*
X82610697Y-65500891D01*
X82612827Y-65501527D01*
X82610220Y-65505403D01*
X82603203Y-65513384D01*
X82592980Y-65524140D01*
X82585481Y-65531698D01*
X82558136Y-65558834D01*
X82558136Y-65856065D01*
X82537627Y-65868179D01*
X82503458Y-65884966D01*
X82464987Y-65897240D01*
X82438302Y-65902825D01*
X82413665Y-65905975D01*
X82385470Y-65907743D01*
X82356207Y-65908125D01*
X82328365Y-65907119D01*
X82304433Y-65904725D01*
X82294395Y-65902938D01*
X82246934Y-65888769D01*
X82202832Y-65867619D01*
X82161907Y-65839386D01*
X82127040Y-65807204D01*
X82093334Y-65767297D01*
X82065894Y-65724362D01*
X82044062Y-65677211D01*
X82028401Y-65629223D01*
X82024254Y-65613155D01*
X82021340Y-65599165D01*
X82019445Y-65585210D01*
X82018354Y-65569248D01*
X82017852Y-65549234D01*
X82017727Y-65527791D01*
X82018116Y-65495431D01*
X82019445Y-65469606D01*
X82021800Y-65449087D01*
X82023967Y-65437808D01*
X82040113Y-65382597D01*
X82061906Y-65332160D01*
X82089114Y-65286808D01*
X82121505Y-65246854D01*
X82158848Y-65212608D01*
X82200910Y-65184382D01*
X82220224Y-65174253D01*
X82253772Y-65159730D01*
X82285404Y-65150074D01*
X82318047Y-65144629D01*
X82354630Y-65142736D01*
X82360490Y-65142717D01*
X82393993Y-65143606D01*
G37*
G36*
X83237865Y-65285443D02*
G01*
X83161549Y-65209413D01*
X83023008Y-65209413D01*
X83023008Y-65840520D01*
X83050354Y-65867656D01*
X83061971Y-65879474D01*
X83071137Y-65889349D01*
X83076647Y-65895951D01*
X83077699Y-65897827D01*
X83073967Y-65898655D01*
X83063467Y-65899398D01*
X83047244Y-65900022D01*
X83026344Y-65900495D01*
X83001810Y-65900784D01*
X82979859Y-65900861D01*
X82882019Y-65900861D01*
X82910589Y-65868633D01*
X82939159Y-65836404D01*
X82939013Y-65211366D01*
X82870815Y-65210293D01*
X82802617Y-65209221D01*
X82762413Y-65249289D01*
X82722208Y-65289356D01*
X82722208Y-65150815D01*
X83237865Y-65150815D01*
X83237865Y-65285443D01*
G37*
G36*
X75358474Y-65285443D02*
G01*
X75282158Y-65209413D01*
X75143617Y-65209413D01*
X75143617Y-65840520D01*
X75170963Y-65867656D01*
X75182581Y-65879474D01*
X75191746Y-65889349D01*
X75197256Y-65895951D01*
X75198308Y-65897827D01*
X75194576Y-65898655D01*
X75184075Y-65899397D01*
X75167850Y-65900021D01*
X75146945Y-65900493D01*
X75122404Y-65900783D01*
X75100331Y-65900861D01*
X75002353Y-65900861D01*
X75061581Y-65836495D01*
X75061581Y-65209413D01*
X74923034Y-65209413D01*
X74882926Y-65249384D01*
X74842817Y-65289356D01*
X74842817Y-65150815D01*
X75358474Y-65150815D01*
X75358474Y-65285443D01*
G37*
G36*
X70973755Y-65417881D02*
G01*
X71137511Y-65684946D01*
X71138519Y-65450222D01*
X71139526Y-65215497D01*
X71075180Y-65150815D01*
X71270160Y-65150815D01*
X71238017Y-65183125D01*
X71205875Y-65215435D01*
X71205875Y-65900861D01*
X71193179Y-65900834D01*
X71190977Y-65900730D01*
X71188740Y-65900165D01*
X71186201Y-65898745D01*
X71183096Y-65896074D01*
X71179161Y-65891761D01*
X71174131Y-65885409D01*
X71167741Y-65876625D01*
X71159727Y-65865015D01*
X71149823Y-65850185D01*
X71137766Y-65831740D01*
X71123290Y-65809286D01*
X71106132Y-65782429D01*
X71086025Y-65750775D01*
X71062706Y-65713930D01*
X71035910Y-65671499D01*
X71005372Y-65623089D01*
X70985158Y-65591033D01*
X70789834Y-65281258D01*
X70787828Y-65836188D01*
X70819997Y-65868525D01*
X70852165Y-65900861D01*
X70658434Y-65900861D01*
X70666215Y-65890118D01*
X70672683Y-65882306D01*
X70682868Y-65871212D01*
X70694820Y-65858942D01*
X70697732Y-65856059D01*
X70721470Y-65832742D01*
X70721422Y-65525961D01*
X70721374Y-65219179D01*
X70701138Y-65197693D01*
X70689250Y-65185038D01*
X70677701Y-65172689D01*
X70669168Y-65163511D01*
X70657434Y-65150815D01*
X70809999Y-65150815D01*
X70973755Y-65417881D01*
G37*
G36*
X70080754Y-65182124D02*
G01*
X70068899Y-65195126D01*
X70058814Y-65205911D01*
X70051731Y-65213176D01*
X70049089Y-65215560D01*
X70048389Y-65219791D01*
X70047772Y-65231037D01*
X70047235Y-65248503D01*
X70046779Y-65271391D01*
X70046403Y-65298904D01*
X70046107Y-65330246D01*
X70045890Y-65364619D01*
X70045751Y-65401228D01*
X70045691Y-65439274D01*
X70045709Y-65477962D01*
X70045803Y-65516495D01*
X70045975Y-65554075D01*
X70046222Y-65589906D01*
X70046546Y-65623192D01*
X70046945Y-65653134D01*
X70047418Y-65678938D01*
X70047966Y-65699805D01*
X70048588Y-65714939D01*
X70049283Y-65723543D01*
X70049398Y-65724247D01*
X70059332Y-65756484D01*
X70075838Y-65785303D01*
X70098140Y-65809942D01*
X70125464Y-65829638D01*
X70157033Y-65843632D01*
X70176088Y-65848655D01*
X70194891Y-65851889D01*
X70209993Y-65852749D01*
X70225094Y-65851362D01*
X70230226Y-65850518D01*
X70264015Y-65840867D01*
X70293738Y-65824759D01*
X70318809Y-65802636D01*
X70338644Y-65774937D01*
X70343769Y-65765012D01*
X70356213Y-65738742D01*
X70357297Y-65477197D01*
X70358382Y-65215652D01*
X70326132Y-65183233D01*
X70293882Y-65150815D01*
X70487749Y-65150815D01*
X70456163Y-65185374D01*
X70424577Y-65219934D01*
X70424577Y-65475996D01*
X70424568Y-65527171D01*
X70424531Y-65571146D01*
X70424447Y-65608537D01*
X70424301Y-65639957D01*
X70424075Y-65666020D01*
X70423753Y-65687341D01*
X70423317Y-65704533D01*
X70422750Y-65718211D01*
X70422036Y-65728988D01*
X70421158Y-65737479D01*
X70420098Y-65744298D01*
X70418840Y-65750059D01*
X70417367Y-65755376D01*
X70416822Y-65757168D01*
X70402092Y-65792047D01*
X70380965Y-65823627D01*
X70354340Y-65851394D01*
X70323120Y-65874836D01*
X70288205Y-65893439D01*
X70250496Y-65906689D01*
X70210895Y-65914073D01*
X70170304Y-65915078D01*
X70144664Y-65912211D01*
X70106465Y-65902088D01*
X70070838Y-65885359D01*
X70038675Y-65862845D01*
X70010867Y-65835366D01*
X69988307Y-65803742D01*
X69971886Y-65768793D01*
X69965586Y-65747572D01*
X69964392Y-65741361D01*
X69963367Y-65733227D01*
X69962499Y-65722591D01*
X69961777Y-65708871D01*
X69961187Y-65691487D01*
X69960719Y-65669861D01*
X69960359Y-65643410D01*
X69960096Y-65611555D01*
X69959917Y-65573716D01*
X69959811Y-65529313D01*
X69959765Y-65477765D01*
X69959762Y-65469276D01*
X69959705Y-65215435D01*
X69927562Y-65183125D01*
X69895420Y-65150815D01*
X70108979Y-65150815D01*
X70080754Y-65182124D01*
G37*
G36*
X77347326Y-65150764D02*
G01*
X77365486Y-65156276D01*
X77379149Y-65166424D01*
X77387155Y-65177346D01*
X77391854Y-65187495D01*
X77391923Y-65196349D01*
X77390124Y-65202490D01*
X77383170Y-65216039D01*
X77373339Y-65227526D01*
X77362617Y-65234984D01*
X77355500Y-65236758D01*
X77346367Y-65234295D01*
X77336009Y-65228226D01*
X77334224Y-65226805D01*
X77309360Y-65210413D01*
X77282329Y-65200811D01*
X77275909Y-65199637D01*
X77257983Y-65199296D01*
X77242503Y-65204403D01*
X77228968Y-65215464D01*
X77216878Y-65232987D01*
X77205734Y-65257477D01*
X77198569Y-65277969D01*
X77194592Y-65291788D01*
X77189854Y-65310435D01*
X77184688Y-65332345D01*
X77179425Y-65355954D01*
X77174397Y-65379698D01*
X77169937Y-65402011D01*
X77166375Y-65421330D01*
X77164045Y-65436090D01*
X77163273Y-65444377D01*
X77163876Y-65447086D01*
X77166446Y-65449041D01*
X77172121Y-65450397D01*
X77182038Y-65451309D01*
X77197337Y-65451933D01*
X77219154Y-65452425D01*
X77222695Y-65452490D01*
X77282117Y-65453568D01*
X77270549Y-65466337D01*
X77265479Y-65471625D01*
X77260474Y-65475375D01*
X77253975Y-65478039D01*
X77244418Y-65480072D01*
X77230245Y-65481927D01*
X77209893Y-65484055D01*
X77209301Y-65484115D01*
X77190420Y-65486164D01*
X77174483Y-65488168D01*
X77163035Y-65489913D01*
X77157620Y-65491185D01*
X77157438Y-65491306D01*
X77156261Y-65495586D01*
X77154033Y-65506573D01*
X77150934Y-65523260D01*
X77147147Y-65544640D01*
X77142854Y-65569705D01*
X77138235Y-65597448D01*
X77137736Y-65600489D01*
X77126276Y-65668487D01*
X77115285Y-65729355D01*
X77104596Y-65783747D01*
X77094038Y-65832322D01*
X77083443Y-65875734D01*
X77072640Y-65914640D01*
X77061460Y-65949696D01*
X77049734Y-65981558D01*
X77037292Y-66010882D01*
X77025348Y-66035635D01*
X77009502Y-66062004D01*
X76990513Y-66086078D01*
X76969343Y-66107204D01*
X76946956Y-66124727D01*
X76924317Y-66137993D01*
X76902389Y-66146346D01*
X76882136Y-66149132D01*
X76864523Y-66145698D01*
X76863744Y-66145358D01*
X76849432Y-66135911D01*
X76841964Y-66123893D01*
X76841756Y-66110059D01*
X76842634Y-66107106D01*
X76849320Y-66093985D01*
X76858785Y-66082572D01*
X76869052Y-66074877D01*
X76876450Y-66072747D01*
X76885161Y-66074335D01*
X76897040Y-66078337D01*
X76902088Y-66080474D01*
X76921946Y-66086846D01*
X76940034Y-66087619D01*
X76954645Y-66082748D01*
X76955813Y-66081974D01*
X76964659Y-66072037D01*
X76973705Y-66054676D01*
X76982832Y-66030276D01*
X76991918Y-65999218D01*
X77000844Y-65961886D01*
X77009489Y-65918663D01*
X77012660Y-65900861D01*
X77014895Y-65887414D01*
X77017960Y-65868216D01*
X77021724Y-65844159D01*
X77026052Y-65816136D01*
X77030811Y-65785038D01*
X77035868Y-65751757D01*
X77041088Y-65717186D01*
X77046339Y-65682216D01*
X77051486Y-65647739D01*
X77056397Y-65614647D01*
X77060938Y-65583832D01*
X77064975Y-65556186D01*
X77068375Y-65532601D01*
X77071005Y-65513969D01*
X77072730Y-65501182D01*
X77073417Y-65495131D01*
X77073423Y-65494923D01*
X77069560Y-65492789D01*
X77058074Y-65491386D01*
X77039124Y-65490730D01*
X77030452Y-65490680D01*
X77011567Y-65490566D01*
X76999160Y-65490081D01*
X76991901Y-65489004D01*
X76988456Y-65487118D01*
X76987493Y-65484205D01*
X76987481Y-65483633D01*
X76990141Y-65476779D01*
X76996842Y-65467782D01*
X77000363Y-65464101D01*
X77006996Y-65458056D01*
X77013037Y-65454364D01*
X77020647Y-65452446D01*
X77031986Y-65451723D01*
X77046964Y-65451615D01*
X77080683Y-65451615D01*
X77085181Y-65429153D01*
X77097639Y-65375937D01*
X77112433Y-65329590D01*
X77129856Y-65289439D01*
X77150204Y-65254809D01*
X77173774Y-65225029D01*
X77175563Y-65223097D01*
X77205743Y-65195322D01*
X77238262Y-65173661D01*
X77272181Y-65158585D01*
X77306557Y-65150563D01*
X77323439Y-65149346D01*
X77347326Y-65150764D01*
G37*
G36*
X77979210Y-65181090D02*
G01*
X77949575Y-65211366D01*
X78024073Y-65466261D01*
X78036647Y-65509090D01*
X78048628Y-65549520D01*
X78059832Y-65586958D01*
X78070077Y-65620809D01*
X78079178Y-65650480D01*
X78086954Y-65675375D01*
X78093220Y-65694900D01*
X78097794Y-65708462D01*
X78100492Y-65715465D01*
X78101132Y-65716276D01*
X78102692Y-65711748D01*
X78106295Y-65700403D01*
X78111735Y-65682907D01*
X78118811Y-65659924D01*
X78127317Y-65632122D01*
X78137051Y-65600166D01*
X78147808Y-65564722D01*
X78159386Y-65526456D01*
X78171264Y-65487079D01*
X78238834Y-65262761D01*
X78232079Y-65237063D01*
X78228509Y-65224913D01*
X78224310Y-65215163D01*
X78218210Y-65205874D01*
X78208938Y-65195104D01*
X78195397Y-65181090D01*
X78165471Y-65150815D01*
X78376042Y-65150815D01*
X78347818Y-65179229D01*
X78336018Y-65191456D01*
X78326631Y-65201842D01*
X78320836Y-65209044D01*
X78319549Y-65211458D01*
X78320601Y-65216099D01*
X78323636Y-65227393D01*
X78328435Y-65244592D01*
X78334780Y-65266952D01*
X78342452Y-65293725D01*
X78351231Y-65324164D01*
X78360898Y-65357523D01*
X78371236Y-65393056D01*
X78382024Y-65430015D01*
X78393045Y-65467655D01*
X78404079Y-65505230D01*
X78414907Y-65541991D01*
X78425310Y-65577193D01*
X78435070Y-65610090D01*
X78443968Y-65639934D01*
X78451784Y-65665980D01*
X78458301Y-65687480D01*
X78463298Y-65703689D01*
X78466557Y-65713859D01*
X78467850Y-65717249D01*
X78469264Y-65713628D01*
X78472681Y-65703261D01*
X78477876Y-65686894D01*
X78484623Y-65665270D01*
X78492700Y-65639133D01*
X78501880Y-65609227D01*
X78511940Y-65576296D01*
X78522655Y-65541085D01*
X78533799Y-65504336D01*
X78545150Y-65466795D01*
X78556481Y-65429205D01*
X78567569Y-65392310D01*
X78578188Y-65356854D01*
X78588115Y-65323582D01*
X78597124Y-65293236D01*
X78604991Y-65266562D01*
X78611491Y-65244303D01*
X78616400Y-65227203D01*
X78619493Y-65216006D01*
X78620546Y-65211458D01*
X78617882Y-65207246D01*
X78610817Y-65198917D01*
X78600536Y-65187817D01*
X78592169Y-65179229D01*
X78563945Y-65150815D01*
X78743265Y-65150815D01*
X78713403Y-65181090D01*
X78683540Y-65211366D01*
X78579708Y-65547324D01*
X78564363Y-65596935D01*
X78549618Y-65644528D01*
X78535644Y-65689559D01*
X78522611Y-65731480D01*
X78510689Y-65769748D01*
X78500049Y-65803817D01*
X78490861Y-65833141D01*
X78483296Y-65857175D01*
X78477523Y-65875374D01*
X78473713Y-65887192D01*
X78472042Y-65892072D01*
X78468097Y-65897739D01*
X78461168Y-65900317D01*
X78450726Y-65900861D01*
X78433244Y-65900861D01*
X78422144Y-65864726D01*
X78419025Y-65854497D01*
X78413889Y-65837559D01*
X78406969Y-65814684D01*
X78398499Y-65786645D01*
X78388711Y-65754214D01*
X78377838Y-65718164D01*
X78366114Y-65679267D01*
X78353773Y-65638296D01*
X78341046Y-65596023D01*
X78340903Y-65595548D01*
X78328552Y-65554585D01*
X78316861Y-65515947D01*
X78306022Y-65480267D01*
X78296230Y-65448174D01*
X78287678Y-65420301D01*
X78280560Y-65397278D01*
X78275071Y-65379737D01*
X78271402Y-65368307D01*
X78269749Y-65363622D01*
X78269681Y-65363542D01*
X78268374Y-65367348D01*
X78264940Y-65378024D01*
X78259564Y-65394976D01*
X78252433Y-65417610D01*
X78243733Y-65445333D01*
X78233650Y-65477551D01*
X78222369Y-65513672D01*
X78210077Y-65553101D01*
X78196960Y-65595246D01*
X78185616Y-65631744D01*
X78102632Y-65898908D01*
X78084506Y-65900084D01*
X78073398Y-65900168D01*
X78066002Y-65899033D01*
X78064573Y-65898131D01*
X78063211Y-65894011D01*
X78059771Y-65882937D01*
X78054412Y-65865439D01*
X78047295Y-65842048D01*
X78038581Y-65813295D01*
X78028430Y-65779710D01*
X78017002Y-65741824D01*
X78004458Y-65700167D01*
X77990958Y-65655272D01*
X77976662Y-65607668D01*
X77961731Y-65557885D01*
X77960322Y-65553184D01*
X77857879Y-65211366D01*
X77828070Y-65181090D01*
X77798261Y-65150815D01*
X78008845Y-65150815D01*
X77979210Y-65181090D01*
G37*
G36*
X75663013Y-65165465D02*
G01*
X75651883Y-65177564D01*
X75639570Y-65190880D01*
X75635057Y-65195740D01*
X75620520Y-65211366D01*
X75691074Y-65346140D01*
X75706771Y-65376068D01*
X75721388Y-65403833D01*
X75734521Y-65428670D01*
X75745761Y-65449814D01*
X75754702Y-65466501D01*
X75760938Y-65477967D01*
X75764061Y-65483446D01*
X75764296Y-65483779D01*
X75766578Y-65481024D01*
X75772110Y-65472286D01*
X75780403Y-65458437D01*
X75790966Y-65440354D01*
X75803309Y-65418910D01*
X75816942Y-65394982D01*
X75831375Y-65369443D01*
X75846118Y-65343168D01*
X75860680Y-65317032D01*
X75874571Y-65291911D01*
X75887302Y-65268678D01*
X75898382Y-65248209D01*
X75907320Y-65231378D01*
X75913627Y-65219060D01*
X75916812Y-65212130D01*
X75917102Y-65211071D01*
X75914508Y-65207027D01*
X75907507Y-65198841D01*
X75897274Y-65187838D01*
X75888878Y-65179229D01*
X75860654Y-65150815D01*
X75951382Y-65150815D01*
X75977068Y-65150932D01*
X75999932Y-65151260D01*
X76018890Y-65151766D01*
X76032856Y-65152414D01*
X76040745Y-65153171D01*
X76042110Y-65153663D01*
X76039526Y-65157426D01*
X76032515Y-65165469D01*
X76022188Y-65176562D01*
X76011263Y-65187845D01*
X76004028Y-65195305D01*
X75997474Y-65202460D01*
X75991176Y-65209992D01*
X75984709Y-65218580D01*
X75977645Y-65228908D01*
X75969561Y-65241655D01*
X75960029Y-65257504D01*
X75948624Y-65277135D01*
X75934921Y-65301230D01*
X75918493Y-65330471D01*
X75898915Y-65365538D01*
X75888209Y-65384757D01*
X75796001Y-65550336D01*
X75796001Y-65840520D01*
X75823347Y-65867656D01*
X75834964Y-65879474D01*
X75844130Y-65889349D01*
X75849640Y-65895951D01*
X75850692Y-65897827D01*
X75846959Y-65898653D01*
X75836456Y-65899394D01*
X75820225Y-65900018D01*
X75799308Y-65900491D01*
X75774748Y-65900781D01*
X75752352Y-65900861D01*
X75654013Y-65900861D01*
X75713965Y-65839255D01*
X75713965Y-65553752D01*
X75631613Y-65402092D01*
X75614052Y-65369767D01*
X75597318Y-65338995D01*
X75581849Y-65310577D01*
X75568083Y-65285318D01*
X75556456Y-65264018D01*
X75547408Y-65247482D01*
X75541375Y-65236512D01*
X75539337Y-65232851D01*
X75532439Y-65222755D01*
X75521553Y-65209214D01*
X75508325Y-65194200D01*
X75497745Y-65183044D01*
X75466075Y-65150815D01*
X75676433Y-65150815D01*
X75663013Y-65165465D01*
G37*
G36*
X74599206Y-65150930D02*
G01*
X74623250Y-65151254D01*
X74643475Y-65151754D01*
X74658840Y-65152398D01*
X74668304Y-65153154D01*
X74670932Y-65153850D01*
X74668325Y-65157726D01*
X74661308Y-65165706D01*
X74651085Y-65176462D01*
X74643586Y-65184020D01*
X74616241Y-65211156D01*
X74616241Y-65840138D01*
X74646425Y-65870500D01*
X74676608Y-65900861D01*
X74473837Y-65900861D01*
X74504021Y-65870500D01*
X74534205Y-65840138D01*
X74534205Y-65211539D01*
X74473837Y-65150815D01*
X74572385Y-65150815D01*
X74599206Y-65150930D01*
G37*
G36*
X71981963Y-65208955D02*
G01*
X72055061Y-65460176D01*
X72067536Y-65503029D01*
X72079402Y-65543749D01*
X72090474Y-65581703D01*
X72100567Y-65616258D01*
X72109495Y-65646781D01*
X72117073Y-65672640D01*
X72123116Y-65693201D01*
X72127438Y-65707831D01*
X72129856Y-65715898D01*
X72130286Y-65717256D01*
X72131738Y-65714615D01*
X72135240Y-65705076D01*
X72140606Y-65689226D01*
X72147648Y-65667654D01*
X72156181Y-65640946D01*
X72166016Y-65609691D01*
X72176968Y-65574476D01*
X72188850Y-65535890D01*
X72201475Y-65494519D01*
X72209740Y-65467241D01*
X72287067Y-65211366D01*
X72260175Y-65183928D01*
X72248738Y-65171989D01*
X72239719Y-65162058D01*
X72234306Y-65155472D01*
X72233282Y-65153653D01*
X72237003Y-65152833D01*
X72247428Y-65152105D01*
X72263448Y-65151507D01*
X72283952Y-65151075D01*
X72307831Y-65150844D01*
X72320110Y-65150815D01*
X72406937Y-65150815D01*
X72377281Y-65181090D01*
X72347625Y-65211366D01*
X72245012Y-65543417D01*
X72229744Y-65592837D01*
X72215083Y-65640315D01*
X72201202Y-65685293D01*
X72188271Y-65727216D01*
X72176462Y-65765525D01*
X72165948Y-65799663D01*
X72156898Y-65829075D01*
X72149486Y-65853201D01*
X72143883Y-65871486D01*
X72140259Y-65883373D01*
X72138826Y-65888165D01*
X72136145Y-65895765D01*
X72132095Y-65899505D01*
X72124237Y-65900748D01*
X72116087Y-65900861D01*
X72104515Y-65900503D01*
X72098314Y-65898520D01*
X72095047Y-65893550D01*
X72093368Y-65888165D01*
X72091736Y-65882588D01*
X72088029Y-65870088D01*
X72082417Y-65851226D01*
X72075066Y-65826562D01*
X72066143Y-65796659D01*
X72055818Y-65762077D01*
X72044256Y-65723377D01*
X72031625Y-65681120D01*
X72018094Y-65635869D01*
X72003829Y-65588183D01*
X71991018Y-65545371D01*
X71892221Y-65215272D01*
X71860677Y-65183044D01*
X71829133Y-65150815D01*
X72039715Y-65150815D01*
X71981963Y-65208955D01*
G37*
G36*
X76467653Y-65703584D02*
G01*
X76473613Y-65671436D01*
X76482829Y-65637757D01*
X76494345Y-65605533D01*
X76507208Y-65577751D01*
X76508902Y-65574669D01*
X76531639Y-65539970D01*
X76558326Y-65509037D01*
X76588097Y-65482328D01*
X76620088Y-65460297D01*
X76653435Y-65443400D01*
X76687273Y-65432093D01*
X76720738Y-65426829D01*
X76752965Y-65428066D01*
X76776405Y-65433739D01*
X76798676Y-65445086D01*
X76819282Y-65462437D01*
X76836420Y-65483984D01*
X76847001Y-65504474D01*
X76852799Y-65525742D01*
X76856102Y-65552341D01*
X76856909Y-65582195D01*
X76855216Y-65613228D01*
X76851019Y-65643365D01*
X76847246Y-65660350D01*
X76830682Y-65711663D01*
X76809122Y-65757880D01*
X76782841Y-65798628D01*
X76752111Y-65833533D01*
X76717205Y-65862223D01*
X76685991Y-65880683D01*
X76652609Y-65895525D01*
X76623001Y-65904522D01*
X76595984Y-65907869D01*
X76570377Y-65905761D01*
X76555813Y-65902149D01*
X76528768Y-65890008D01*
X76506199Y-65871777D01*
X76488305Y-65847906D01*
X76475286Y-65818843D01*
X76467340Y-65785038D01*
X76464668Y-65746940D01*
X76466520Y-65719210D01*
X76552272Y-65719210D01*
X76552581Y-65751009D01*
X76554135Y-65776403D01*
X76557254Y-65796741D01*
X76562257Y-65813374D01*
X76569463Y-65827655D01*
X76579193Y-65840935D01*
X76581756Y-65843916D01*
X76598229Y-65858508D01*
X76616175Y-65866006D01*
X76636408Y-65866546D01*
X76659739Y-65860265D01*
X76665479Y-65857934D01*
X76681737Y-65847370D01*
X76698300Y-65829837D01*
X76714642Y-65806136D01*
X76730235Y-65777067D01*
X76744551Y-65743429D01*
X76748926Y-65731402D01*
X76764020Y-65676817D01*
X76771603Y-65620717D01*
X76772624Y-65590195D01*
X76770555Y-65553243D01*
X76764341Y-65522903D01*
X76753970Y-65499157D01*
X76739431Y-65481987D01*
X76720713Y-65471376D01*
X76697805Y-65467305D01*
X76694751Y-65467255D01*
X76670691Y-65470553D01*
X76648403Y-65480641D01*
X76627602Y-65497760D01*
X76608005Y-65522154D01*
X76589326Y-65554063D01*
X76586818Y-65559043D01*
X76574352Y-65585982D01*
X76565173Y-65610602D01*
X76558827Y-65635006D01*
X76554861Y-65661299D01*
X76552819Y-65691587D01*
X76552272Y-65719210D01*
X76466520Y-65719210D01*
X76467469Y-65704998D01*
X76467653Y-65703584D01*
G37*
G36*
X81337357Y-65151708D02*
G01*
X81414395Y-65152768D01*
X81577061Y-65417954D01*
X81739726Y-65683141D01*
X81740734Y-65449324D01*
X81741742Y-65215508D01*
X81712412Y-65186005D01*
X81700390Y-65173660D01*
X81690753Y-65163287D01*
X81684650Y-65156151D01*
X81683082Y-65153659D01*
X81686811Y-65152868D01*
X81697287Y-65152162D01*
X81713446Y-65151572D01*
X81734223Y-65151131D01*
X81758552Y-65150872D01*
X81777261Y-65150815D01*
X81871439Y-65150815D01*
X81839764Y-65185511D01*
X81808090Y-65220206D01*
X81808090Y-65901311D01*
X81791580Y-65900109D01*
X81775069Y-65898908D01*
X81583559Y-65589751D01*
X81392048Y-65280595D01*
X81391046Y-65558392D01*
X81390043Y-65836188D01*
X81422211Y-65868525D01*
X81454380Y-65900861D01*
X81260336Y-65900861D01*
X81292010Y-65866166D01*
X81323685Y-65831471D01*
X81323685Y-65218374D01*
X81292002Y-65184511D01*
X81260319Y-65150647D01*
X81337357Y-65151708D01*
G37*
G36*
X78955229Y-65445522D02*
G01*
X78971286Y-65398060D01*
X78986435Y-65353250D01*
X79000503Y-65311608D01*
X79013313Y-65273656D01*
X79024691Y-65239910D01*
X79034463Y-65210890D01*
X79042453Y-65187114D01*
X79048487Y-65169102D01*
X79052389Y-65157372D01*
X79053984Y-65152442D01*
X79054014Y-65152321D01*
X79057527Y-65151455D01*
X79066493Y-65150911D01*
X79073210Y-65150815D01*
X79092406Y-65150815D01*
X79119660Y-65231875D01*
X79125607Y-65249570D01*
X79133750Y-65273819D01*
X79143803Y-65303767D01*
X79155480Y-65338559D01*
X79168494Y-65377342D01*
X79182559Y-65419260D01*
X79197386Y-65463459D01*
X79212691Y-65509086D01*
X79228186Y-65555285D01*
X79235341Y-65576623D01*
X79323769Y-65840311D01*
X79351011Y-65867748D01*
X79362561Y-65879651D01*
X79371683Y-65889563D01*
X79377183Y-65896160D01*
X79378253Y-65898023D01*
X79374517Y-65898785D01*
X79363995Y-65899469D01*
X79347711Y-65900047D01*
X79326691Y-65900491D01*
X79301960Y-65900772D01*
X79276684Y-65900861D01*
X79249436Y-65900757D01*
X79224950Y-65900463D01*
X79204251Y-65900008D01*
X79188366Y-65899421D01*
X79178320Y-65898730D01*
X79175115Y-65898023D01*
X79177689Y-65894201D01*
X79184617Y-65886208D01*
X79194710Y-65875376D01*
X79202107Y-65867748D01*
X79229098Y-65840311D01*
X79203326Y-65761150D01*
X79177555Y-65681989D01*
X78935539Y-65684051D01*
X78909279Y-65762728D01*
X78883019Y-65841404D01*
X78909919Y-65868098D01*
X78921435Y-65879819D01*
X78930488Y-65889593D01*
X78935864Y-65896078D01*
X78936819Y-65897827D01*
X78933099Y-65898708D01*
X78922681Y-65899489D01*
X78906679Y-65900130D01*
X78886211Y-65900591D01*
X78862389Y-65900834D01*
X78850877Y-65900861D01*
X78825910Y-65900738D01*
X78803795Y-65900394D01*
X78785646Y-65899864D01*
X78772579Y-65899187D01*
X78765707Y-65898399D01*
X78764934Y-65898018D01*
X78767515Y-65894229D01*
X78774493Y-65886215D01*
X78784719Y-65875251D01*
X78793901Y-65865789D01*
X78822867Y-65836404D01*
X78894634Y-65624477D01*
X78956319Y-65624477D01*
X78960062Y-65625270D01*
X78970581Y-65625982D01*
X78986842Y-65626582D01*
X79007806Y-65627039D01*
X79032439Y-65627324D01*
X79055967Y-65627407D01*
X79087910Y-65627322D01*
X79112749Y-65627044D01*
X79131194Y-65626538D01*
X79143952Y-65625770D01*
X79151732Y-65624704D01*
X79155243Y-65623307D01*
X79155619Y-65622524D01*
X79154466Y-65617267D01*
X79151189Y-65605826D01*
X79146101Y-65589150D01*
X79139516Y-65568189D01*
X79131747Y-65543890D01*
X79123107Y-65517202D01*
X79113911Y-65489075D01*
X79104471Y-65460457D01*
X79095101Y-65432297D01*
X79086115Y-65405544D01*
X79077826Y-65381146D01*
X79070547Y-65360053D01*
X79064591Y-65343213D01*
X79060273Y-65331575D01*
X79057906Y-65326088D01*
X79057591Y-65325802D01*
X79055891Y-65329962D01*
X79052046Y-65340564D01*
X79046386Y-65356640D01*
X79039239Y-65377222D01*
X79030933Y-65401341D01*
X79021797Y-65428029D01*
X79012159Y-65456317D01*
X79002348Y-65485236D01*
X78992692Y-65513817D01*
X78983520Y-65541093D01*
X78975159Y-65566094D01*
X78967939Y-65587852D01*
X78962188Y-65605398D01*
X78958234Y-65617764D01*
X78956405Y-65623981D01*
X78956319Y-65624477D01*
X78894634Y-65624477D01*
X78938441Y-65495115D01*
X78955229Y-65445522D01*
G37*
M02*
