M48
; DRILL file {KiCad (6.0.8)} date Tue Oct 25 11:32:19 2022
; FORMAT={-:-/ absolute / inch / decimal}
; #@! TF.CreationDate,2022-10-25T11:32:19-07:00
; #@! TF.GenerationSoftware,Kicad,Pcbnew,(6.0.8)
; #@! TF.FileFunction,Plated,1,2,PTH
FMAT,2
INCH
; #@! TA.AperFunction,Plated,PTH,ViaDrill
T1C0.0157
; #@! TA.AperFunction,Plated,PTH,ComponentDrill
T2C0.0295
; #@! TA.AperFunction,Plated,PTH,ComponentDrill
T3C0.0394
%
G90
G05
T1
X2.7874Y-3.5787
X2.878Y-3.3031
X2.8937Y-3.0591
X3.0472Y-3.0945
X3.0512Y-3.1535
X3.0512Y-3.3031
X3.0787Y-2.9724
X3.0945Y-3.2677
X3.1398Y-2.7736
X3.2283Y-3.1811
X3.252Y-2.5787
X3.2913Y-3.6181
T2
X2.7894Y-2.813
X2.7894Y-2.8917
T3
X2.7933Y-3.0807
X2.7933Y-3.1807
X2.7933Y-3.2807
X2.7933Y-3.3807
X2.9555Y-3.4866
X2.9555Y-3.5866
X3.0555Y-3.4866
X3.0555Y-3.5866
X3.1555Y-3.4866
X3.1555Y-3.5866
X3.3287Y-3.0846
X3.3287Y-3.1846
X3.3287Y-3.2846
X3.3287Y-3.3846
T0
M30
